%TF.GenerationSoftware,KiCad,Pcbnew,7.0.7*%
%TF.CreationDate,2024-06-24T12:04:25-04:00*%
%TF.ProjectId,ESP32_S3_Breakout,45535033-325f-4533-935f-427265616b6f,rev?*%
%TF.SameCoordinates,Original*%
%TF.FileFunction,Copper,L2,Bot*%
%TF.FilePolarity,Positive*%
%FSLAX46Y46*%
G04 Gerber Fmt 4.6, Leading zero omitted, Abs format (unit mm)*
G04 Created by KiCad (PCBNEW 7.0.7) date 2024-06-24 12:04:25*
%MOMM*%
%LPD*%
G01*
G04 APERTURE LIST*
%TA.AperFunction,HeatsinkPad*%
%ADD10C,0.600000*%
%TD*%
%TA.AperFunction,ComponentPad*%
%ADD11R,1.700000X1.700000*%
%TD*%
%TA.AperFunction,ComponentPad*%
%ADD12O,1.700000X1.700000*%
%TD*%
%TA.AperFunction,ComponentPad*%
%ADD13O,1.000000X2.100000*%
%TD*%
%TA.AperFunction,ComponentPad*%
%ADD14O,1.000000X1.800000*%
%TD*%
%TA.AperFunction,ViaPad*%
%ADD15C,0.500000*%
%TD*%
%TA.AperFunction,ViaPad*%
%ADD16C,0.800000*%
%TD*%
%TA.AperFunction,Conductor*%
%ADD17C,0.500000*%
%TD*%
%TA.AperFunction,Conductor*%
%ADD18C,0.200000*%
%TD*%
%TA.AperFunction,Conductor*%
%ADD19C,0.765000*%
%TD*%
G04 APERTURE END LIST*
D10*
%TO.P,U1,41,GND*%
%TO.N,GND*%
X153010000Y-57250000D03*
X151610000Y-55850000D03*
X152310000Y-57950000D03*
X153710000Y-56550000D03*
X152310000Y-56550000D03*
X153710000Y-57950000D03*
X150910000Y-57950000D03*
X151610000Y-57250000D03*
X153010000Y-55850000D03*
X153010000Y-58650000D03*
X151610000Y-58650000D03*
X150910000Y-56550000D03*
%TD*%
D11*
%TO.P,J3,1,Pin_1*%
%TO.N,GND*%
X166370000Y-50800000D03*
D12*
%TO.P,J3,2,Pin_2*%
%TO.N,VBUS*%
X166370000Y-53340000D03*
%TO.P,J3,3,Pin_3*%
%TO.N,+5V*%
X166370000Y-55880000D03*
%TO.P,J3,4,Pin_4*%
%TO.N,GPIO01*%
X166370000Y-58420000D03*
%TO.P,J3,5,Pin_5*%
%TO.N,GPIO02*%
X166370000Y-60960000D03*
%TO.P,J3,6,Pin_6*%
%TO.N,GPIO42*%
X166370000Y-63500000D03*
%TO.P,J3,7,Pin_7*%
%TO.N,GPIO41*%
X166370000Y-66040000D03*
%TO.P,J3,8,Pin_8*%
%TO.N,GPIO40*%
X166370000Y-68580000D03*
%TO.P,J3,9,Pin_9*%
%TO.N,GPIO39*%
X166370000Y-71120000D03*
%TO.P,J3,10,Pin_10*%
%TO.N,GPIO38*%
X166370000Y-73660000D03*
%TO.P,J3,11,Pin_11*%
%TO.N,GPIO37*%
X166370000Y-76200000D03*
%TO.P,J3,12,Pin_12*%
%TO.N,GPIO36*%
X166370000Y-78740000D03*
%TO.P,J3,13,Pin_13*%
%TO.N,GPIO35*%
X166370000Y-81280000D03*
%TO.P,J3,14,Pin_14*%
%TO.N,GPIO00*%
X166370000Y-83820000D03*
%TO.P,J3,15,Pin_15*%
%TO.N,GPIO45*%
X166370000Y-86360000D03*
%TO.P,J3,16,Pin_16*%
%TO.N,GPIO48*%
X166370000Y-88900000D03*
%TO.P,J3,17,Pin_17*%
%TO.N,GPIO47*%
X166370000Y-91440000D03*
%TO.P,J3,18,Pin_18*%
%TO.N,GPIO21*%
X166370000Y-93980000D03*
%TO.P,J3,19,Pin_19*%
%TO.N,GPIO14*%
X166370000Y-96520000D03*
%TO.P,J3,20,Pin_20*%
%TO.N,GPIO13*%
X166370000Y-99060000D03*
%TD*%
D13*
%TO.P,J1,S1,SHIELD*%
%TO.N,unconnected-(J1-SHIELD-PadS1)*%
X149350000Y-95935000D03*
D14*
X149350000Y-100135000D03*
D13*
X157990000Y-95935000D03*
D14*
X157990000Y-100135000D03*
%TD*%
D11*
%TO.P,J2,1,Pin_1*%
%TO.N,GND*%
X140970000Y-50800000D03*
D12*
%TO.P,J2,2,Pin_2*%
%TO.N,+3V3*%
X140970000Y-53340000D03*
%TO.P,J2,3,Pin_3*%
%TO.N,RST*%
X140970000Y-55880000D03*
%TO.P,J2,4,Pin_4*%
%TO.N,GPIO04*%
X140970000Y-58420000D03*
%TO.P,J2,5,Pin_5*%
%TO.N,GPIO05*%
X140970000Y-60960000D03*
%TO.P,J2,6,Pin_6*%
%TO.N,GPIO06*%
X140970000Y-63500000D03*
%TO.P,J2,7,Pin_7*%
%TO.N,GPIO07*%
X140970000Y-66040000D03*
%TO.P,J2,8,Pin_8*%
%TO.N,GPIO15*%
X140970000Y-68580000D03*
%TO.P,J2,9,Pin_9*%
%TO.N,GPIO16*%
X140970000Y-71120000D03*
%TO.P,J2,10,Pin_10*%
%TO.N,GPIO17*%
X140970000Y-73660000D03*
%TO.P,J2,11,Pin_11*%
%TO.N,GPIO18*%
X140970000Y-76200000D03*
%TO.P,J2,12,Pin_12*%
%TO.N,GPIO08*%
X140970000Y-78740000D03*
%TO.P,J2,13,Pin_13*%
%TO.N,USB_D-*%
X140970000Y-81280000D03*
%TO.P,J2,14,Pin_14*%
%TO.N,USB_D+*%
X140970000Y-83820000D03*
%TO.P,J2,15,Pin_15*%
%TO.N,GPIO03*%
X140970000Y-86360000D03*
%TO.P,J2,16,Pin_16*%
%TO.N,GPIO46*%
X140970000Y-88900000D03*
%TO.P,J2,17,Pin_17*%
%TO.N,GPIO09*%
X140970000Y-91440000D03*
%TO.P,J2,18,Pin_18*%
%TO.N,GPIO10*%
X140970000Y-93980000D03*
%TO.P,J2,19,Pin_19*%
%TO.N,GPIO11*%
X140970000Y-96520000D03*
%TO.P,J2,20,Pin_20*%
%TO.N,GPIO12*%
X140970000Y-99060000D03*
%TD*%
D15*
%TO.N,GND*%
X154432000Y-69088000D03*
X149047200Y-80365600D03*
%TO.N,RST*%
X139893000Y-77571600D03*
X147320000Y-77063600D03*
%TO.N,GPIO16*%
X145135600Y-77165200D03*
%TO.N,GPIO15*%
X145389600Y-72694800D03*
%TO.N,GPIO10*%
X143764000Y-76504800D03*
X144224500Y-71424800D03*
%TO.N,RST*%
X154228800Y-70967600D03*
%TO.N,GPIO00*%
X157327600Y-70916800D03*
%TO.N,GPIO13*%
X162191500Y-74777600D03*
%TO.N,GPIO14*%
X162191500Y-75946000D03*
X161573747Y-71159653D03*
%TO.N,GND*%
X156845000Y-94234000D03*
X144780000Y-98044000D03*
X146939000Y-49530000D03*
X144780000Y-90170000D03*
X162560000Y-98298000D03*
X153695400Y-90195400D03*
X153162000Y-82804000D03*
X151130000Y-77978000D03*
X163322000Y-90424000D03*
X146431000Y-70993000D03*
X151892000Y-77978000D03*
X153162000Y-88392000D03*
X152654000Y-77978000D03*
X150368000Y-93980000D03*
X160782000Y-49530000D03*
D16*
%TO.N,+5V*%
X161645600Y-84988400D03*
X160951213Y-81068213D03*
D15*
X153699500Y-93382200D03*
D16*
X159258000Y-91694000D03*
%TO.N,+3V3*%
X150811500Y-69088000D03*
X155575000Y-90170000D03*
X153162000Y-76454000D03*
D15*
%TO.N,GPIO00*%
X151271938Y-72859562D03*
X159766000Y-65786000D03*
%TO.N,RST*%
X146304000Y-52070000D03*
D16*
%TO.N,VBUS*%
X155702000Y-91313000D03*
X151257000Y-93980000D03*
D15*
%TO.N,D-*%
X154254200Y-94259400D03*
X152908000Y-94259400D03*
D16*
%TO.N,USB_D-*%
X148334728Y-63591520D03*
%TO.N,USB_D+*%
X149006480Y-64263272D03*
D15*
%TO.N,GPIO03*%
X145669000Y-84709000D03*
%TO.N,GPIO46*%
X146431000Y-84709000D03*
%TO.N,GPIO09*%
X147080503Y-84709000D03*
%TO.N,GPIO10*%
X147828000Y-84709000D03*
%TO.N,GPIO11*%
X150241000Y-85217000D03*
X151892000Y-66040000D03*
X150622000Y-73914000D03*
%TO.N,GPIO12*%
X151003000Y-85217000D03*
X153162000Y-66040000D03*
X151271503Y-73533000D03*
%TO.N,GPIO37*%
X161163000Y-62230000D03*
X163195000Y-68072000D03*
%TO.N,GPIO36*%
X161163000Y-63500000D03*
X163195000Y-68721503D03*
%TO.N,GPIO35*%
X161163000Y-64770000D03*
X163195000Y-69371006D03*
%TO.N,GPIO21*%
X163258500Y-79692500D03*
%TO.N,GPIO14*%
X163186774Y-80338030D03*
%TO.N,GPIO13*%
X158953200Y-69456500D03*
X163322000Y-81026000D03*
%TO.N,DTR*%
X148336000Y-80772000D03*
X152273000Y-81534000D03*
%TO.N,RTS*%
X148844000Y-81686400D03*
X152273000Y-82183503D03*
%TO.N,RX*%
X156083000Y-89281000D03*
X160147000Y-54610000D03*
%TO.N,TX*%
X156845000Y-89281000D03*
X161163000Y-53340000D03*
%TD*%
D17*
%TO.N,+5V*%
X160401000Y-84988400D02*
X160401000Y-84201000D01*
X160401000Y-89154000D02*
X160401000Y-84988400D01*
X161645600Y-84988400D02*
X160401000Y-84988400D01*
D18*
%TO.N,GND*%
X149453600Y-80365600D02*
X149504400Y-80314800D01*
X149047200Y-80365600D02*
X149453600Y-80365600D01*
%TO.N,DTR*%
X151819000Y-81080000D02*
X152273000Y-81534000D01*
X148644000Y-81080000D02*
X151819000Y-81080000D01*
X148336000Y-80772000D02*
X148644000Y-81080000D01*
%TO.N,RTS*%
X152215396Y-82183503D02*
X152273000Y-82183503D01*
X151438893Y-81407000D02*
X152215396Y-82183503D01*
X149123400Y-81407000D02*
X151438893Y-81407000D01*
X148844000Y-81686400D02*
X149123400Y-81407000D01*
%TO.N,RST*%
X146507200Y-77876400D02*
X142798800Y-77876400D01*
X147320000Y-77063600D02*
X146507200Y-77876400D01*
X142798800Y-77876400D02*
X142494000Y-77571600D01*
X142494000Y-77571600D02*
X139893000Y-77571600D01*
%TO.N,GPIO16*%
X144424400Y-76454000D02*
X145135600Y-77165200D01*
X144424400Y-72491600D02*
X144424400Y-76454000D01*
X144068800Y-70053200D02*
X144780000Y-70764400D01*
X144780000Y-72136000D02*
X144424400Y-72491600D01*
X142544800Y-70053200D02*
X144068800Y-70053200D01*
X142036800Y-70053200D02*
X142544800Y-70053200D01*
X144780000Y-70764400D02*
X144780000Y-72136000D01*
X140970000Y-71120000D02*
X142036800Y-70053200D01*
%TO.N,GPIO15*%
X145389600Y-69748400D02*
X145389600Y-72694800D01*
X145186400Y-69545200D02*
X145389600Y-69748400D01*
X144221200Y-68580000D02*
X145186400Y-69545200D01*
X140970000Y-68580000D02*
X144221200Y-68580000D01*
%TO.N,GPIO10*%
X143408400Y-75692000D02*
X143408400Y-76149200D01*
X143408400Y-76149200D02*
X143764000Y-76504800D01*
X144224500Y-71424800D02*
X143408400Y-72240900D01*
X143408400Y-72240900D02*
X143408400Y-75692000D01*
%TO.N,RST*%
X153416000Y-70967600D02*
X154228800Y-70967600D01*
X153263600Y-70815200D02*
X153416000Y-70967600D01*
X152489400Y-70041000D02*
X153263600Y-70815200D01*
X152464000Y-70041000D02*
X152489400Y-70041000D01*
%TO.N,GPIO00*%
X157327600Y-71170800D02*
X157327600Y-70916800D01*
X156819600Y-71678800D02*
X157327600Y-71170800D01*
X151977541Y-71678800D02*
X156819600Y-71678800D01*
X151271938Y-72384403D02*
X151977541Y-71678800D01*
X151271938Y-72859562D02*
X151271938Y-72384403D01*
X157937200Y-66446400D02*
X157327600Y-67056000D01*
X157327600Y-67056000D02*
X157327600Y-70916800D01*
X158597600Y-65786000D02*
X157937200Y-66446400D01*
X159766000Y-65786000D02*
X158597600Y-65786000D01*
%TO.N,GPIO13*%
X161096747Y-73682847D02*
X162191500Y-74777600D01*
X161096747Y-70215547D02*
X161096747Y-73682847D01*
X160337700Y-69456500D02*
X161096747Y-70215547D01*
X158953200Y-69456500D02*
X160337700Y-69456500D01*
%TO.N,GPIO14*%
X161573747Y-71159653D02*
X162377453Y-71159653D01*
X162795000Y-71577200D02*
X162795000Y-71831200D01*
X162377453Y-71159653D02*
X162795000Y-71577200D01*
X162795000Y-75342500D02*
X162191500Y-75946000D01*
X162795000Y-71831200D02*
X162795000Y-75342500D01*
D17*
%TO.N,+5V*%
X164592000Y-57023000D02*
X165735000Y-55880000D01*
X160951213Y-80856787D02*
X164592000Y-77216000D01*
X160401000Y-81534000D02*
X160401000Y-84201000D01*
X160866787Y-81068213D02*
X160401000Y-81534000D01*
X160951213Y-81068213D02*
X160951213Y-80856787D01*
X160951213Y-81068213D02*
X160866787Y-81068213D01*
X159258000Y-90297000D02*
X160401000Y-89154000D01*
X165735000Y-55880000D02*
X166370000Y-55880000D01*
X159258000Y-91694000D02*
X159258000Y-90297000D01*
X159258000Y-91694000D02*
X157569800Y-93382200D01*
X164592000Y-77216000D02*
X164592000Y-57023000D01*
X157569800Y-93382200D02*
X153699500Y-93382200D01*
%TO.N,+3V3*%
X153924000Y-77216000D02*
X153162000Y-76454000D01*
X149860000Y-76073000D02*
X149860000Y-69469000D01*
X153924000Y-88519000D02*
X153924000Y-77216000D01*
X153162000Y-76454000D02*
X150241000Y-76454000D01*
X143129000Y-53340000D02*
X140970000Y-53340000D01*
X150241000Y-76454000D02*
X149860000Y-76073000D01*
X150495000Y-69469000D02*
X149860000Y-69469000D01*
X155575000Y-90170000D02*
X153924000Y-88519000D01*
X150811500Y-69152500D02*
X150495000Y-69469000D01*
X149860000Y-69469000D02*
X149860000Y-60071000D01*
X149860000Y-60071000D02*
X143129000Y-53340000D01*
X150811500Y-69088000D02*
X150811500Y-69152500D01*
D18*
%TO.N,RST*%
X153670000Y-66964896D02*
X153670000Y-64897000D01*
X152092000Y-69669000D02*
X152092000Y-68542896D01*
X152464000Y-70041000D02*
X152092000Y-69669000D01*
X150337000Y-59873420D02*
X146304000Y-55840420D01*
X153670000Y-64897000D02*
X150337000Y-61564000D01*
X152092000Y-68542896D02*
X153670000Y-66964896D01*
X146304000Y-55840420D02*
X146304000Y-52070000D01*
X150337000Y-61564000D02*
X150337000Y-59873420D01*
D17*
%TO.N,VBUS*%
X151257000Y-92964000D02*
X151257000Y-93980000D01*
X165143000Y-55583000D02*
X165143000Y-54567000D01*
X163965000Y-76956288D02*
X163965000Y-56761000D01*
X159774000Y-81147288D02*
X163965000Y-76956288D01*
X157353000Y-91313000D02*
X159774000Y-88892000D01*
X165143000Y-54567000D02*
X166370000Y-53340000D01*
X155702000Y-91313000D02*
X152908000Y-91313000D01*
X155702000Y-91313000D02*
X157353000Y-91313000D01*
X152908000Y-91313000D02*
X151257000Y-92964000D01*
X163965000Y-56761000D02*
X165143000Y-55583000D01*
X159774000Y-88892000D02*
X159774000Y-81147288D01*
D18*
%TO.N,D-*%
X152908000Y-94259400D02*
X154254200Y-94259400D01*
%TO.N,unconnected-(J1-SHIELD-PadS1)*%
X149350000Y-95935000D02*
X149350000Y-100135000D01*
X157990000Y-95935000D02*
X157990000Y-100135000D01*
D19*
%TO.N,USB_D-*%
X144590496Y-82092500D02*
X148132500Y-78550496D01*
X140970000Y-81280000D02*
X141782500Y-82092500D01*
X148334728Y-63591520D02*
X148096980Y-63829268D01*
X148096980Y-63829268D02*
X148096980Y-64640000D01*
X141782500Y-82092500D02*
X144590496Y-82092500D01*
X148132500Y-78550496D02*
X148132500Y-64661191D01*
%TO.N,USB_D+*%
X149047500Y-64304292D02*
X149006480Y-64263272D01*
X149047500Y-78929504D02*
X149047500Y-64304292D01*
X141782500Y-83007500D02*
X144969504Y-83007500D01*
X144969504Y-83007500D02*
X149047500Y-78929504D01*
X140970000Y-83820000D02*
X141782500Y-83007500D01*
D18*
%TO.N,GPIO03*%
X140970000Y-86360000D02*
X144018000Y-86360000D01*
X144018000Y-86360000D02*
X145669000Y-84709000D01*
%TO.N,GPIO46*%
X146431000Y-84709000D02*
X142240000Y-88900000D01*
X142240000Y-88900000D02*
X140970000Y-88900000D01*
%TO.N,GPIO09*%
X142661724Y-89748276D02*
X142661724Y-88940724D01*
X146558000Y-85344000D02*
X147080503Y-84821497D01*
X142661724Y-88940724D02*
X144820724Y-86781724D01*
X144820724Y-86781724D02*
X146258448Y-85344000D01*
X147080503Y-84821497D02*
X147080503Y-84709000D01*
X146258448Y-85344000D02*
X146558000Y-85344000D01*
X140970000Y-91440000D02*
X142661724Y-89748276D01*
%TO.N,GPIO10*%
X146393896Y-85671000D02*
X143256000Y-88808896D01*
X147828000Y-84709000D02*
X146866000Y-85671000D01*
X143256000Y-88808896D02*
X143256000Y-92710000D01*
X141986000Y-93980000D02*
X140970000Y-93980000D01*
X143256000Y-92710000D02*
X141986000Y-93980000D01*
X146866000Y-85671000D02*
X146393896Y-85671000D01*
%TO.N,GPIO11*%
X151892000Y-67818000D02*
X151892000Y-66040000D01*
X151438000Y-71293445D02*
X151438000Y-68272000D01*
X142367000Y-95885000D02*
X141732000Y-96520000D01*
X150622000Y-73914000D02*
X150430000Y-73722000D01*
X147001448Y-85998000D02*
X146529344Y-85998000D01*
X141732000Y-96520000D02*
X140970000Y-96520000D01*
X151438000Y-68272000D02*
X151892000Y-67818000D01*
X143583000Y-92845448D02*
X142367000Y-94061448D01*
X142367000Y-94061448D02*
X142367000Y-95885000D01*
X150241000Y-85217000D02*
X147782448Y-85217000D01*
X150430000Y-73722000D02*
X150430000Y-72301445D01*
X146529344Y-85998000D02*
X143583000Y-88944344D01*
X150430000Y-72301445D02*
X151438000Y-71293445D01*
X147782448Y-85217000D02*
X147001448Y-85998000D01*
X143583000Y-88944344D02*
X143583000Y-92845448D01*
%TO.N,GPIO12*%
X150757000Y-73018497D02*
X150757000Y-72436893D01*
X150757000Y-72436893D02*
X151765000Y-71428893D01*
X143910000Y-92980896D02*
X143910000Y-89079792D01*
X151765000Y-68407448D02*
X153162000Y-67010448D01*
X151765000Y-71428893D02*
X151765000Y-68407448D01*
X143910000Y-89079792D02*
X146664792Y-86325000D01*
X147736896Y-85725000D02*
X150495000Y-85725000D01*
X150495000Y-85725000D02*
X151003000Y-85217000D01*
X142748000Y-94142896D02*
X143910000Y-92980896D01*
X140970000Y-99060000D02*
X142748000Y-97282000D01*
X153162000Y-67010448D02*
X153162000Y-66040000D01*
X151271503Y-73533000D02*
X150757000Y-73018497D01*
X142748000Y-97282000D02*
X142748000Y-94142896D01*
X147136896Y-86325000D02*
X147736896Y-85725000D01*
X146664792Y-86325000D02*
X147136896Y-86325000D01*
%TO.N,GPIO37*%
X163488000Y-62650000D02*
X163488000Y-62738000D01*
X163068000Y-62230000D02*
X163488000Y-62650000D01*
X161163000Y-62230000D02*
X163068000Y-62230000D01*
X163488000Y-62738000D02*
X163488000Y-67779000D01*
X163488000Y-67779000D02*
X163195000Y-68072000D01*
%TO.N,GPIO36*%
X163068000Y-64008000D02*
X163068000Y-66421000D01*
X161163000Y-63500000D02*
X162560000Y-63500000D01*
X162687000Y-68271107D02*
X163137396Y-68721503D01*
X163068000Y-67310000D02*
X162941000Y-67437000D01*
X162941000Y-67437000D02*
X162687000Y-67691000D01*
X163068000Y-66421000D02*
X163068000Y-67310000D01*
X162560000Y-63500000D02*
X163068000Y-64008000D01*
X162687000Y-67691000D02*
X162687000Y-68199000D01*
X163137396Y-68721503D02*
X163195000Y-68721503D01*
X162687000Y-68199000D02*
X162687000Y-68271107D01*
%TO.N,GPIO35*%
X162306000Y-68961000D02*
X162716006Y-69371006D01*
X162306000Y-65840000D02*
X162306000Y-68961000D01*
X162306000Y-64770000D02*
X162741000Y-65205000D01*
X162741000Y-65205000D02*
X162741000Y-65405000D01*
X162741000Y-65405000D02*
X162306000Y-65840000D01*
X162716006Y-69371006D02*
X163195000Y-69371006D01*
X161163000Y-64770000D02*
X162306000Y-64770000D01*
%TO.N,GPIO21*%
X163639500Y-79692500D02*
X165100000Y-81153000D01*
X165100000Y-81153000D02*
X165100000Y-92710000D01*
X163258500Y-79692500D02*
X163639500Y-79692500D01*
X165100000Y-92710000D02*
X166370000Y-93980000D01*
%TO.N,GPIO14*%
X164773000Y-81288448D02*
X164773000Y-92891000D01*
X165227000Y-93345000D02*
X165227000Y-95377000D01*
X164773000Y-92891000D02*
X165227000Y-93345000D01*
X163822582Y-80338030D02*
X164773000Y-81288448D01*
X165227000Y-95377000D02*
X166370000Y-96520000D01*
X163186774Y-80338030D02*
X163822582Y-80338030D01*
%TO.N,GPIO13*%
X163939052Y-80916948D02*
X163830000Y-81026000D01*
X166370000Y-99060000D02*
X164446000Y-97136000D01*
X164446000Y-81423896D02*
X163939052Y-80916948D01*
X163830000Y-81026000D02*
X163322000Y-81026000D01*
X164446000Y-97136000D02*
X164446000Y-82042000D01*
X164446000Y-82042000D02*
X164446000Y-81423896D01*
%TO.N,RX*%
X160336000Y-68007000D02*
X160782000Y-68453000D01*
X160336000Y-55372000D02*
X160336000Y-68007000D01*
X163122000Y-70793000D02*
X163122000Y-72644000D01*
X156083000Y-83701260D02*
X156083000Y-89281000D01*
X160147000Y-54610000D02*
X160336000Y-54799000D01*
X162373630Y-77410630D02*
X157357130Y-82427130D01*
X163122000Y-72644000D02*
X163122000Y-76662260D01*
X157357130Y-82427130D02*
X156083000Y-83701260D01*
X160336000Y-54799000D02*
X160336000Y-55372000D01*
X160782000Y-68453000D02*
X163122000Y-70793000D01*
X163122000Y-76662260D02*
X162373630Y-77410630D01*
%TO.N,TX*%
X160663000Y-53840000D02*
X161163000Y-53340000D01*
X160663000Y-67826000D02*
X160663000Y-53840000D01*
X163449000Y-76797708D02*
X163449000Y-70612000D01*
X156410000Y-88846000D02*
X156410000Y-83836708D01*
X163449000Y-70612000D02*
X160663000Y-67826000D01*
X156845000Y-89281000D02*
X156410000Y-88846000D01*
X156410000Y-83836708D02*
X163449000Y-76797708D01*
%TD*%
%TA.AperFunction,Conductor*%
%TO.N,GND*%
G36*
X152211881Y-58003438D02*
G01*
X152247030Y-58033460D01*
X152248220Y-58035098D01*
X152267126Y-58093289D01*
X152248217Y-58151479D01*
X152238130Y-58163290D01*
X152000778Y-58400642D01*
X151998882Y-58402539D01*
X151823065Y-58578355D01*
X151768549Y-58606132D01*
X151708117Y-58596561D01*
X151672952Y-58566517D01*
X151671803Y-58564935D01*
X151671761Y-58564877D01*
X151652872Y-58506680D01*
X151671798Y-58448496D01*
X151681868Y-58436708D01*
X151890273Y-58228304D01*
X151921127Y-58197451D01*
X152096932Y-58021645D01*
X152151448Y-57993867D01*
X152211881Y-58003438D01*
G37*
%TD.AperFunction*%
%TA.AperFunction,Conductor*%
G36*
X153611882Y-58003438D02*
G01*
X153647052Y-58033490D01*
X153647997Y-58034791D01*
X153648244Y-58035130D01*
X153667126Y-58093329D01*
X153648194Y-58151511D01*
X153638130Y-58163290D01*
X153400778Y-58400642D01*
X153398882Y-58402540D01*
X153223065Y-58578354D01*
X153168548Y-58606131D01*
X153108116Y-58596559D01*
X153072968Y-58566538D01*
X153071778Y-58564900D01*
X153052872Y-58506709D01*
X153071781Y-58448519D01*
X153081868Y-58436708D01*
X153292693Y-58225884D01*
X153321128Y-58197451D01*
X153496933Y-58021645D01*
X153551450Y-57993867D01*
X153611882Y-58003438D01*
G37*
%TD.AperFunction*%
%TA.AperFunction,Conductor*%
G36*
X152523067Y-58021645D02*
G01*
X152698872Y-58197452D01*
X152760578Y-58259157D01*
X152938131Y-58436709D01*
X152965908Y-58491226D01*
X152956337Y-58551658D01*
X152948205Y-58564925D01*
X152948197Y-58564934D01*
X152948197Y-58564935D01*
X152947048Y-58566516D01*
X152947015Y-58566562D01*
X152897505Y-58602513D01*
X152836320Y-58602497D01*
X152796933Y-58578354D01*
X152381869Y-58163290D01*
X152354092Y-58108773D01*
X152363663Y-58048341D01*
X152371779Y-58035098D01*
X152372946Y-58033492D01*
X152372969Y-58033459D01*
X152422467Y-57997494D01*
X152483653Y-57997492D01*
X152523067Y-58021645D01*
G37*
%TD.AperFunction*%
%TA.AperFunction,Conductor*%
G36*
X151123066Y-58021645D02*
G01*
X151298872Y-58197452D01*
X151360578Y-58259157D01*
X151538130Y-58436708D01*
X151565908Y-58491225D01*
X151556337Y-58551657D01*
X151548215Y-58564909D01*
X151547024Y-58566548D01*
X151497521Y-58602508D01*
X151436336Y-58602503D01*
X151396932Y-58578354D01*
X151221127Y-58402547D01*
X150981869Y-58163290D01*
X150954092Y-58108773D01*
X150963663Y-58048341D01*
X150971772Y-58035106D01*
X150971801Y-58035065D01*
X150971803Y-58035065D01*
X150972964Y-58033466D01*
X151022456Y-57997499D01*
X151083642Y-57997490D01*
X151123066Y-58021645D01*
G37*
%TD.AperFunction*%
%TA.AperFunction,Conductor*%
G36*
X151511882Y-57303438D02*
G01*
X151547052Y-57333490D01*
X151547997Y-57334791D01*
X151548244Y-57335130D01*
X151567126Y-57393329D01*
X151548194Y-57451511D01*
X151538130Y-57463290D01*
X151300778Y-57700642D01*
X151298882Y-57702539D01*
X151123065Y-57878355D01*
X151068549Y-57906132D01*
X151008117Y-57896561D01*
X150972952Y-57866517D01*
X150971803Y-57864935D01*
X150971761Y-57864877D01*
X150952872Y-57806680D01*
X150971798Y-57748496D01*
X150981868Y-57736708D01*
X151192693Y-57525884D01*
X151221128Y-57497451D01*
X151396933Y-57321645D01*
X151451450Y-57293867D01*
X151511882Y-57303438D01*
G37*
%TD.AperFunction*%
%TA.AperFunction,Conductor*%
G36*
X152911881Y-57303438D02*
G01*
X152947030Y-57333460D01*
X152948220Y-57335098D01*
X152967126Y-57393289D01*
X152948217Y-57451479D01*
X152938130Y-57463290D01*
X152700778Y-57700642D01*
X152698882Y-57702540D01*
X152523065Y-57878354D01*
X152468548Y-57906131D01*
X152408116Y-57896559D01*
X152372968Y-57866538D01*
X152371778Y-57864900D01*
X152352872Y-57806709D01*
X152371781Y-57748519D01*
X152381868Y-57736708D01*
X152590273Y-57528304D01*
X152621127Y-57497451D01*
X152796932Y-57321645D01*
X152851448Y-57293867D01*
X152911881Y-57303438D01*
G37*
%TD.AperFunction*%
%TA.AperFunction,Conductor*%
G36*
X153223066Y-57321645D02*
G01*
X153398872Y-57497452D01*
X153460578Y-57559157D01*
X153638131Y-57736709D01*
X153665908Y-57791226D01*
X153656337Y-57851658D01*
X153648205Y-57864925D01*
X153648197Y-57864934D01*
X153648197Y-57864935D01*
X153647048Y-57866516D01*
X153647015Y-57866562D01*
X153597505Y-57902513D01*
X153536320Y-57902497D01*
X153496933Y-57878354D01*
X153081869Y-57463290D01*
X153054092Y-57408773D01*
X153063663Y-57348341D01*
X153071772Y-57335106D01*
X153071801Y-57335065D01*
X153071803Y-57335065D01*
X153072964Y-57333466D01*
X153122456Y-57297499D01*
X153183642Y-57297490D01*
X153223066Y-57321645D01*
G37*
%TD.AperFunction*%
%TA.AperFunction,Conductor*%
G36*
X151823066Y-57321645D02*
G01*
X151998872Y-57497452D01*
X152060578Y-57559157D01*
X152238130Y-57736708D01*
X152265908Y-57791225D01*
X152256337Y-57851657D01*
X152248221Y-57864900D01*
X152247031Y-57866538D01*
X152197533Y-57902504D01*
X152136347Y-57902506D01*
X152096933Y-57878354D01*
X151681869Y-57463290D01*
X151654092Y-57408773D01*
X151663663Y-57348341D01*
X151671772Y-57335106D01*
X151671801Y-57335065D01*
X151671803Y-57335065D01*
X151672964Y-57333466D01*
X151722456Y-57297499D01*
X151783642Y-57297490D01*
X151823066Y-57321645D01*
G37*
%TD.AperFunction*%
%TA.AperFunction,Conductor*%
G36*
X152211882Y-56603438D02*
G01*
X152247052Y-56633490D01*
X152247997Y-56634791D01*
X152248244Y-56635130D01*
X152267126Y-56693329D01*
X152248194Y-56751511D01*
X152238130Y-56763290D01*
X152000778Y-57000642D01*
X151998882Y-57002539D01*
X151823065Y-57178355D01*
X151768549Y-57206132D01*
X151708117Y-57196561D01*
X151672952Y-57166517D01*
X151671803Y-57164935D01*
X151671761Y-57164877D01*
X151652872Y-57106680D01*
X151671798Y-57048496D01*
X151681868Y-57036708D01*
X151892693Y-56825884D01*
X151921128Y-56797451D01*
X152096933Y-56621645D01*
X152151450Y-56593867D01*
X152211882Y-56603438D01*
G37*
%TD.AperFunction*%
%TA.AperFunction,Conductor*%
G36*
X153611882Y-56603438D02*
G01*
X153647052Y-56633490D01*
X153647997Y-56634791D01*
X153648244Y-56635130D01*
X153667126Y-56693329D01*
X153648194Y-56751511D01*
X153638130Y-56763290D01*
X153400778Y-57000642D01*
X153398882Y-57002539D01*
X153223065Y-57178355D01*
X153168549Y-57206132D01*
X153108117Y-57196561D01*
X153072952Y-57166517D01*
X153071803Y-57164935D01*
X153071761Y-57164877D01*
X153052872Y-57106680D01*
X153071798Y-57048496D01*
X153081868Y-57036708D01*
X153292693Y-56825884D01*
X153321128Y-56797451D01*
X153496933Y-56621645D01*
X153551450Y-56593867D01*
X153611882Y-56603438D01*
G37*
%TD.AperFunction*%
%TA.AperFunction,Conductor*%
G36*
X151123067Y-56621645D02*
G01*
X151298872Y-56797452D01*
X151360578Y-56859157D01*
X151538131Y-57036709D01*
X151565908Y-57091226D01*
X151556337Y-57151658D01*
X151548205Y-57164925D01*
X151548197Y-57164934D01*
X151548197Y-57164935D01*
X151547048Y-57166516D01*
X151547015Y-57166562D01*
X151497505Y-57202513D01*
X151436320Y-57202497D01*
X151396933Y-57178354D01*
X150981869Y-56763290D01*
X150954092Y-56708773D01*
X150963663Y-56648341D01*
X150971779Y-56635098D01*
X150972946Y-56633492D01*
X150972969Y-56633459D01*
X151022467Y-56597494D01*
X151083653Y-56597492D01*
X151123067Y-56621645D01*
G37*
%TD.AperFunction*%
%TA.AperFunction,Conductor*%
G36*
X152523066Y-56621645D02*
G01*
X152698872Y-56797452D01*
X152760578Y-56859157D01*
X152938131Y-57036709D01*
X152965908Y-57091226D01*
X152956337Y-57151658D01*
X152948205Y-57164925D01*
X152948197Y-57164934D01*
X152948197Y-57164935D01*
X152947048Y-57166516D01*
X152947015Y-57166562D01*
X152897505Y-57202513D01*
X152836320Y-57202497D01*
X152796933Y-57178354D01*
X152381869Y-56763290D01*
X152354092Y-56708773D01*
X152363663Y-56648341D01*
X152371772Y-56635106D01*
X152371801Y-56635065D01*
X152371803Y-56635065D01*
X152372964Y-56633466D01*
X152422456Y-56597499D01*
X152483642Y-56597490D01*
X152523066Y-56621645D01*
G37*
%TD.AperFunction*%
%TA.AperFunction,Conductor*%
G36*
X152911882Y-55903438D02*
G01*
X152947052Y-55933490D01*
X152947997Y-55934791D01*
X152948244Y-55935130D01*
X152967126Y-55993329D01*
X152948194Y-56051511D01*
X152938130Y-56063290D01*
X152700778Y-56300642D01*
X152698882Y-56302539D01*
X152523065Y-56478355D01*
X152468549Y-56506132D01*
X152408117Y-56496561D01*
X152372952Y-56466517D01*
X152371803Y-56464935D01*
X152371761Y-56464877D01*
X152352872Y-56406680D01*
X152371798Y-56348496D01*
X152381868Y-56336708D01*
X152592693Y-56125884D01*
X152621128Y-56097451D01*
X152796933Y-55921645D01*
X152851450Y-55893867D01*
X152911882Y-55903438D01*
G37*
%TD.AperFunction*%
%TA.AperFunction,Conductor*%
G36*
X151511881Y-55903438D02*
G01*
X151547030Y-55933460D01*
X151548220Y-55935098D01*
X151567126Y-55993289D01*
X151548217Y-56051479D01*
X151538130Y-56063290D01*
X151300778Y-56300642D01*
X151298882Y-56302540D01*
X151123065Y-56478354D01*
X151068548Y-56506131D01*
X151008116Y-56496559D01*
X150972968Y-56466538D01*
X150971778Y-56464900D01*
X150952872Y-56406709D01*
X150971781Y-56348519D01*
X150981868Y-56336708D01*
X151190273Y-56128304D01*
X151221127Y-56097451D01*
X151396932Y-55921645D01*
X151451448Y-55893867D01*
X151511881Y-55903438D01*
G37*
%TD.AperFunction*%
%TA.AperFunction,Conductor*%
G36*
X151823066Y-55921645D02*
G01*
X151998872Y-56097452D01*
X152060578Y-56159157D01*
X152238131Y-56336709D01*
X152265908Y-56391226D01*
X152256337Y-56451658D01*
X152248205Y-56464925D01*
X152248197Y-56464934D01*
X152248197Y-56464935D01*
X152247048Y-56466516D01*
X152247015Y-56466562D01*
X152197505Y-56502513D01*
X152136320Y-56502497D01*
X152096933Y-56478354D01*
X151681869Y-56063290D01*
X151654092Y-56008773D01*
X151663663Y-55948341D01*
X151671772Y-55935106D01*
X151671801Y-55935065D01*
X151671803Y-55935065D01*
X151672964Y-55933466D01*
X151722456Y-55897499D01*
X151783642Y-55897490D01*
X151823066Y-55921645D01*
G37*
%TD.AperFunction*%
%TA.AperFunction,Conductor*%
G36*
X153223066Y-55921645D02*
G01*
X153398872Y-56097452D01*
X153460578Y-56159157D01*
X153638131Y-56336709D01*
X153665908Y-56391226D01*
X153656337Y-56451658D01*
X153648205Y-56464925D01*
X153648197Y-56464934D01*
X153648197Y-56464935D01*
X153647048Y-56466516D01*
X153647015Y-56466562D01*
X153597505Y-56502513D01*
X153536320Y-56502497D01*
X153496933Y-56478354D01*
X153081869Y-56063290D01*
X153054092Y-56008773D01*
X153063663Y-55948341D01*
X153071772Y-55935106D01*
X153071801Y-55935065D01*
X153071803Y-55935065D01*
X153072964Y-55933466D01*
X153122456Y-55897499D01*
X153183642Y-55897490D01*
X153223066Y-55921645D01*
G37*
%TD.AperFunction*%
%TA.AperFunction,Conductor*%
G36*
X166911615Y-48260605D02*
G01*
X166993743Y-48265988D01*
X167176216Y-48279040D01*
X167182347Y-48279866D01*
X167215499Y-48286459D01*
X167299441Y-48303157D01*
X167444365Y-48334683D01*
X167449706Y-48336166D01*
X167569429Y-48376806D01*
X167702341Y-48426380D01*
X167706915Y-48428355D01*
X167822747Y-48485476D01*
X167822952Y-48485578D01*
X167945415Y-48552448D01*
X167949173Y-48554724D01*
X168056911Y-48626712D01*
X168059076Y-48628243D01*
X168169030Y-48710555D01*
X168171989Y-48712953D01*
X168269796Y-48798727D01*
X168272161Y-48800942D01*
X168369056Y-48897837D01*
X168371270Y-48900201D01*
X168457041Y-48998005D01*
X168459443Y-49000968D01*
X168541755Y-49110922D01*
X168543286Y-49113087D01*
X168615274Y-49220825D01*
X168617562Y-49224604D01*
X168684421Y-49347047D01*
X168741637Y-49463069D01*
X168743622Y-49467667D01*
X168793195Y-49600575D01*
X168833824Y-49720263D01*
X168835321Y-49725657D01*
X168866847Y-49870580D01*
X168890132Y-49987651D01*
X168890958Y-49993782D01*
X168904017Y-50176351D01*
X168909393Y-50258371D01*
X168909499Y-50261641D01*
X168877500Y-100995399D01*
X168877394Y-100998606D01*
X168872017Y-101080648D01*
X168858958Y-101263216D01*
X168858132Y-101269347D01*
X168834847Y-101386419D01*
X168803321Y-101531341D01*
X168801824Y-101536734D01*
X168761195Y-101656424D01*
X168711622Y-101789331D01*
X168709637Y-101793929D01*
X168652421Y-101909952D01*
X168585562Y-102032394D01*
X168583274Y-102036173D01*
X168511286Y-102143911D01*
X168509755Y-102146076D01*
X168427443Y-102256030D01*
X168425032Y-102259005D01*
X168339271Y-102356796D01*
X168337056Y-102359161D01*
X168240161Y-102456056D01*
X168237796Y-102458271D01*
X168140005Y-102544032D01*
X168137030Y-102546443D01*
X168027076Y-102628755D01*
X168024911Y-102630286D01*
X167917173Y-102702274D01*
X167913394Y-102704562D01*
X167790952Y-102771421D01*
X167674929Y-102828637D01*
X167670331Y-102830622D01*
X167537424Y-102880195D01*
X167417734Y-102920824D01*
X167412341Y-102922321D01*
X167267419Y-102953847D01*
X167150347Y-102977132D01*
X167144216Y-102977958D01*
X166961649Y-102991017D01*
X166889703Y-102995732D01*
X166879616Y-102996394D01*
X166876379Y-102996500D01*
X140431621Y-102996500D01*
X140428383Y-102996394D01*
X140418296Y-102995732D01*
X140346351Y-102991017D01*
X140163782Y-102977958D01*
X140157651Y-102977132D01*
X140040580Y-102953847D01*
X139895657Y-102922321D01*
X139890269Y-102920825D01*
X139770575Y-102880195D01*
X139735064Y-102866950D01*
X139637667Y-102830622D01*
X139633069Y-102828637D01*
X139517047Y-102771421D01*
X139394604Y-102704562D01*
X139390825Y-102702274D01*
X139283087Y-102630286D01*
X139280922Y-102628755D01*
X139170968Y-102546443D01*
X139168005Y-102544041D01*
X139070201Y-102458270D01*
X139067837Y-102456056D01*
X138970942Y-102359161D01*
X138968727Y-102356796D01*
X138935450Y-102318851D01*
X138882953Y-102258989D01*
X138880555Y-102256030D01*
X138798243Y-102146076D01*
X138796712Y-102143911D01*
X138724724Y-102036173D01*
X138722448Y-102032415D01*
X138655578Y-101909952D01*
X138642630Y-101883697D01*
X138598355Y-101793915D01*
X138596380Y-101789341D01*
X138546805Y-101656424D01*
X138506166Y-101536706D01*
X138504683Y-101531365D01*
X138473157Y-101386441D01*
X138449866Y-101269347D01*
X138449040Y-101263216D01*
X138436551Y-101088600D01*
X138435988Y-101080742D01*
X138430605Y-100998616D01*
X138430500Y-100995380D01*
X138430500Y-100575925D01*
X148699500Y-100575925D01*
X148714927Y-100698053D01*
X148714928Y-100698056D01*
X148775432Y-100850870D01*
X148775434Y-100850874D01*
X148872037Y-100983837D01*
X148998674Y-101088600D01*
X149147387Y-101158579D01*
X149308823Y-101189375D01*
X149308828Y-101189376D01*
X149308829Y-101189375D01*
X149308830Y-101189376D01*
X149472860Y-101179056D01*
X149629171Y-101128268D01*
X149629405Y-101128120D01*
X149691677Y-101088600D01*
X149767940Y-101040202D01*
X149880448Y-100920393D01*
X149959627Y-100776368D01*
X150000500Y-100617177D01*
X150000500Y-100575925D01*
X157339500Y-100575925D01*
X157354927Y-100698053D01*
X157354928Y-100698056D01*
X157415432Y-100850870D01*
X157415434Y-100850874D01*
X157512037Y-100983837D01*
X157638674Y-101088600D01*
X157787387Y-101158579D01*
X157948823Y-101189375D01*
X157948828Y-101189376D01*
X157948829Y-101189375D01*
X157948830Y-101189376D01*
X158112860Y-101179056D01*
X158269171Y-101128268D01*
X158269405Y-101128120D01*
X158331677Y-101088600D01*
X158407940Y-101040202D01*
X158520448Y-100920393D01*
X158599627Y-100776368D01*
X158640500Y-100617177D01*
X158640500Y-99694075D01*
X158635289Y-99652823D01*
X158625072Y-99571946D01*
X158625071Y-99571943D01*
X158625071Y-99571942D01*
X158564568Y-99419129D01*
X158467963Y-99286163D01*
X158341326Y-99181400D01*
X158341324Y-99181399D01*
X158297346Y-99160703D01*
X158252745Y-99118818D01*
X158240500Y-99071126D01*
X158240500Y-97150888D01*
X158259407Y-97092697D01*
X158286448Y-97067303D01*
X158407940Y-96990202D01*
X158520448Y-96870393D01*
X158599627Y-96726368D01*
X158640500Y-96567177D01*
X158640500Y-95344075D01*
X158640500Y-95344074D01*
X158625072Y-95221946D01*
X158625071Y-95221943D01*
X158625071Y-95221942D01*
X158564568Y-95069129D01*
X158467963Y-94936163D01*
X158341326Y-94831400D01*
X158341325Y-94831399D01*
X158192612Y-94761420D01*
X158031176Y-94730624D01*
X158031171Y-94730623D01*
X157867142Y-94740943D01*
X157710826Y-94791732D01*
X157572060Y-94879797D01*
X157459551Y-94999606D01*
X157380373Y-95143630D01*
X157339500Y-95302820D01*
X157339500Y-96525925D01*
X157354927Y-96648053D01*
X157354928Y-96648056D01*
X157415432Y-96800870D01*
X157415434Y-96800874D01*
X157512037Y-96933837D01*
X157638675Y-97038601D01*
X157682651Y-97059294D01*
X157727254Y-97101178D01*
X157739500Y-97148872D01*
X157739500Y-99069111D01*
X157720593Y-99127302D01*
X157693547Y-99152699D01*
X157572060Y-99229797D01*
X157459551Y-99349606D01*
X157380373Y-99493630D01*
X157339500Y-99652820D01*
X157339500Y-100575925D01*
X150000500Y-100575925D01*
X150000500Y-99694075D01*
X149995289Y-99652823D01*
X149985072Y-99571946D01*
X149985071Y-99571943D01*
X149985071Y-99571942D01*
X149924568Y-99419129D01*
X149827963Y-99286163D01*
X149701326Y-99181400D01*
X149701324Y-99181399D01*
X149657346Y-99160703D01*
X149612745Y-99118818D01*
X149600500Y-99071126D01*
X149600500Y-97150888D01*
X149619407Y-97092697D01*
X149646448Y-97067303D01*
X149767940Y-96990202D01*
X149880448Y-96870393D01*
X149959627Y-96726368D01*
X150000500Y-96567177D01*
X150000500Y-96523368D01*
X150304500Y-96523368D01*
X150343021Y-96654558D01*
X150343022Y-96654561D01*
X150416945Y-96769589D01*
X150520282Y-96859130D01*
X150520283Y-96859130D01*
X150520284Y-96859131D01*
X150644654Y-96915930D01*
X150644657Y-96915930D01*
X150644658Y-96915931D01*
X150644659Y-96915931D01*
X150644663Y-96915932D01*
X150745984Y-96930500D01*
X150745989Y-96930500D01*
X150814016Y-96930500D01*
X150915336Y-96915932D01*
X150915337Y-96915931D01*
X150915342Y-96915931D01*
X150915343Y-96915930D01*
X150915345Y-96915930D01*
X150977529Y-96887530D01*
X151039718Y-96859130D01*
X151143055Y-96769589D01*
X151216978Y-96654561D01*
X151255500Y-96523368D01*
X156084500Y-96523368D01*
X156123021Y-96654558D01*
X156123022Y-96654561D01*
X156196945Y-96769589D01*
X156300282Y-96859130D01*
X156300283Y-96859130D01*
X156300284Y-96859131D01*
X156424654Y-96915930D01*
X156424657Y-96915930D01*
X156424658Y-96915931D01*
X156424659Y-96915931D01*
X156424663Y-96915932D01*
X156525984Y-96930500D01*
X156525989Y-96930500D01*
X156594016Y-96930500D01*
X156695336Y-96915932D01*
X156695337Y-96915931D01*
X156695342Y-96915931D01*
X156695343Y-96915930D01*
X156695345Y-96915930D01*
X156757530Y-96887530D01*
X156819718Y-96859130D01*
X156923055Y-96769589D01*
X156996978Y-96654561D01*
X157035500Y-96523367D01*
X157035500Y-96386633D01*
X156996978Y-96255439D01*
X156923055Y-96140411D01*
X156819718Y-96050870D01*
X156819716Y-96050869D01*
X156819715Y-96050868D01*
X156695345Y-95994069D01*
X156695336Y-95994067D01*
X156594016Y-95979500D01*
X156594011Y-95979500D01*
X156525989Y-95979500D01*
X156525984Y-95979500D01*
X156424663Y-95994067D01*
X156424654Y-95994069D01*
X156300284Y-96050868D01*
X156196946Y-96140410D01*
X156196945Y-96140411D01*
X156123022Y-96255439D01*
X156123021Y-96255441D01*
X156084500Y-96386631D01*
X156084500Y-96523368D01*
X151255500Y-96523368D01*
X151255500Y-96523367D01*
X151255500Y-96386633D01*
X151216978Y-96255439D01*
X151143055Y-96140411D01*
X151039718Y-96050870D01*
X151039716Y-96050869D01*
X151039715Y-96050868D01*
X150915345Y-95994069D01*
X150915336Y-95994067D01*
X150814016Y-95979500D01*
X150814011Y-95979500D01*
X150745989Y-95979500D01*
X150745984Y-95979500D01*
X150644663Y-95994067D01*
X150644654Y-95994069D01*
X150520284Y-96050868D01*
X150416946Y-96140410D01*
X150416945Y-96140411D01*
X150343022Y-96255439D01*
X150343021Y-96255441D01*
X150304500Y-96386631D01*
X150304500Y-96523368D01*
X150000500Y-96523368D01*
X150000500Y-95344075D01*
X150000500Y-95344074D01*
X149985072Y-95221946D01*
X149985071Y-95221943D01*
X149985071Y-95221942D01*
X149924568Y-95069129D01*
X149827963Y-94936163D01*
X149701326Y-94831400D01*
X149701325Y-94831399D01*
X149552612Y-94761420D01*
X149391176Y-94730624D01*
X149391171Y-94730623D01*
X149227142Y-94740943D01*
X149070826Y-94791732D01*
X148932060Y-94879797D01*
X148819551Y-94999606D01*
X148740373Y-95143630D01*
X148699500Y-95302820D01*
X148699500Y-96525925D01*
X148714927Y-96648053D01*
X148714928Y-96648056D01*
X148775432Y-96800870D01*
X148775434Y-96800874D01*
X148872037Y-96933837D01*
X148998675Y-97038601D01*
X149042651Y-97059294D01*
X149087254Y-97101178D01*
X149099500Y-97148872D01*
X149099500Y-99069111D01*
X149080593Y-99127302D01*
X149053547Y-99152699D01*
X148932060Y-99229797D01*
X148819551Y-99349606D01*
X148740373Y-99493630D01*
X148699500Y-99652820D01*
X148699500Y-100575925D01*
X138430500Y-100575925D01*
X138430500Y-99060003D01*
X139964659Y-99060003D01*
X139983974Y-99256126D01*
X139983975Y-99256129D01*
X140041187Y-99444730D01*
X140041188Y-99444732D01*
X140067325Y-99493630D01*
X140134090Y-99618538D01*
X140134092Y-99618540D01*
X140134093Y-99618542D01*
X140259112Y-99770878D01*
X140259121Y-99770887D01*
X140411457Y-99895906D01*
X140411462Y-99895910D01*
X140585273Y-99988814D01*
X140773868Y-100046024D01*
X140773870Y-100046024D01*
X140773873Y-100046025D01*
X140969997Y-100065341D01*
X140970000Y-100065341D01*
X140970003Y-100065341D01*
X141166126Y-100046025D01*
X141166127Y-100046024D01*
X141166132Y-100046024D01*
X141354727Y-99988814D01*
X141528538Y-99895910D01*
X141680883Y-99770883D01*
X141805910Y-99618538D01*
X141898814Y-99444727D01*
X141956024Y-99256132D01*
X141963385Y-99181400D01*
X141975341Y-99060003D01*
X141975341Y-99059996D01*
X141956025Y-98863873D01*
X141956024Y-98863870D01*
X141956024Y-98863868D01*
X141898814Y-98675273D01*
X141898811Y-98675267D01*
X141867304Y-98616321D01*
X141856548Y-98556089D01*
X141883250Y-98501037D01*
X141884561Y-98499698D01*
X142900794Y-97483465D01*
X142915791Y-97471159D01*
X142928601Y-97462601D01*
X142983966Y-97379740D01*
X142988706Y-97355910D01*
X143003409Y-97282000D01*
X143000402Y-97266882D01*
X142998500Y-97247569D01*
X142998500Y-94287663D01*
X143017407Y-94229472D01*
X143027490Y-94217665D01*
X144062791Y-93182363D01*
X144077788Y-93170057D01*
X144090601Y-93161497D01*
X144144110Y-93081414D01*
X144145966Y-93078637D01*
X144165408Y-92980896D01*
X144162402Y-92965783D01*
X144160500Y-92946470D01*
X144160500Y-89224560D01*
X144179407Y-89166369D01*
X144189496Y-89154556D01*
X146739556Y-86604496D01*
X146794073Y-86576719D01*
X146809560Y-86575500D01*
X147102470Y-86575500D01*
X147121783Y-86577402D01*
X147125331Y-86578107D01*
X147136896Y-86580408D01*
X147234637Y-86560966D01*
X147286494Y-86526316D01*
X147317497Y-86505601D01*
X147326057Y-86492788D01*
X147338369Y-86477786D01*
X147811661Y-86004496D01*
X147866177Y-85976719D01*
X147881664Y-85975500D01*
X150460574Y-85975500D01*
X150479887Y-85977402D01*
X150482719Y-85977965D01*
X150495000Y-85980408D01*
X150592741Y-85960966D01*
X150622536Y-85941057D01*
X150675601Y-85905601D01*
X150684161Y-85892788D01*
X150696467Y-85877791D01*
X150923105Y-85651153D01*
X150977620Y-85623378D01*
X150995209Y-85623378D01*
X150995209Y-85622492D01*
X151003000Y-85622492D01*
X151128304Y-85602646D01*
X151241342Y-85545050D01*
X151331050Y-85455342D01*
X151388646Y-85342304D01*
X151408492Y-85217000D01*
X151388646Y-85091696D01*
X151331050Y-84978658D01*
X151241342Y-84888950D01*
X151237406Y-84886944D01*
X151128307Y-84831355D01*
X151128304Y-84831354D01*
X151003000Y-84811508D01*
X150877696Y-84831354D01*
X150877692Y-84831355D01*
X150764659Y-84888949D01*
X150764658Y-84888949D01*
X150764658Y-84888950D01*
X150692001Y-84961606D01*
X150637487Y-84989382D01*
X150577055Y-84979811D01*
X150551999Y-84961607D01*
X150479342Y-84888950D01*
X150475406Y-84886944D01*
X150366307Y-84831355D01*
X150366304Y-84831354D01*
X150241000Y-84811508D01*
X150115696Y-84831354D01*
X150115692Y-84831355D01*
X150002658Y-84888950D01*
X150002656Y-84888951D01*
X149954103Y-84937504D01*
X149899586Y-84965281D01*
X149884100Y-84966500D01*
X148306955Y-84966500D01*
X148248764Y-84947593D01*
X148212800Y-84898093D01*
X148212798Y-84842057D01*
X148212427Y-84841999D01*
X148212798Y-84839656D01*
X148212798Y-84836914D01*
X148213643Y-84834309D01*
X148213646Y-84834304D01*
X148233492Y-84709000D01*
X148213646Y-84583696D01*
X148156050Y-84470658D01*
X148066342Y-84380950D01*
X148061596Y-84378532D01*
X147953307Y-84323355D01*
X147953304Y-84323354D01*
X147828000Y-84303508D01*
X147702696Y-84323354D01*
X147702692Y-84323355D01*
X147589658Y-84380950D01*
X147589656Y-84380951D01*
X147524254Y-84446353D01*
X147469737Y-84474130D01*
X147409305Y-84464558D01*
X147384250Y-84446355D01*
X147318845Y-84380950D01*
X147314099Y-84378532D01*
X147205810Y-84323355D01*
X147205807Y-84323354D01*
X147080503Y-84303508D01*
X146955199Y-84323354D01*
X146955195Y-84323355D01*
X146842161Y-84380950D01*
X146842158Y-84380952D01*
X146825753Y-84397357D01*
X146771236Y-84425133D01*
X146710804Y-84415561D01*
X146685750Y-84397358D01*
X146669342Y-84380950D01*
X146664596Y-84378532D01*
X146556307Y-84323355D01*
X146556304Y-84323354D01*
X146431000Y-84303508D01*
X146305696Y-84323354D01*
X146305692Y-84323355D01*
X146192658Y-84380950D01*
X146192656Y-84380951D01*
X146120002Y-84453605D01*
X146065485Y-84481382D01*
X146005053Y-84471810D01*
X145979998Y-84453606D01*
X145907342Y-84380950D01*
X145819084Y-84335980D01*
X145794307Y-84323355D01*
X145794304Y-84323354D01*
X145669000Y-84303508D01*
X145543696Y-84323354D01*
X145543692Y-84323355D01*
X145430659Y-84380949D01*
X145340949Y-84470659D01*
X145283355Y-84583692D01*
X145283354Y-84583696D01*
X145263508Y-84708998D01*
X145263508Y-84716790D01*
X145260504Y-84716790D01*
X145253040Y-84763852D01*
X145234844Y-84788892D01*
X143943236Y-86080503D01*
X143888719Y-86108281D01*
X143873232Y-86109500D01*
X142012955Y-86109500D01*
X141954764Y-86090593D01*
X141918800Y-86041093D01*
X141918218Y-86039239D01*
X141898814Y-85975273D01*
X141805910Y-85801462D01*
X141766751Y-85753747D01*
X141680887Y-85649121D01*
X141680878Y-85649112D01*
X141528542Y-85524093D01*
X141528540Y-85524092D01*
X141528538Y-85524090D01*
X141487618Y-85502218D01*
X141354732Y-85431188D01*
X141354730Y-85431187D01*
X141166129Y-85373975D01*
X141166126Y-85373974D01*
X140970003Y-85354659D01*
X140969997Y-85354659D01*
X140773873Y-85373974D01*
X140773870Y-85373975D01*
X140585269Y-85431187D01*
X140585267Y-85431188D01*
X140411467Y-85524087D01*
X140411457Y-85524093D01*
X140259121Y-85649112D01*
X140259112Y-85649121D01*
X140134093Y-85801457D01*
X140134087Y-85801467D01*
X140041188Y-85975267D01*
X140041187Y-85975269D01*
X139983975Y-86163870D01*
X139983974Y-86163873D01*
X139964659Y-86359996D01*
X139964659Y-86360003D01*
X139983974Y-86556126D01*
X139983975Y-86556129D01*
X140041187Y-86744730D01*
X140041188Y-86744732D01*
X140111342Y-86875980D01*
X140134090Y-86918538D01*
X140134092Y-86918540D01*
X140134093Y-86918542D01*
X140259112Y-87070878D01*
X140259121Y-87070887D01*
X140411457Y-87195906D01*
X140411462Y-87195910D01*
X140585273Y-87288814D01*
X140773868Y-87346024D01*
X140773870Y-87346024D01*
X140773873Y-87346025D01*
X140969997Y-87365341D01*
X140970000Y-87365341D01*
X140970003Y-87365341D01*
X141166126Y-87346025D01*
X141166127Y-87346024D01*
X141166132Y-87346024D01*
X141354727Y-87288814D01*
X141528538Y-87195910D01*
X141680883Y-87070883D01*
X141805910Y-86918538D01*
X141898814Y-86744727D01*
X141918218Y-86680760D01*
X141953203Y-86630565D01*
X142011012Y-86610519D01*
X142012955Y-86610500D01*
X143936231Y-86610500D01*
X143994422Y-86629407D01*
X144030386Y-86678907D01*
X144030386Y-86740093D01*
X144006235Y-86779504D01*
X142165236Y-88620504D01*
X142110719Y-88648281D01*
X142095232Y-88649500D01*
X142012955Y-88649500D01*
X141954764Y-88630593D01*
X141918800Y-88581093D01*
X141918218Y-88579239D01*
X141898814Y-88515273D01*
X141805910Y-88341462D01*
X141805906Y-88341457D01*
X141680887Y-88189121D01*
X141680878Y-88189112D01*
X141528542Y-88064093D01*
X141528540Y-88064092D01*
X141528538Y-88064090D01*
X141487618Y-88042218D01*
X141354732Y-87971188D01*
X141354730Y-87971187D01*
X141166129Y-87913975D01*
X141166126Y-87913974D01*
X140970003Y-87894659D01*
X140969997Y-87894659D01*
X140773873Y-87913974D01*
X140773870Y-87913975D01*
X140585269Y-87971187D01*
X140585267Y-87971188D01*
X140411467Y-88064087D01*
X140411457Y-88064093D01*
X140259121Y-88189112D01*
X140259112Y-88189121D01*
X140134093Y-88341457D01*
X140134087Y-88341467D01*
X140041188Y-88515267D01*
X140041187Y-88515269D01*
X139983975Y-88703870D01*
X139983974Y-88703873D01*
X139964659Y-88899996D01*
X139964659Y-88900003D01*
X139983974Y-89096126D01*
X139983975Y-89096129D01*
X140000468Y-89150500D01*
X140040055Y-89281000D01*
X140041187Y-89284730D01*
X140041188Y-89284732D01*
X140098707Y-89392342D01*
X140134090Y-89458538D01*
X140134092Y-89458540D01*
X140134093Y-89458542D01*
X140259112Y-89610878D01*
X140259121Y-89610887D01*
X140402201Y-89728310D01*
X140411462Y-89735910D01*
X140585273Y-89828814D01*
X140773868Y-89886024D01*
X140773870Y-89886024D01*
X140773873Y-89886025D01*
X140969997Y-89905341D01*
X140970000Y-89905341D01*
X140970003Y-89905341D01*
X141166126Y-89886025D01*
X141166127Y-89886024D01*
X141166132Y-89886024D01*
X141354727Y-89828814D01*
X141528538Y-89735910D01*
X141680883Y-89610883D01*
X141805910Y-89458538D01*
X141898814Y-89284727D01*
X141918218Y-89220760D01*
X141953203Y-89170565D01*
X142011012Y-89150519D01*
X142012955Y-89150500D01*
X142205574Y-89150500D01*
X142224887Y-89152402D01*
X142227719Y-89152965D01*
X142240000Y-89155408D01*
X142292911Y-89144883D01*
X142353671Y-89152075D01*
X142398601Y-89193607D01*
X142411224Y-89241981D01*
X142411224Y-89603507D01*
X142392317Y-89661698D01*
X142382228Y-89673511D01*
X141530349Y-90525389D01*
X141475832Y-90553166D01*
X141415400Y-90543595D01*
X141413677Y-90542695D01*
X141354732Y-90511188D01*
X141354730Y-90511187D01*
X141166129Y-90453975D01*
X141166126Y-90453974D01*
X140970003Y-90434659D01*
X140969997Y-90434659D01*
X140773873Y-90453974D01*
X140773870Y-90453975D01*
X140585269Y-90511187D01*
X140585267Y-90511188D01*
X140411467Y-90604087D01*
X140411457Y-90604093D01*
X140259121Y-90729112D01*
X140259112Y-90729121D01*
X140134093Y-90881457D01*
X140134087Y-90881467D01*
X140041188Y-91055267D01*
X140041187Y-91055269D01*
X139983975Y-91243870D01*
X139983974Y-91243873D01*
X139964659Y-91439996D01*
X139964659Y-91440003D01*
X139983974Y-91636126D01*
X139983975Y-91636129D01*
X140041187Y-91824730D01*
X140041188Y-91824732D01*
X140111342Y-91955980D01*
X140134090Y-91998538D01*
X140134092Y-91998540D01*
X140134093Y-91998542D01*
X140259112Y-92150878D01*
X140259121Y-92150887D01*
X140405873Y-92271323D01*
X140411462Y-92275910D01*
X140585273Y-92368814D01*
X140773868Y-92426024D01*
X140773870Y-92426024D01*
X140773873Y-92426025D01*
X140969997Y-92445341D01*
X140970000Y-92445341D01*
X140970003Y-92445341D01*
X141166126Y-92426025D01*
X141166127Y-92426024D01*
X141166132Y-92426024D01*
X141354727Y-92368814D01*
X141528538Y-92275910D01*
X141680883Y-92150883D01*
X141805910Y-91998538D01*
X141898814Y-91824727D01*
X141956024Y-91636132D01*
X141957207Y-91624127D01*
X141975341Y-91440003D01*
X141975341Y-91439996D01*
X141956025Y-91243873D01*
X141956024Y-91243870D01*
X141956024Y-91243868D01*
X141898814Y-91055273D01*
X141867302Y-90996318D01*
X141856546Y-90936090D01*
X141883248Y-90881038D01*
X141884560Y-90879698D01*
X142814515Y-89949743D01*
X142829512Y-89937437D01*
X142842325Y-89928877D01*
X142842325Y-89928876D01*
X142850436Y-89923458D01*
X142852504Y-89926554D01*
X142890967Y-89906934D01*
X142951404Y-89916477D01*
X142994689Y-89959722D01*
X143005500Y-90004708D01*
X143005500Y-92565231D01*
X142986593Y-92623422D01*
X142976504Y-92635235D01*
X142034184Y-93577554D01*
X141979667Y-93605331D01*
X141919235Y-93595760D01*
X141876870Y-93554218D01*
X141834142Y-93474281D01*
X141805910Y-93421462D01*
X141805906Y-93421457D01*
X141680887Y-93269121D01*
X141680878Y-93269112D01*
X141528542Y-93144093D01*
X141528540Y-93144092D01*
X141528538Y-93144090D01*
X141478431Y-93117307D01*
X141354732Y-93051188D01*
X141354730Y-93051187D01*
X141166129Y-92993975D01*
X141166126Y-92993974D01*
X140970003Y-92974659D01*
X140969997Y-92974659D01*
X140773873Y-92993974D01*
X140773870Y-92993975D01*
X140585269Y-93051187D01*
X140585267Y-93051188D01*
X140411467Y-93144087D01*
X140411457Y-93144093D01*
X140259121Y-93269112D01*
X140259112Y-93269121D01*
X140134093Y-93421457D01*
X140134087Y-93421467D01*
X140041188Y-93595267D01*
X140041187Y-93595269D01*
X139983975Y-93783870D01*
X139983974Y-93783873D01*
X139964659Y-93979996D01*
X139964659Y-93980003D01*
X139983974Y-94176126D01*
X139983975Y-94176129D01*
X140041187Y-94364730D01*
X140041188Y-94364732D01*
X140092570Y-94460860D01*
X140134090Y-94538538D01*
X140134092Y-94538540D01*
X140134093Y-94538542D01*
X140259112Y-94690878D01*
X140259121Y-94690887D01*
X140345066Y-94761420D01*
X140411462Y-94815910D01*
X140585273Y-94908814D01*
X140773868Y-94966024D01*
X140773870Y-94966024D01*
X140773873Y-94966025D01*
X140969997Y-94985341D01*
X140970000Y-94985341D01*
X140970003Y-94985341D01*
X141166126Y-94966025D01*
X141166127Y-94966024D01*
X141166132Y-94966024D01*
X141354727Y-94908814D01*
X141528538Y-94815910D01*
X141680883Y-94690883D01*
X141805910Y-94538538D01*
X141898814Y-94364727D01*
X141917738Y-94302342D01*
X141952723Y-94252146D01*
X141993150Y-94233985D01*
X141998179Y-94232985D01*
X142058939Y-94240171D01*
X142103873Y-94281700D01*
X142116500Y-94330081D01*
X142116500Y-95740231D01*
X142097593Y-95798422D01*
X142087503Y-95810235D01*
X141941909Y-95955828D01*
X141887393Y-95983605D01*
X141826961Y-95974033D01*
X141795378Y-95948629D01*
X141680887Y-95809121D01*
X141680878Y-95809112D01*
X141528542Y-95684093D01*
X141528540Y-95684092D01*
X141528538Y-95684090D01*
X141478431Y-95657307D01*
X141354732Y-95591188D01*
X141354730Y-95591187D01*
X141166129Y-95533975D01*
X141166126Y-95533974D01*
X140970003Y-95514659D01*
X140969997Y-95514659D01*
X140773873Y-95533974D01*
X140773870Y-95533975D01*
X140585269Y-95591187D01*
X140585267Y-95591188D01*
X140411467Y-95684087D01*
X140411457Y-95684093D01*
X140259121Y-95809112D01*
X140259112Y-95809121D01*
X140134093Y-95961457D01*
X140134087Y-95961467D01*
X140041188Y-96135267D01*
X140041187Y-96135269D01*
X139983975Y-96323870D01*
X139983974Y-96323873D01*
X139964659Y-96519996D01*
X139964659Y-96520003D01*
X139983974Y-96716126D01*
X139983975Y-96716129D01*
X140041187Y-96904730D01*
X140041188Y-96904732D01*
X140086872Y-96990200D01*
X140134090Y-97078538D01*
X140134092Y-97078540D01*
X140134093Y-97078542D01*
X140259112Y-97230878D01*
X140259121Y-97230887D01*
X140321405Y-97282002D01*
X140411462Y-97355910D01*
X140585273Y-97448814D01*
X140773868Y-97506024D01*
X140773870Y-97506024D01*
X140773873Y-97506025D01*
X140969997Y-97525341D01*
X140970000Y-97525341D01*
X140970003Y-97525341D01*
X141166126Y-97506025D01*
X141166127Y-97506024D01*
X141166132Y-97506024D01*
X141354727Y-97448814D01*
X141528538Y-97355910D01*
X141680883Y-97230883D01*
X141805910Y-97078538D01*
X141898814Y-96904727D01*
X141956024Y-96716132D01*
X141959751Y-96678288D01*
X141984269Y-96622233D01*
X141988271Y-96617988D01*
X142328497Y-96277763D01*
X142383013Y-96249986D01*
X142443445Y-96259557D01*
X142486710Y-96302822D01*
X142497500Y-96347767D01*
X142497500Y-97137230D01*
X142478593Y-97195421D01*
X142468504Y-97207234D01*
X141530348Y-98145389D01*
X141475831Y-98173166D01*
X141415399Y-98163595D01*
X141413732Y-98162724D01*
X141354727Y-98131186D01*
X141166132Y-98073976D01*
X141166129Y-98073975D01*
X141166126Y-98073974D01*
X140970003Y-98054659D01*
X140969997Y-98054659D01*
X140773873Y-98073974D01*
X140773870Y-98073975D01*
X140585269Y-98131187D01*
X140585267Y-98131188D01*
X140411467Y-98224087D01*
X140411457Y-98224093D01*
X140259121Y-98349112D01*
X140259112Y-98349121D01*
X140134093Y-98501457D01*
X140134087Y-98501467D01*
X140041188Y-98675267D01*
X140041187Y-98675269D01*
X139983975Y-98863870D01*
X139983974Y-98863873D01*
X139964659Y-99059996D01*
X139964659Y-99060003D01*
X138430500Y-99060003D01*
X138430500Y-77571600D01*
X139487508Y-77571600D01*
X139507354Y-77696903D01*
X139507355Y-77696907D01*
X139536433Y-77753975D01*
X139564950Y-77809942D01*
X139654658Y-77899650D01*
X139767696Y-77957246D01*
X139893000Y-77977092D01*
X140018304Y-77957246D01*
X140111781Y-77909616D01*
X140172209Y-77900045D01*
X140226726Y-77927821D01*
X140254505Y-77982337D01*
X140244934Y-78042770D01*
X140233252Y-78060630D01*
X140134097Y-78181451D01*
X140134087Y-78181467D01*
X140041188Y-78355267D01*
X140041187Y-78355269D01*
X139983975Y-78543870D01*
X139983974Y-78543873D01*
X139964659Y-78739996D01*
X139964659Y-78740003D01*
X139983974Y-78936126D01*
X139983975Y-78936129D01*
X140041187Y-79124730D01*
X140041188Y-79124732D01*
X140087680Y-79211711D01*
X140134090Y-79298538D01*
X140134092Y-79298540D01*
X140134093Y-79298542D01*
X140259112Y-79450878D01*
X140259121Y-79450887D01*
X140367355Y-79539712D01*
X140411462Y-79575910D01*
X140585273Y-79668814D01*
X140773868Y-79726024D01*
X140773870Y-79726024D01*
X140773873Y-79726025D01*
X140969997Y-79745341D01*
X140970000Y-79745341D01*
X140970003Y-79745341D01*
X141166126Y-79726025D01*
X141166127Y-79726024D01*
X141166132Y-79726024D01*
X141354727Y-79668814D01*
X141528538Y-79575910D01*
X141680883Y-79450883D01*
X141805910Y-79298538D01*
X141898814Y-79124727D01*
X141956024Y-78936132D01*
X141960348Y-78892237D01*
X141975341Y-78740003D01*
X141975341Y-78739996D01*
X141956025Y-78543873D01*
X141956024Y-78543870D01*
X141956024Y-78543868D01*
X141898814Y-78355273D01*
X141805910Y-78181462D01*
X141749204Y-78112366D01*
X141680887Y-78029121D01*
X141680878Y-78029112D01*
X141642514Y-77997628D01*
X141609527Y-77946097D01*
X141613129Y-77885018D01*
X141651944Y-77837721D01*
X141705319Y-77822100D01*
X142349232Y-77822100D01*
X142407423Y-77841007D01*
X142419236Y-77851096D01*
X142597327Y-78029187D01*
X142609638Y-78044189D01*
X142609641Y-78044194D01*
X142618199Y-78057001D01*
X142666838Y-78089500D01*
X142701059Y-78112366D01*
X142798800Y-78131808D01*
X142811080Y-78129365D01*
X142813913Y-78128802D01*
X142833226Y-78126900D01*
X146472774Y-78126900D01*
X146492087Y-78128802D01*
X146495635Y-78129507D01*
X146507200Y-78131808D01*
X146604941Y-78112366D01*
X146639162Y-78089500D01*
X146687801Y-78057001D01*
X146696361Y-78044188D01*
X146708667Y-78029191D01*
X147240105Y-77497754D01*
X147294621Y-77469978D01*
X147312208Y-77469979D01*
X147312208Y-77469092D01*
X147320000Y-77469092D01*
X147445304Y-77449246D01*
X147455553Y-77444023D01*
X147515984Y-77434450D01*
X147570501Y-77462226D01*
X147598281Y-77516742D01*
X147599500Y-77532232D01*
X147599500Y-78288711D01*
X147580593Y-78346902D01*
X147570504Y-78358715D01*
X144398716Y-81530504D01*
X144344199Y-81558281D01*
X144328712Y-81559500D01*
X142057043Y-81559500D01*
X141998852Y-81540593D01*
X141962888Y-81491093D01*
X141958520Y-81450797D01*
X141975341Y-81280003D01*
X141975341Y-81279996D01*
X141956025Y-81083873D01*
X141956024Y-81083870D01*
X141956024Y-81083868D01*
X141898814Y-80895273D01*
X141805910Y-80721462D01*
X141786614Y-80697950D01*
X141680887Y-80569121D01*
X141680878Y-80569112D01*
X141528542Y-80444093D01*
X141528540Y-80444092D01*
X141528538Y-80444090D01*
X141420522Y-80386354D01*
X141354732Y-80351188D01*
X141354730Y-80351187D01*
X141166129Y-80293975D01*
X141166126Y-80293974D01*
X140970003Y-80274659D01*
X140969997Y-80274659D01*
X140773873Y-80293974D01*
X140773870Y-80293975D01*
X140585269Y-80351187D01*
X140585267Y-80351188D01*
X140411467Y-80444087D01*
X140411457Y-80444093D01*
X140259121Y-80569112D01*
X140259112Y-80569121D01*
X140134093Y-80721457D01*
X140134087Y-80721467D01*
X140041188Y-80895267D01*
X140041187Y-80895269D01*
X139983975Y-81083870D01*
X139983974Y-81083873D01*
X139964659Y-81279996D01*
X139964659Y-81280003D01*
X139983974Y-81476126D01*
X139983975Y-81476129D01*
X139992382Y-81503842D01*
X140039363Y-81658719D01*
X140041187Y-81664730D01*
X140041188Y-81664732D01*
X140111342Y-81795980D01*
X140134090Y-81838538D01*
X140134092Y-81838540D01*
X140134093Y-81838542D01*
X140259112Y-81990878D01*
X140259121Y-81990887D01*
X140382196Y-82091892D01*
X140411462Y-82115910D01*
X140585273Y-82208814D01*
X140773868Y-82266024D01*
X140773870Y-82266024D01*
X140773873Y-82266025D01*
X140969997Y-82285341D01*
X140970000Y-82285341D01*
X140970003Y-82285341D01*
X141152412Y-82267376D01*
X141212175Y-82280488D01*
X141232118Y-82295895D01*
X141399185Y-82462961D01*
X141416669Y-82481682D01*
X141442567Y-82537116D01*
X141430937Y-82597186D01*
X141406796Y-82626045D01*
X141389302Y-82640278D01*
X141389300Y-82640281D01*
X141378243Y-82655944D01*
X141367370Y-82668852D01*
X141232118Y-82804104D01*
X141177601Y-82831881D01*
X141152411Y-82832623D01*
X140970003Y-82814659D01*
X140969997Y-82814659D01*
X140773873Y-82833974D01*
X140773870Y-82833975D01*
X140585269Y-82891187D01*
X140585267Y-82891188D01*
X140411467Y-82984087D01*
X140411457Y-82984093D01*
X140259121Y-83109112D01*
X140259112Y-83109121D01*
X140134093Y-83261457D01*
X140134087Y-83261467D01*
X140041188Y-83435267D01*
X140041187Y-83435269D01*
X139983975Y-83623870D01*
X139983974Y-83623873D01*
X139964659Y-83819996D01*
X139964659Y-83820003D01*
X139983974Y-84016126D01*
X139983975Y-84016129D01*
X140041187Y-84204730D01*
X140041188Y-84204732D01*
X140104594Y-84323355D01*
X140134090Y-84378538D01*
X140134092Y-84378540D01*
X140134093Y-84378542D01*
X140259112Y-84530878D01*
X140259121Y-84530887D01*
X140338195Y-84595781D01*
X140411462Y-84655910D01*
X140585273Y-84748814D01*
X140773868Y-84806024D01*
X140773870Y-84806024D01*
X140773873Y-84806025D01*
X140969997Y-84825341D01*
X140970000Y-84825341D01*
X140970003Y-84825341D01*
X141166126Y-84806025D01*
X141166127Y-84806024D01*
X141166132Y-84806024D01*
X141354727Y-84748814D01*
X141528538Y-84655910D01*
X141680883Y-84530883D01*
X141805910Y-84378538D01*
X141898814Y-84204727D01*
X141956024Y-84016132D01*
X141959438Y-83981475D01*
X141975341Y-83820003D01*
X141975341Y-83819996D01*
X141958520Y-83649203D01*
X141971633Y-83589440D01*
X142017369Y-83548797D01*
X142057043Y-83540500D01*
X144960411Y-83540500D01*
X145024523Y-83542690D01*
X145066691Y-83532413D01*
X145071656Y-83531470D01*
X145114658Y-83525560D01*
X145132244Y-83517920D01*
X145148241Y-83512540D01*
X145166876Y-83508000D01*
X145204699Y-83486731D01*
X145209241Y-83484476D01*
X145227809Y-83476410D01*
X145249046Y-83467187D01*
X145263922Y-83455083D01*
X145277877Y-83445587D01*
X145294590Y-83436190D01*
X145325278Y-83405500D01*
X145329032Y-83402112D01*
X145362702Y-83374721D01*
X145373757Y-83359058D01*
X145384627Y-83346151D01*
X147814552Y-80916225D01*
X147869067Y-80888450D01*
X147929499Y-80898021D01*
X147972763Y-80941285D01*
X147998157Y-80991122D01*
X148007950Y-81010342D01*
X148097658Y-81100050D01*
X148210696Y-81157646D01*
X148336000Y-81177492D01*
X148343792Y-81177492D01*
X148343792Y-81180504D01*
X148390806Y-81187935D01*
X148415894Y-81206155D01*
X148442529Y-81232790D01*
X148454840Y-81247792D01*
X148463399Y-81260601D01*
X148480276Y-81271877D01*
X148480279Y-81271880D01*
X148506969Y-81289713D01*
X148544850Y-81337762D01*
X148547254Y-81398900D01*
X148521977Y-81442031D01*
X148515950Y-81448058D01*
X148458355Y-81561092D01*
X148458354Y-81561096D01*
X148438508Y-81686399D01*
X148438508Y-81686400D01*
X148458354Y-81811703D01*
X148458355Y-81811707D01*
X148490217Y-81874238D01*
X148515950Y-81924742D01*
X148605658Y-82014450D01*
X148718696Y-82072046D01*
X148844000Y-82091892D01*
X148969304Y-82072046D01*
X149082342Y-82014450D01*
X149172050Y-81924742D01*
X149229646Y-81811704D01*
X149240842Y-81741012D01*
X149268619Y-81686497D01*
X149323136Y-81658719D01*
X149338623Y-81657500D01*
X151294125Y-81657500D01*
X151352316Y-81676407D01*
X151364129Y-81686496D01*
X151845962Y-82168329D01*
X151873739Y-82222846D01*
X151887354Y-82308808D01*
X151942872Y-82417768D01*
X151944950Y-82421845D01*
X152034658Y-82511553D01*
X152147696Y-82569149D01*
X152273000Y-82588995D01*
X152398304Y-82569149D01*
X152511342Y-82511553D01*
X152601050Y-82421845D01*
X152658646Y-82308807D01*
X152678492Y-82183503D01*
X152658646Y-82058199D01*
X152601050Y-81945161D01*
X152584641Y-81928752D01*
X152556866Y-81874238D01*
X152566437Y-81813806D01*
X152584644Y-81788746D01*
X152601050Y-81772342D01*
X152658646Y-81659304D01*
X152678492Y-81534000D01*
X152658646Y-81408696D01*
X152601050Y-81295658D01*
X152511342Y-81205950D01*
X152461402Y-81180504D01*
X152398307Y-81148355D01*
X152398304Y-81148354D01*
X152317222Y-81135512D01*
X152273001Y-81128508D01*
X152265210Y-81128508D01*
X152265210Y-81125508D01*
X152218125Y-81118030D01*
X152193104Y-81099844D01*
X152020472Y-80927212D01*
X152008160Y-80912209D01*
X151999601Y-80899399D01*
X151999597Y-80899396D01*
X151999596Y-80899395D01*
X151943719Y-80862060D01*
X151916742Y-80844034D01*
X151843674Y-80829500D01*
X151819000Y-80824592D01*
X151818999Y-80824592D01*
X151803887Y-80827598D01*
X151784574Y-80829500D01*
X148835153Y-80829500D01*
X148776962Y-80810593D01*
X148740998Y-80761093D01*
X148737372Y-80745987D01*
X148733488Y-80721467D01*
X148721646Y-80646696D01*
X148664050Y-80533658D01*
X148574342Y-80443950D01*
X148571989Y-80442751D01*
X148505285Y-80408763D01*
X148462021Y-80365498D01*
X148452450Y-80305066D01*
X148480225Y-80250552D01*
X149417945Y-79312833D01*
X149464841Y-79269036D01*
X149487394Y-79231948D01*
X149490225Y-79227786D01*
X149516463Y-79193189D01*
X149523499Y-79175344D01*
X149531012Y-79160221D01*
X149540970Y-79143848D01*
X149552680Y-79102051D01*
X149554294Y-79097254D01*
X149570213Y-79056889D01*
X149570213Y-79056888D01*
X149570214Y-79056886D01*
X149572175Y-79037800D01*
X149575325Y-79021231D01*
X149580500Y-79002763D01*
X149580500Y-78959364D01*
X149580760Y-78954299D01*
X149582627Y-78936132D01*
X149585197Y-78911136D01*
X149581939Y-78892237D01*
X149580500Y-78875419D01*
X149580500Y-76598900D01*
X149599407Y-76540709D01*
X149648907Y-76504745D01*
X149710093Y-76504745D01*
X149749504Y-76528896D01*
X149912949Y-76692342D01*
X150002657Y-76782049D01*
X150002658Y-76782050D01*
X150024149Y-76793000D01*
X150037395Y-76801117D01*
X150056910Y-76815296D01*
X150056912Y-76815296D01*
X150056913Y-76815297D01*
X150079852Y-76822750D01*
X150094195Y-76828690D01*
X150115696Y-76839646D01*
X150139524Y-76843419D01*
X150154633Y-76847047D01*
X150163194Y-76849828D01*
X150177567Y-76854499D01*
X150207437Y-76854499D01*
X150207461Y-76854500D01*
X150209481Y-76854500D01*
X152746040Y-76854500D01*
X152804231Y-76873407D01*
X152806307Y-76874958D01*
X152873078Y-76926193D01*
X152884375Y-76934861D01*
X153018291Y-76990330D01*
X153115849Y-77003173D01*
X153171073Y-77029514D01*
X153172929Y-77031322D01*
X153494503Y-77352895D01*
X153522281Y-77407412D01*
X153523500Y-77422899D01*
X153523500Y-88582437D01*
X153530953Y-88605374D01*
X153534579Y-88620474D01*
X153538354Y-88644306D01*
X153549301Y-88665788D01*
X153555247Y-88680142D01*
X153562703Y-88703088D01*
X153562702Y-88703088D01*
X153576884Y-88722608D01*
X153584997Y-88735847D01*
X153595950Y-88757342D01*
X153595951Y-88757343D01*
X153616031Y-88777424D01*
X153616032Y-88777424D01*
X153618513Y-88779905D01*
X153618516Y-88779909D01*
X154317951Y-89479344D01*
X154997676Y-90159069D01*
X155025453Y-90213586D01*
X155025825Y-90216150D01*
X155038670Y-90313708D01*
X155038670Y-90313709D01*
X155094139Y-90447625D01*
X155182379Y-90562621D01*
X155297375Y-90650861D01*
X155374858Y-90682955D01*
X155421383Y-90722690D01*
X155435667Y-90782184D01*
X155412253Y-90838712D01*
X155397240Y-90852960D01*
X155346308Y-90892042D01*
X155288632Y-90912466D01*
X155286040Y-90912500D01*
X152971433Y-90912500D01*
X152844567Y-90912500D01*
X152844566Y-90912500D01*
X152844560Y-90912501D01*
X152821624Y-90919953D01*
X152806525Y-90923578D01*
X152782701Y-90927352D01*
X152782695Y-90927354D01*
X152761196Y-90938307D01*
X152746857Y-90944246D01*
X152723914Y-90951702D01*
X152723911Y-90951704D01*
X152704392Y-90965884D01*
X152691156Y-90973995D01*
X152669658Y-90984950D01*
X152647094Y-91007513D01*
X152647092Y-91007515D01*
X152647090Y-91007515D01*
X152647091Y-91007516D01*
X150951515Y-92703092D01*
X150928950Y-92725658D01*
X150928948Y-92725660D01*
X150917997Y-92747151D01*
X150909887Y-92760385D01*
X150895706Y-92779906D01*
X150895701Y-92779915D01*
X150888249Y-92802852D01*
X150882305Y-92817202D01*
X150871355Y-92838691D01*
X150871352Y-92838701D01*
X150867577Y-92862529D01*
X150863953Y-92877624D01*
X150856501Y-92900562D01*
X150856500Y-92900569D01*
X150856500Y-93564040D01*
X150837593Y-93622231D01*
X150836042Y-93624307D01*
X150776142Y-93702370D01*
X150776137Y-93702378D01*
X150720670Y-93836290D01*
X150720669Y-93836291D01*
X150701750Y-93979999D01*
X150701750Y-93980000D01*
X150720669Y-94123708D01*
X150720670Y-94123709D01*
X150773869Y-94252146D01*
X150776139Y-94257625D01*
X150864379Y-94372621D01*
X150979375Y-94460861D01*
X151113291Y-94516330D01*
X151257000Y-94535250D01*
X151400709Y-94516330D01*
X151534625Y-94460861D01*
X151649621Y-94372621D01*
X151737861Y-94257625D01*
X151793330Y-94123709D01*
X151812250Y-93980000D01*
X151812249Y-93979996D01*
X151793330Y-93836291D01*
X151737861Y-93702375D01*
X151724945Y-93685542D01*
X151677958Y-93624307D01*
X151657534Y-93566631D01*
X151657500Y-93564040D01*
X151657500Y-93170900D01*
X151676407Y-93112709D01*
X151686496Y-93100896D01*
X153044897Y-91742496D01*
X153099414Y-91714719D01*
X153114901Y-91713500D01*
X155286040Y-91713500D01*
X155344231Y-91732407D01*
X155346307Y-91733958D01*
X155413078Y-91785193D01*
X155424375Y-91793861D01*
X155558291Y-91849330D01*
X155701999Y-91868250D01*
X155701999Y-91868249D01*
X155702000Y-91868250D01*
X155845709Y-91849330D01*
X155979625Y-91793861D01*
X156017934Y-91764464D01*
X156057693Y-91733958D01*
X156115369Y-91713534D01*
X156117960Y-91713500D01*
X157416432Y-91713500D01*
X157416433Y-91713500D01*
X157439382Y-91706043D01*
X157454465Y-91702421D01*
X157478304Y-91698646D01*
X157499802Y-91687690D01*
X157514151Y-91681748D01*
X157537090Y-91674296D01*
X157556612Y-91660111D01*
X157569849Y-91652000D01*
X157591342Y-91641050D01*
X157608261Y-91624129D01*
X157608265Y-91624127D01*
X157613907Y-91618485D01*
X157613909Y-91618484D01*
X158688498Y-90543894D01*
X158743013Y-90516119D01*
X158803445Y-90525690D01*
X158846710Y-90568955D01*
X158857500Y-90613900D01*
X158857500Y-91278040D01*
X158838593Y-91336231D01*
X158837042Y-91338307D01*
X158777142Y-91416370D01*
X158777137Y-91416378D01*
X158721670Y-91550290D01*
X158708825Y-91647849D01*
X158682483Y-91703074D01*
X158680676Y-91704930D01*
X157432903Y-92952704D01*
X157378386Y-92980481D01*
X157362899Y-92981700D01*
X153738809Y-92981700D01*
X153723322Y-92980481D01*
X153699500Y-92976708D01*
X153574196Y-92996554D01*
X153574192Y-92996555D01*
X153461159Y-93054149D01*
X153371449Y-93143859D01*
X153313855Y-93256892D01*
X153313854Y-93256896D01*
X153294008Y-93382200D01*
X153299957Y-93419764D01*
X153313854Y-93507503D01*
X153313855Y-93507507D01*
X153343981Y-93566631D01*
X153371450Y-93620542D01*
X153461158Y-93710250D01*
X153574196Y-93767846D01*
X153675356Y-93783868D01*
X153699499Y-93787692D01*
X153699499Y-93787691D01*
X153699500Y-93787692D01*
X153723322Y-93783918D01*
X153738809Y-93782700D01*
X153925501Y-93782700D01*
X153983692Y-93801607D01*
X154019656Y-93851107D01*
X154019656Y-93912293D01*
X153995503Y-93951705D01*
X153967302Y-93979905D01*
X153912785Y-94007681D01*
X153897300Y-94008900D01*
X153264900Y-94008900D01*
X153206709Y-93989993D01*
X153194897Y-93979904D01*
X153146343Y-93931351D01*
X153146342Y-93931350D01*
X153079294Y-93897187D01*
X153033307Y-93873755D01*
X153033304Y-93873754D01*
X152908000Y-93853908D01*
X152782696Y-93873754D01*
X152782692Y-93873755D01*
X152669659Y-93931349D01*
X152579949Y-94021059D01*
X152522355Y-94134092D01*
X152522354Y-94134096D01*
X152505554Y-94240171D01*
X152502508Y-94259400D01*
X152520440Y-94372622D01*
X152522354Y-94384703D01*
X152522355Y-94384707D01*
X152577944Y-94493806D01*
X152579950Y-94497742D01*
X152669658Y-94587450D01*
X152782696Y-94645046D01*
X152890866Y-94662178D01*
X152907999Y-94664892D01*
X152907999Y-94664891D01*
X152908000Y-94664892D01*
X153033304Y-94645046D01*
X153146342Y-94587450D01*
X153170619Y-94563172D01*
X153194897Y-94538896D01*
X153249414Y-94511119D01*
X153264900Y-94509900D01*
X153897300Y-94509900D01*
X153955491Y-94528807D01*
X153967303Y-94538896D01*
X154015855Y-94587447D01*
X154015858Y-94587450D01*
X154128896Y-94645046D01*
X154237066Y-94662178D01*
X154254199Y-94664892D01*
X154254199Y-94664891D01*
X154254200Y-94664892D01*
X154379504Y-94645046D01*
X154492542Y-94587450D01*
X154582250Y-94497742D01*
X154639846Y-94384704D01*
X154659692Y-94259400D01*
X154639846Y-94134096D01*
X154582250Y-94021058D01*
X154512893Y-93951701D01*
X154485118Y-93897187D01*
X154494689Y-93836755D01*
X154537954Y-93793490D01*
X154582899Y-93782700D01*
X157633232Y-93782700D01*
X157633233Y-93782700D01*
X157656182Y-93775243D01*
X157671265Y-93771621D01*
X157695104Y-93767846D01*
X157716602Y-93756890D01*
X157730951Y-93750948D01*
X157753890Y-93743496D01*
X157773412Y-93729311D01*
X157786649Y-93721200D01*
X157808142Y-93710250D01*
X157825060Y-93693330D01*
X157825072Y-93693321D01*
X158168817Y-93349576D01*
X159247068Y-92271322D01*
X159301585Y-92243545D01*
X159304117Y-92243177D01*
X159401709Y-92230330D01*
X159535625Y-92174861D01*
X159650621Y-92086621D01*
X159738861Y-91971625D01*
X159794330Y-91837709D01*
X159813250Y-91694000D01*
X159794330Y-91550291D01*
X159738861Y-91416375D01*
X159730193Y-91405078D01*
X159678958Y-91338307D01*
X159658534Y-91280631D01*
X159658500Y-91278040D01*
X159658500Y-90503899D01*
X159677407Y-90445708D01*
X159687490Y-90433901D01*
X160706483Y-89414909D01*
X160720936Y-89400456D01*
X160723334Y-89398056D01*
X160729050Y-89392342D01*
X160729050Y-89392340D01*
X160730409Y-89390982D01*
X160732160Y-89386236D01*
X160740003Y-89370841D01*
X160748115Y-89357605D01*
X160762296Y-89338090D01*
X160769751Y-89315142D01*
X160775690Y-89300802D01*
X160786646Y-89279304D01*
X160790421Y-89255465D01*
X160794043Y-89240382D01*
X160801500Y-89217433D01*
X160801500Y-89090567D01*
X160801500Y-85487899D01*
X160820407Y-85429709D01*
X160869907Y-85393745D01*
X160900500Y-85388900D01*
X161229640Y-85388900D01*
X161287831Y-85407807D01*
X161289907Y-85409358D01*
X161349833Y-85455340D01*
X161367975Y-85469261D01*
X161501891Y-85524730D01*
X161645600Y-85543650D01*
X161789309Y-85524730D01*
X161923225Y-85469261D01*
X162038221Y-85381021D01*
X162126461Y-85266025D01*
X162181930Y-85132109D01*
X162200850Y-84988400D01*
X162199567Y-84978658D01*
X162181930Y-84844691D01*
X162126461Y-84710775D01*
X162038221Y-84595779D01*
X161923225Y-84507539D01*
X161923221Y-84507537D01*
X161789309Y-84452070D01*
X161789308Y-84452069D01*
X161645600Y-84433150D01*
X161501891Y-84452069D01*
X161501890Y-84452070D01*
X161367978Y-84507537D01*
X161367970Y-84507542D01*
X161289907Y-84567442D01*
X161232231Y-84587866D01*
X161229640Y-84587900D01*
X160900500Y-84587900D01*
X160842309Y-84568993D01*
X160806345Y-84519493D01*
X160801500Y-84488900D01*
X160801500Y-81740900D01*
X160820407Y-81682709D01*
X160830495Y-81670898D01*
X160851932Y-81649460D01*
X160906448Y-81621681D01*
X160934860Y-81621310D01*
X160944399Y-81622565D01*
X160951211Y-81623463D01*
X160951213Y-81623463D01*
X161094922Y-81604543D01*
X161228838Y-81549074D01*
X161343834Y-81460834D01*
X161432074Y-81345838D01*
X161487543Y-81211922D01*
X161506463Y-81068213D01*
X161504392Y-81052482D01*
X161489535Y-80939633D01*
X161500685Y-80879472D01*
X161517681Y-80856710D01*
X162692223Y-79682168D01*
X162746738Y-79654393D01*
X162807170Y-79663964D01*
X162850435Y-79707229D01*
X162860006Y-79736686D01*
X162872854Y-79817803D01*
X162872855Y-79817807D01*
X162899028Y-79869175D01*
X162930450Y-79930842D01*
X162930451Y-79930843D01*
X162930577Y-79931090D01*
X162940149Y-79991522D01*
X162912372Y-80046039D01*
X162858725Y-80099686D01*
X162858724Y-80099688D01*
X162801129Y-80212722D01*
X162801128Y-80212726D01*
X162781282Y-80338029D01*
X162781282Y-80338030D01*
X162801128Y-80463333D01*
X162801129Y-80463337D01*
X162855025Y-80569112D01*
X162858724Y-80576372D01*
X162948432Y-80666080D01*
X162948434Y-80666081D01*
X162948436Y-80666083D01*
X162954738Y-80670662D01*
X162953414Y-80672484D01*
X162988798Y-80707860D01*
X162998376Y-80768291D01*
X162988803Y-80797760D01*
X162936354Y-80900694D01*
X162936354Y-80900696D01*
X162916508Y-81025999D01*
X162916508Y-81026000D01*
X162936354Y-81151303D01*
X162936355Y-81151307D01*
X162985517Y-81247792D01*
X162993950Y-81264342D01*
X163083658Y-81354050D01*
X163196696Y-81411646D01*
X163322000Y-81431492D01*
X163447304Y-81411646D01*
X163560342Y-81354050D01*
X163584619Y-81329772D01*
X163608897Y-81305496D01*
X163663414Y-81277719D01*
X163678900Y-81276500D01*
X163795574Y-81276500D01*
X163814887Y-81278402D01*
X163817719Y-81278965D01*
X163830000Y-81281408D01*
X163877567Y-81271946D01*
X163938327Y-81279138D01*
X163966883Y-81299040D01*
X164166503Y-81498659D01*
X164194281Y-81553176D01*
X164195500Y-81568663D01*
X164195500Y-97101574D01*
X164193598Y-97120887D01*
X164190592Y-97135999D01*
X164210033Y-97233741D01*
X164229941Y-97263536D01*
X164265396Y-97316597D01*
X164265399Y-97316601D01*
X164278209Y-97325160D01*
X164293212Y-97337472D01*
X165455389Y-98499649D01*
X165483166Y-98554166D01*
X165473595Y-98614598D01*
X165472696Y-98616320D01*
X165441187Y-98675270D01*
X165383975Y-98863870D01*
X165383974Y-98863873D01*
X165364659Y-99059996D01*
X165364659Y-99060003D01*
X165383974Y-99256126D01*
X165383975Y-99256129D01*
X165441187Y-99444730D01*
X165441188Y-99444732D01*
X165467325Y-99493630D01*
X165534090Y-99618538D01*
X165534092Y-99618540D01*
X165534093Y-99618542D01*
X165659112Y-99770878D01*
X165659121Y-99770887D01*
X165811457Y-99895906D01*
X165811462Y-99895910D01*
X165985273Y-99988814D01*
X166173868Y-100046024D01*
X166173870Y-100046024D01*
X166173873Y-100046025D01*
X166369997Y-100065341D01*
X166370000Y-100065341D01*
X166370003Y-100065341D01*
X166566126Y-100046025D01*
X166566127Y-100046024D01*
X166566132Y-100046024D01*
X166754727Y-99988814D01*
X166928538Y-99895910D01*
X167080883Y-99770883D01*
X167205910Y-99618538D01*
X167298814Y-99444727D01*
X167356024Y-99256132D01*
X167363385Y-99181400D01*
X167375341Y-99060003D01*
X167375341Y-99059996D01*
X167356025Y-98863873D01*
X167356024Y-98863870D01*
X167356024Y-98863868D01*
X167298814Y-98675273D01*
X167205910Y-98501462D01*
X167204422Y-98499649D01*
X167080887Y-98349121D01*
X167080878Y-98349112D01*
X166928542Y-98224093D01*
X166928540Y-98224092D01*
X166928538Y-98224090D01*
X166878431Y-98197307D01*
X166754732Y-98131188D01*
X166754730Y-98131187D01*
X166566129Y-98073975D01*
X166566126Y-98073974D01*
X166370003Y-98054659D01*
X166369997Y-98054659D01*
X166173873Y-98073974D01*
X166173870Y-98073975D01*
X165985270Y-98131187D01*
X165926320Y-98162696D01*
X165866088Y-98173451D01*
X165811036Y-98146749D01*
X165809649Y-98145389D01*
X164725495Y-97061235D01*
X164697718Y-97006718D01*
X164696499Y-96991243D01*
X164696499Y-93407766D01*
X164715406Y-93349576D01*
X164764906Y-93313612D01*
X164826092Y-93313612D01*
X164865503Y-93337763D01*
X164947504Y-93419764D01*
X164975281Y-93474281D01*
X164976500Y-93489768D01*
X164976500Y-95342574D01*
X164974598Y-95361887D01*
X164971592Y-95376999D01*
X164991033Y-95474741D01*
X165010941Y-95504536D01*
X165030613Y-95533976D01*
X165046399Y-95557601D01*
X165059209Y-95566160D01*
X165074212Y-95578472D01*
X165455389Y-95959649D01*
X165483166Y-96014166D01*
X165473595Y-96074598D01*
X165472696Y-96076320D01*
X165441187Y-96135270D01*
X165383975Y-96323870D01*
X165383974Y-96323873D01*
X165364659Y-96519996D01*
X165364659Y-96520003D01*
X165383974Y-96716126D01*
X165383975Y-96716129D01*
X165441187Y-96904730D01*
X165441188Y-96904732D01*
X165486872Y-96990200D01*
X165534090Y-97078538D01*
X165534092Y-97078540D01*
X165534093Y-97078542D01*
X165659112Y-97230878D01*
X165659121Y-97230887D01*
X165721405Y-97282002D01*
X165811462Y-97355910D01*
X165985273Y-97448814D01*
X166173868Y-97506024D01*
X166173870Y-97506024D01*
X166173873Y-97506025D01*
X166369997Y-97525341D01*
X166370000Y-97525341D01*
X166370003Y-97525341D01*
X166566126Y-97506025D01*
X166566127Y-97506024D01*
X166566132Y-97506024D01*
X166754727Y-97448814D01*
X166928538Y-97355910D01*
X167080883Y-97230883D01*
X167205910Y-97078538D01*
X167298814Y-96904727D01*
X167356024Y-96716132D01*
X167362089Y-96654558D01*
X167375341Y-96520003D01*
X167375341Y-96519996D01*
X167356025Y-96323873D01*
X167356024Y-96323870D01*
X167356024Y-96323868D01*
X167298814Y-96135273D01*
X167284642Y-96108760D01*
X167267303Y-96076320D01*
X167205910Y-95961462D01*
X167081801Y-95810235D01*
X167080887Y-95809121D01*
X167080878Y-95809112D01*
X166928542Y-95684093D01*
X166928540Y-95684092D01*
X166928538Y-95684090D01*
X166878431Y-95657307D01*
X166754732Y-95591188D01*
X166754730Y-95591187D01*
X166566129Y-95533975D01*
X166566126Y-95533974D01*
X166370003Y-95514659D01*
X166369997Y-95514659D01*
X166173873Y-95533974D01*
X166173870Y-95533975D01*
X165985270Y-95591187D01*
X165926320Y-95622696D01*
X165866088Y-95633451D01*
X165811036Y-95606749D01*
X165809649Y-95605389D01*
X165506496Y-95302236D01*
X165478719Y-95247719D01*
X165477500Y-95232232D01*
X165477500Y-94746269D01*
X165496407Y-94688078D01*
X165545907Y-94652114D01*
X165607093Y-94652114D01*
X165653029Y-94683466D01*
X165659109Y-94690875D01*
X165659121Y-94690887D01*
X165745066Y-94761420D01*
X165811462Y-94815910D01*
X165985273Y-94908814D01*
X166173868Y-94966024D01*
X166173870Y-94966024D01*
X166173873Y-94966025D01*
X166369997Y-94985341D01*
X166370000Y-94985341D01*
X166370003Y-94985341D01*
X166566126Y-94966025D01*
X166566127Y-94966024D01*
X166566132Y-94966024D01*
X166754727Y-94908814D01*
X166928538Y-94815910D01*
X167080883Y-94690883D01*
X167205910Y-94538538D01*
X167298814Y-94364727D01*
X167356024Y-94176132D01*
X167360165Y-94134096D01*
X167375341Y-93980003D01*
X167375341Y-93979996D01*
X167356025Y-93783873D01*
X167356024Y-93783870D01*
X167356024Y-93783868D01*
X167298814Y-93595273D01*
X167205910Y-93421462D01*
X167205906Y-93421457D01*
X167080887Y-93269121D01*
X167080878Y-93269112D01*
X166928542Y-93144093D01*
X166928540Y-93144092D01*
X166928538Y-93144090D01*
X166878431Y-93117307D01*
X166754732Y-93051188D01*
X166754730Y-93051187D01*
X166566129Y-92993975D01*
X166566126Y-92993974D01*
X166370003Y-92974659D01*
X166369997Y-92974659D01*
X166173873Y-92993974D01*
X166173870Y-92993975D01*
X165985270Y-93051187D01*
X165926320Y-93082696D01*
X165866088Y-93093451D01*
X165811036Y-93066749D01*
X165809649Y-93065388D01*
X165379496Y-92635234D01*
X165351719Y-92580718D01*
X165350500Y-92565231D01*
X165350500Y-92050135D01*
X165369407Y-91991944D01*
X165418907Y-91955980D01*
X165480093Y-91955980D01*
X165529593Y-91991944D01*
X165531817Y-91995136D01*
X165534090Y-91998538D01*
X165659112Y-92150878D01*
X165659121Y-92150887D01*
X165805873Y-92271323D01*
X165811462Y-92275910D01*
X165985273Y-92368814D01*
X166173868Y-92426024D01*
X166173870Y-92426024D01*
X166173873Y-92426025D01*
X166369997Y-92445341D01*
X166370000Y-92445341D01*
X166370003Y-92445341D01*
X166566126Y-92426025D01*
X166566127Y-92426024D01*
X166566132Y-92426024D01*
X166754727Y-92368814D01*
X166928538Y-92275910D01*
X167080883Y-92150883D01*
X167205910Y-91998538D01*
X167298814Y-91824727D01*
X167356024Y-91636132D01*
X167357207Y-91624127D01*
X167375341Y-91440003D01*
X167375341Y-91439996D01*
X167356025Y-91243873D01*
X167356024Y-91243870D01*
X167356024Y-91243868D01*
X167298814Y-91055273D01*
X167205910Y-90881462D01*
X167165434Y-90832142D01*
X167080887Y-90729121D01*
X167080878Y-90729112D01*
X166928542Y-90604093D01*
X166928540Y-90604092D01*
X166928538Y-90604090D01*
X166850955Y-90562621D01*
X166754732Y-90511188D01*
X166754730Y-90511187D01*
X166566129Y-90453975D01*
X166566126Y-90453974D01*
X166370003Y-90434659D01*
X166369997Y-90434659D01*
X166173873Y-90453974D01*
X166173870Y-90453975D01*
X165985269Y-90511187D01*
X165985267Y-90511188D01*
X165811467Y-90604087D01*
X165811457Y-90604093D01*
X165659121Y-90729112D01*
X165659112Y-90729121D01*
X165534088Y-90881463D01*
X165531813Y-90884869D01*
X165483762Y-90922746D01*
X165422624Y-90925146D01*
X165371751Y-90891151D01*
X165350576Y-90833747D01*
X165350500Y-90829864D01*
X165350500Y-89510135D01*
X165369407Y-89451944D01*
X165418907Y-89415980D01*
X165480093Y-89415980D01*
X165529593Y-89451944D01*
X165531817Y-89455136D01*
X165534090Y-89458538D01*
X165659112Y-89610878D01*
X165659121Y-89610887D01*
X165802201Y-89728310D01*
X165811462Y-89735910D01*
X165985273Y-89828814D01*
X166173868Y-89886024D01*
X166173870Y-89886024D01*
X166173873Y-89886025D01*
X166369997Y-89905341D01*
X166370000Y-89905341D01*
X166370003Y-89905341D01*
X166566126Y-89886025D01*
X166566127Y-89886024D01*
X166566132Y-89886024D01*
X166754727Y-89828814D01*
X166928538Y-89735910D01*
X167080883Y-89610883D01*
X167205910Y-89458538D01*
X167298814Y-89284727D01*
X167356024Y-89096132D01*
X167356573Y-89090567D01*
X167375341Y-88900003D01*
X167375341Y-88899996D01*
X167356025Y-88703873D01*
X167356024Y-88703870D01*
X167356024Y-88703868D01*
X167298814Y-88515273D01*
X167205910Y-88341462D01*
X167205906Y-88341457D01*
X167080887Y-88189121D01*
X167080878Y-88189112D01*
X166928542Y-88064093D01*
X166928540Y-88064092D01*
X166928538Y-88064090D01*
X166887618Y-88042218D01*
X166754732Y-87971188D01*
X166754730Y-87971187D01*
X166566129Y-87913975D01*
X166566126Y-87913974D01*
X166370003Y-87894659D01*
X166369997Y-87894659D01*
X166173873Y-87913974D01*
X166173870Y-87913975D01*
X165985269Y-87971187D01*
X165985267Y-87971188D01*
X165811467Y-88064087D01*
X165811457Y-88064093D01*
X165659121Y-88189112D01*
X165659112Y-88189121D01*
X165534088Y-88341463D01*
X165531813Y-88344869D01*
X165483762Y-88382746D01*
X165422624Y-88385146D01*
X165371751Y-88351151D01*
X165350576Y-88293747D01*
X165350500Y-88289864D01*
X165350500Y-86970135D01*
X165369407Y-86911944D01*
X165418907Y-86875980D01*
X165480093Y-86875980D01*
X165529593Y-86911944D01*
X165531817Y-86915136D01*
X165534090Y-86918538D01*
X165659112Y-87070878D01*
X165659121Y-87070887D01*
X165811457Y-87195906D01*
X165811462Y-87195910D01*
X165985273Y-87288814D01*
X166173868Y-87346024D01*
X166173870Y-87346024D01*
X166173873Y-87346025D01*
X166369997Y-87365341D01*
X166370000Y-87365341D01*
X166370003Y-87365341D01*
X166566126Y-87346025D01*
X166566127Y-87346024D01*
X166566132Y-87346024D01*
X166754727Y-87288814D01*
X166928538Y-87195910D01*
X167080883Y-87070883D01*
X167205910Y-86918538D01*
X167298814Y-86744727D01*
X167356024Y-86556132D01*
X167358961Y-86526317D01*
X167375341Y-86360003D01*
X167375341Y-86359996D01*
X167356025Y-86163873D01*
X167356024Y-86163870D01*
X167356024Y-86163868D01*
X167298814Y-85975273D01*
X167205910Y-85801462D01*
X167166751Y-85753747D01*
X167080887Y-85649121D01*
X167080878Y-85649112D01*
X166928542Y-85524093D01*
X166928540Y-85524092D01*
X166928538Y-85524090D01*
X166887618Y-85502218D01*
X166754732Y-85431188D01*
X166754730Y-85431187D01*
X166566129Y-85373975D01*
X166566126Y-85373974D01*
X166370003Y-85354659D01*
X166369997Y-85354659D01*
X166173873Y-85373974D01*
X166173870Y-85373975D01*
X165985269Y-85431187D01*
X165985267Y-85431188D01*
X165811467Y-85524087D01*
X165811457Y-85524093D01*
X165659121Y-85649112D01*
X165659112Y-85649121D01*
X165534088Y-85801463D01*
X165531813Y-85804869D01*
X165483762Y-85842746D01*
X165422624Y-85845146D01*
X165371751Y-85811151D01*
X165350576Y-85753747D01*
X165350500Y-85749864D01*
X165350500Y-84430135D01*
X165369407Y-84371944D01*
X165418907Y-84335980D01*
X165480093Y-84335980D01*
X165529593Y-84371944D01*
X165531817Y-84375136D01*
X165534090Y-84378538D01*
X165659112Y-84530878D01*
X165659121Y-84530887D01*
X165738195Y-84595781D01*
X165811462Y-84655910D01*
X165985273Y-84748814D01*
X166173868Y-84806024D01*
X166173870Y-84806024D01*
X166173873Y-84806025D01*
X166369997Y-84825341D01*
X166370000Y-84825341D01*
X166370003Y-84825341D01*
X166566126Y-84806025D01*
X166566127Y-84806024D01*
X166566132Y-84806024D01*
X166754727Y-84748814D01*
X166928538Y-84655910D01*
X167080883Y-84530883D01*
X167205910Y-84378538D01*
X167298814Y-84204727D01*
X167356024Y-84016132D01*
X167359438Y-83981475D01*
X167375341Y-83820003D01*
X167375341Y-83819996D01*
X167356025Y-83623873D01*
X167356024Y-83623870D01*
X167356024Y-83623868D01*
X167298814Y-83435273D01*
X167205910Y-83261462D01*
X167166751Y-83213747D01*
X167080887Y-83109121D01*
X167080878Y-83109112D01*
X166928542Y-82984093D01*
X166928540Y-82984092D01*
X166928538Y-82984090D01*
X166887618Y-82962218D01*
X166754732Y-82891188D01*
X166754730Y-82891187D01*
X166566129Y-82833975D01*
X166566126Y-82833974D01*
X166370003Y-82814659D01*
X166369997Y-82814659D01*
X166173873Y-82833974D01*
X166173870Y-82833975D01*
X165985269Y-82891187D01*
X165985267Y-82891188D01*
X165811467Y-82984087D01*
X165811457Y-82984093D01*
X165659121Y-83109112D01*
X165659112Y-83109121D01*
X165534088Y-83261463D01*
X165531813Y-83264869D01*
X165483762Y-83302746D01*
X165422624Y-83305146D01*
X165371751Y-83271151D01*
X165350576Y-83213747D01*
X165350500Y-83209864D01*
X165350500Y-81890135D01*
X165369407Y-81831944D01*
X165418907Y-81795980D01*
X165480093Y-81795980D01*
X165529593Y-81831944D01*
X165531817Y-81835136D01*
X165534090Y-81838538D01*
X165659112Y-81990878D01*
X165659121Y-81990887D01*
X165782196Y-82091892D01*
X165811462Y-82115910D01*
X165985273Y-82208814D01*
X166173868Y-82266024D01*
X166173870Y-82266024D01*
X166173873Y-82266025D01*
X166369997Y-82285341D01*
X166370000Y-82285341D01*
X166370003Y-82285341D01*
X166566126Y-82266025D01*
X166566127Y-82266024D01*
X166566132Y-82266024D01*
X166754727Y-82208814D01*
X166928538Y-82115910D01*
X167080883Y-81990883D01*
X167205910Y-81838538D01*
X167298814Y-81664727D01*
X167356024Y-81476132D01*
X167356976Y-81466475D01*
X167375341Y-81280003D01*
X167375341Y-81279996D01*
X167356025Y-81083873D01*
X167356024Y-81083870D01*
X167356024Y-81083868D01*
X167298814Y-80895273D01*
X167205910Y-80721462D01*
X167186614Y-80697950D01*
X167080887Y-80569121D01*
X167080878Y-80569112D01*
X166928542Y-80444093D01*
X166928540Y-80444092D01*
X166928538Y-80444090D01*
X166820522Y-80386354D01*
X166754732Y-80351188D01*
X166754730Y-80351187D01*
X166566129Y-80293975D01*
X166566126Y-80293974D01*
X166370003Y-80274659D01*
X166369997Y-80274659D01*
X166173873Y-80293974D01*
X166173870Y-80293975D01*
X165985269Y-80351187D01*
X165985267Y-80351188D01*
X165811467Y-80444087D01*
X165811457Y-80444093D01*
X165659121Y-80569112D01*
X165659112Y-80569121D01*
X165534093Y-80721457D01*
X165534087Y-80721467D01*
X165441188Y-80895267D01*
X165441184Y-80895276D01*
X165433417Y-80920881D01*
X165398431Y-80971077D01*
X165340623Y-80991122D01*
X165283677Y-80974455D01*
X165280601Y-80972400D01*
X165280601Y-80972399D01*
X165267786Y-80963836D01*
X165252787Y-80951527D01*
X163840972Y-79539712D01*
X163828660Y-79524709D01*
X163820102Y-79511901D01*
X163820101Y-79511899D01*
X163751798Y-79466261D01*
X163737241Y-79456534D01*
X163737242Y-79456534D01*
X163664174Y-79442000D01*
X163639500Y-79437092D01*
X163639499Y-79437092D01*
X163639496Y-79437092D01*
X163632993Y-79438385D01*
X163572233Y-79431189D01*
X163543683Y-79411290D01*
X163496843Y-79364451D01*
X163496842Y-79364450D01*
X163441361Y-79336181D01*
X163383807Y-79306855D01*
X163383804Y-79306854D01*
X163331324Y-79298542D01*
X163302686Y-79294006D01*
X163248170Y-79266228D01*
X163220393Y-79211711D01*
X163229965Y-79151279D01*
X163248167Y-79126224D01*
X163634388Y-78740003D01*
X165364659Y-78740003D01*
X165383974Y-78936126D01*
X165383975Y-78936129D01*
X165441187Y-79124730D01*
X165441188Y-79124732D01*
X165487680Y-79211711D01*
X165534090Y-79298538D01*
X165534092Y-79298540D01*
X165534093Y-79298542D01*
X165659112Y-79450878D01*
X165659121Y-79450887D01*
X165767355Y-79539712D01*
X165811462Y-79575910D01*
X165985273Y-79668814D01*
X166173868Y-79726024D01*
X166173870Y-79726024D01*
X166173873Y-79726025D01*
X166369997Y-79745341D01*
X166370000Y-79745341D01*
X166370003Y-79745341D01*
X166566126Y-79726025D01*
X166566127Y-79726024D01*
X166566132Y-79726024D01*
X166754727Y-79668814D01*
X166928538Y-79575910D01*
X167080883Y-79450883D01*
X167205910Y-79298538D01*
X167298814Y-79124727D01*
X167356024Y-78936132D01*
X167360348Y-78892237D01*
X167375341Y-78740003D01*
X167375341Y-78739996D01*
X167356025Y-78543873D01*
X167356024Y-78543870D01*
X167356024Y-78543868D01*
X167298814Y-78355273D01*
X167205910Y-78181462D01*
X167149204Y-78112366D01*
X167080887Y-78029121D01*
X167080878Y-78029112D01*
X166928542Y-77904093D01*
X166928540Y-77904092D01*
X166928538Y-77904090D01*
X166887618Y-77882218D01*
X166754732Y-77811188D01*
X166754730Y-77811187D01*
X166750619Y-77809940D01*
X166566132Y-77753976D01*
X166566129Y-77753975D01*
X166566126Y-77753974D01*
X166370003Y-77734659D01*
X166369997Y-77734659D01*
X166173873Y-77753974D01*
X166173870Y-77753975D01*
X165985269Y-77811187D01*
X165985267Y-77811188D01*
X165811467Y-77904087D01*
X165811457Y-77904093D01*
X165659121Y-78029112D01*
X165659112Y-78029121D01*
X165534093Y-78181457D01*
X165534087Y-78181467D01*
X165441188Y-78355267D01*
X165441187Y-78355269D01*
X165383975Y-78543870D01*
X165383974Y-78543873D01*
X165364659Y-78739996D01*
X165364659Y-78740003D01*
X163634388Y-78740003D01*
X164897483Y-77476909D01*
X164920050Y-77454342D01*
X164931002Y-77432843D01*
X164939115Y-77419605D01*
X164953296Y-77400090D01*
X164960751Y-77377144D01*
X164966695Y-77362795D01*
X164970391Y-77355542D01*
X164977646Y-77341304D01*
X164981419Y-77317473D01*
X164985048Y-77302364D01*
X164992498Y-77279435D01*
X164992499Y-77279434D01*
X164992499Y-77249563D01*
X164992500Y-77249538D01*
X164992500Y-76200003D01*
X165364659Y-76200003D01*
X165383974Y-76396126D01*
X165383975Y-76396129D01*
X165441187Y-76584730D01*
X165441188Y-76584732D01*
X165496986Y-76689122D01*
X165534090Y-76758538D01*
X165534092Y-76758540D01*
X165534093Y-76758542D01*
X165659112Y-76910878D01*
X165659121Y-76910887D01*
X165806589Y-77031911D01*
X165811462Y-77035910D01*
X165944353Y-77106942D01*
X165970603Y-77120973D01*
X165985273Y-77128814D01*
X166173868Y-77186024D01*
X166173870Y-77186024D01*
X166173873Y-77186025D01*
X166369997Y-77205341D01*
X166370000Y-77205341D01*
X166370003Y-77205341D01*
X166566126Y-77186025D01*
X166566127Y-77186024D01*
X166566132Y-77186024D01*
X166754727Y-77128814D01*
X166928538Y-77035910D01*
X167080883Y-76910883D01*
X167205910Y-76758538D01*
X167298814Y-76584727D01*
X167356024Y-76396132D01*
X167357663Y-76379496D01*
X167375341Y-76200003D01*
X167375341Y-76199996D01*
X167356025Y-76003873D01*
X167356024Y-76003870D01*
X167356024Y-76003868D01*
X167298814Y-75815273D01*
X167205910Y-75641462D01*
X167123059Y-75540508D01*
X167080887Y-75489121D01*
X167080878Y-75489112D01*
X166928542Y-75364093D01*
X166928540Y-75364092D01*
X166928538Y-75364090D01*
X166887618Y-75342218D01*
X166754732Y-75271188D01*
X166754730Y-75271187D01*
X166566129Y-75213975D01*
X166566126Y-75213974D01*
X166370003Y-75194659D01*
X166369997Y-75194659D01*
X166173873Y-75213974D01*
X166173870Y-75213975D01*
X165985269Y-75271187D01*
X165985267Y-75271188D01*
X165811467Y-75364087D01*
X165811457Y-75364093D01*
X165659121Y-75489112D01*
X165659112Y-75489121D01*
X165534093Y-75641457D01*
X165534087Y-75641467D01*
X165441188Y-75815267D01*
X165441187Y-75815269D01*
X165383975Y-76003870D01*
X165383974Y-76003873D01*
X165364659Y-76199996D01*
X165364659Y-76200003D01*
X164992500Y-76200003D01*
X164992500Y-73660003D01*
X165364659Y-73660003D01*
X165383974Y-73856126D01*
X165383975Y-73856129D01*
X165441187Y-74044730D01*
X165441188Y-74044732D01*
X165498706Y-74152340D01*
X165534090Y-74218538D01*
X165534092Y-74218540D01*
X165534093Y-74218542D01*
X165659112Y-74370878D01*
X165659121Y-74370887D01*
X165744034Y-74440573D01*
X165811462Y-74495910D01*
X165985273Y-74588814D01*
X166173868Y-74646024D01*
X166173870Y-74646024D01*
X166173873Y-74646025D01*
X166369997Y-74665341D01*
X166370000Y-74665341D01*
X166370003Y-74665341D01*
X166566126Y-74646025D01*
X166566127Y-74646024D01*
X166566132Y-74646024D01*
X166754727Y-74588814D01*
X166928538Y-74495910D01*
X167080883Y-74370883D01*
X167205910Y-74218538D01*
X167298814Y-74044727D01*
X167356024Y-73856132D01*
X167360604Y-73809637D01*
X167375341Y-73660003D01*
X167375341Y-73659996D01*
X167356025Y-73463873D01*
X167356024Y-73463870D01*
X167356024Y-73463868D01*
X167298814Y-73275273D01*
X167205910Y-73101462D01*
X167188661Y-73080444D01*
X167080887Y-72949121D01*
X167080878Y-72949112D01*
X166928542Y-72824093D01*
X166928540Y-72824092D01*
X166928538Y-72824090D01*
X166887618Y-72802218D01*
X166754732Y-72731188D01*
X166754730Y-72731187D01*
X166566129Y-72673975D01*
X166566126Y-72673974D01*
X166370003Y-72654659D01*
X166369997Y-72654659D01*
X166173873Y-72673974D01*
X166173870Y-72673975D01*
X165985269Y-72731187D01*
X165985267Y-72731188D01*
X165811467Y-72824087D01*
X165811457Y-72824093D01*
X165659121Y-72949112D01*
X165659112Y-72949121D01*
X165534093Y-73101457D01*
X165534087Y-73101467D01*
X165441188Y-73275267D01*
X165441187Y-73275269D01*
X165383975Y-73463870D01*
X165383974Y-73463873D01*
X165364659Y-73659996D01*
X165364659Y-73660003D01*
X164992500Y-73660003D01*
X164992500Y-71120003D01*
X165364659Y-71120003D01*
X165383974Y-71316126D01*
X165383975Y-71316129D01*
X165383976Y-71316132D01*
X165436021Y-71487702D01*
X165441187Y-71504730D01*
X165441188Y-71504732D01*
X165512218Y-71637618D01*
X165534090Y-71678538D01*
X165534092Y-71678540D01*
X165534093Y-71678542D01*
X165659112Y-71830878D01*
X165659121Y-71830887D01*
X165811457Y-71955906D01*
X165811462Y-71955910D01*
X165985273Y-72048814D01*
X166173868Y-72106024D01*
X166173870Y-72106024D01*
X166173873Y-72106025D01*
X166369997Y-72125341D01*
X166370000Y-72125341D01*
X166370003Y-72125341D01*
X166566126Y-72106025D01*
X166566127Y-72106024D01*
X166566132Y-72106024D01*
X166754727Y-72048814D01*
X166928538Y-71955910D01*
X167080883Y-71830883D01*
X167205910Y-71678538D01*
X167298814Y-71504727D01*
X167356024Y-71316132D01*
X167356253Y-71313813D01*
X167375341Y-71120003D01*
X167375341Y-71119996D01*
X167356025Y-70923873D01*
X167356024Y-70923870D01*
X167356024Y-70923868D01*
X167298814Y-70735273D01*
X167295599Y-70729259D01*
X167267303Y-70676321D01*
X167205910Y-70561462D01*
X167175643Y-70524582D01*
X167080887Y-70409121D01*
X167080878Y-70409112D01*
X166928542Y-70284093D01*
X166928540Y-70284092D01*
X166928538Y-70284090D01*
X166833266Y-70233166D01*
X166754732Y-70191188D01*
X166754730Y-70191187D01*
X166566129Y-70133975D01*
X166566126Y-70133974D01*
X166370003Y-70114659D01*
X166369997Y-70114659D01*
X166173873Y-70133974D01*
X166173870Y-70133975D01*
X165985269Y-70191187D01*
X165985267Y-70191188D01*
X165811467Y-70284087D01*
X165811457Y-70284093D01*
X165659121Y-70409112D01*
X165659112Y-70409121D01*
X165534093Y-70561457D01*
X165534087Y-70561467D01*
X165441188Y-70735267D01*
X165441187Y-70735269D01*
X165383975Y-70923870D01*
X165383974Y-70923873D01*
X165364659Y-71119996D01*
X165364659Y-71120003D01*
X164992500Y-71120003D01*
X164992500Y-68580003D01*
X165364659Y-68580003D01*
X165383974Y-68776126D01*
X165383975Y-68776129D01*
X165441187Y-68964730D01*
X165441188Y-68964732D01*
X165441190Y-68964735D01*
X165534090Y-69138538D01*
X165534092Y-69138540D01*
X165534093Y-69138542D01*
X165659112Y-69290878D01*
X165659121Y-69290887D01*
X165811457Y-69415906D01*
X165811462Y-69415910D01*
X165985273Y-69508814D01*
X166173868Y-69566024D01*
X166173870Y-69566024D01*
X166173873Y-69566025D01*
X166369997Y-69585341D01*
X166370000Y-69585341D01*
X166370003Y-69585341D01*
X166566126Y-69566025D01*
X166566127Y-69566024D01*
X166566132Y-69566024D01*
X166754727Y-69508814D01*
X166928538Y-69415910D01*
X167080883Y-69290883D01*
X167205910Y-69138538D01*
X167298814Y-68964727D01*
X167356024Y-68776132D01*
X167363745Y-68697744D01*
X167375341Y-68580003D01*
X167375341Y-68579996D01*
X167356025Y-68383873D01*
X167356024Y-68383870D01*
X167356024Y-68383868D01*
X167298814Y-68195273D01*
X167205910Y-68021462D01*
X167194041Y-68007000D01*
X167080887Y-67869121D01*
X167080878Y-67869112D01*
X166928542Y-67744093D01*
X166928540Y-67744092D01*
X166928538Y-67744090D01*
X166866758Y-67711068D01*
X166754732Y-67651188D01*
X166754730Y-67651187D01*
X166566129Y-67593975D01*
X166566126Y-67593974D01*
X166370003Y-67574659D01*
X166369997Y-67574659D01*
X166173873Y-67593974D01*
X166173870Y-67593975D01*
X165985269Y-67651187D01*
X165985267Y-67651188D01*
X165811467Y-67744087D01*
X165811457Y-67744093D01*
X165659121Y-67869112D01*
X165659112Y-67869121D01*
X165534093Y-68021457D01*
X165534087Y-68021467D01*
X165441188Y-68195267D01*
X165441187Y-68195269D01*
X165383975Y-68383870D01*
X165383974Y-68383873D01*
X165364659Y-68579996D01*
X165364659Y-68580003D01*
X164992500Y-68580003D01*
X164992500Y-66040003D01*
X165364659Y-66040003D01*
X165383974Y-66236126D01*
X165383975Y-66236129D01*
X165396780Y-66278340D01*
X165428046Y-66381412D01*
X165441187Y-66424730D01*
X165441188Y-66424732D01*
X165512218Y-66557618D01*
X165534090Y-66598538D01*
X165534092Y-66598540D01*
X165534093Y-66598542D01*
X165659112Y-66750878D01*
X165659121Y-66750887D01*
X165811457Y-66875906D01*
X165811462Y-66875910D01*
X165931779Y-66940221D01*
X165949668Y-66949783D01*
X165985273Y-66968814D01*
X166173868Y-67026024D01*
X166173870Y-67026024D01*
X166173873Y-67026025D01*
X166369997Y-67045341D01*
X166370000Y-67045341D01*
X166370003Y-67045341D01*
X166566126Y-67026025D01*
X166566127Y-67026024D01*
X166566132Y-67026024D01*
X166754727Y-66968814D01*
X166928538Y-66875910D01*
X167080883Y-66750883D01*
X167205910Y-66598538D01*
X167298814Y-66424727D01*
X167356024Y-66236132D01*
X167356210Y-66234251D01*
X167375341Y-66040003D01*
X167375341Y-66039996D01*
X167356025Y-65843873D01*
X167356024Y-65843870D01*
X167356024Y-65843868D01*
X167298814Y-65655273D01*
X167298323Y-65654355D01*
X167248448Y-65561045D01*
X167205910Y-65481462D01*
X167118542Y-65375004D01*
X167080887Y-65329121D01*
X167080878Y-65329112D01*
X166928542Y-65204093D01*
X166928540Y-65204092D01*
X166928538Y-65204090D01*
X166875035Y-65175492D01*
X166754732Y-65111188D01*
X166754730Y-65111187D01*
X166566129Y-65053975D01*
X166566126Y-65053974D01*
X166370003Y-65034659D01*
X166369997Y-65034659D01*
X166173873Y-65053974D01*
X166173870Y-65053975D01*
X165985269Y-65111187D01*
X165985267Y-65111188D01*
X165811467Y-65204087D01*
X165811457Y-65204093D01*
X165659121Y-65329112D01*
X165659112Y-65329121D01*
X165534093Y-65481457D01*
X165534087Y-65481467D01*
X165441188Y-65655267D01*
X165441187Y-65655269D01*
X165383975Y-65843870D01*
X165383974Y-65843873D01*
X165364659Y-66039996D01*
X165364659Y-66040003D01*
X164992500Y-66040003D01*
X164992500Y-63500003D01*
X165364659Y-63500003D01*
X165383974Y-63696126D01*
X165383975Y-63696129D01*
X165383976Y-63696132D01*
X165435664Y-63866525D01*
X165441187Y-63884730D01*
X165441188Y-63884732D01*
X165512218Y-64017618D01*
X165534090Y-64058538D01*
X165534092Y-64058540D01*
X165534093Y-64058542D01*
X165659112Y-64210878D01*
X165659121Y-64210887D01*
X165753627Y-64288446D01*
X165811462Y-64335910D01*
X165985273Y-64428814D01*
X166173868Y-64486024D01*
X166173870Y-64486024D01*
X166173873Y-64486025D01*
X166369997Y-64505341D01*
X166370000Y-64505341D01*
X166370003Y-64505341D01*
X166566126Y-64486025D01*
X166566127Y-64486024D01*
X166566132Y-64486024D01*
X166754727Y-64428814D01*
X166928538Y-64335910D01*
X167080883Y-64210883D01*
X167205910Y-64058538D01*
X167298814Y-63884727D01*
X167356024Y-63696132D01*
X167359434Y-63661518D01*
X167375341Y-63500003D01*
X167375341Y-63499996D01*
X167356025Y-63303873D01*
X167356024Y-63303870D01*
X167356024Y-63303868D01*
X167298814Y-63115273D01*
X167298323Y-63114355D01*
X167247059Y-63018446D01*
X167205910Y-62941462D01*
X167085521Y-62794768D01*
X167080887Y-62789121D01*
X167080878Y-62789112D01*
X166928542Y-62664093D01*
X166928540Y-62664092D01*
X166928538Y-62664090D01*
X166875035Y-62635492D01*
X166754732Y-62571188D01*
X166754730Y-62571187D01*
X166566129Y-62513975D01*
X166566126Y-62513974D01*
X166370003Y-62494659D01*
X166369997Y-62494659D01*
X166173873Y-62513974D01*
X166173870Y-62513975D01*
X165985269Y-62571187D01*
X165985267Y-62571188D01*
X165811467Y-62664087D01*
X165811457Y-62664093D01*
X165659121Y-62789112D01*
X165659112Y-62789121D01*
X165534093Y-62941457D01*
X165534087Y-62941467D01*
X165441188Y-63115267D01*
X165441187Y-63115269D01*
X165383975Y-63303870D01*
X165383974Y-63303873D01*
X165364659Y-63499996D01*
X165364659Y-63500003D01*
X164992500Y-63500003D01*
X164992500Y-60960003D01*
X165364659Y-60960003D01*
X165383974Y-61156126D01*
X165383975Y-61156129D01*
X165441187Y-61344730D01*
X165441188Y-61344732D01*
X165512218Y-61477618D01*
X165534090Y-61518538D01*
X165534092Y-61518540D01*
X165534093Y-61518542D01*
X165659112Y-61670878D01*
X165659121Y-61670887D01*
X165753627Y-61748446D01*
X165811462Y-61795910D01*
X165985273Y-61888814D01*
X166173868Y-61946024D01*
X166173870Y-61946024D01*
X166173873Y-61946025D01*
X166369997Y-61965341D01*
X166370000Y-61965341D01*
X166370003Y-61965341D01*
X166566126Y-61946025D01*
X166566127Y-61946024D01*
X166566132Y-61946024D01*
X166754727Y-61888814D01*
X166928538Y-61795910D01*
X167080883Y-61670883D01*
X167205910Y-61518538D01*
X167298814Y-61344727D01*
X167356024Y-61156132D01*
X167375341Y-60960000D01*
X167375341Y-60959996D01*
X167356025Y-60763873D01*
X167356024Y-60763870D01*
X167356024Y-60763868D01*
X167298814Y-60575273D01*
X167205910Y-60401462D01*
X167091795Y-60262413D01*
X167080887Y-60249121D01*
X167080878Y-60249112D01*
X166928542Y-60124093D01*
X166928540Y-60124092D01*
X166928538Y-60124090D01*
X166887618Y-60102218D01*
X166754732Y-60031188D01*
X166754730Y-60031187D01*
X166566129Y-59973975D01*
X166566126Y-59973974D01*
X166370003Y-59954659D01*
X166369997Y-59954659D01*
X166173873Y-59973974D01*
X166173870Y-59973975D01*
X165985269Y-60031187D01*
X165985267Y-60031188D01*
X165811467Y-60124087D01*
X165811457Y-60124093D01*
X165659121Y-60249112D01*
X165659112Y-60249121D01*
X165534093Y-60401457D01*
X165534087Y-60401467D01*
X165441188Y-60575267D01*
X165441187Y-60575269D01*
X165383975Y-60763870D01*
X165383974Y-60763873D01*
X165364659Y-60959996D01*
X165364659Y-60960003D01*
X164992500Y-60960003D01*
X164992500Y-58420003D01*
X165364659Y-58420003D01*
X165383974Y-58616126D01*
X165383975Y-58616129D01*
X165441187Y-58804730D01*
X165441188Y-58804732D01*
X165504458Y-58923100D01*
X165534090Y-58978538D01*
X165534092Y-58978540D01*
X165534093Y-58978542D01*
X165659112Y-59130878D01*
X165659121Y-59130887D01*
X165811457Y-59255906D01*
X165811462Y-59255910D01*
X165985273Y-59348814D01*
X166173868Y-59406024D01*
X166173870Y-59406024D01*
X166173873Y-59406025D01*
X166369997Y-59425341D01*
X166370000Y-59425341D01*
X166370003Y-59425341D01*
X166566126Y-59406025D01*
X166566127Y-59406024D01*
X166566132Y-59406024D01*
X166754727Y-59348814D01*
X166928538Y-59255910D01*
X167080883Y-59130883D01*
X167205910Y-58978538D01*
X167298814Y-58804727D01*
X167356024Y-58616132D01*
X167357366Y-58602513D01*
X167375341Y-58420003D01*
X167375341Y-58419996D01*
X167356025Y-58223873D01*
X167356024Y-58223870D01*
X167356024Y-58223868D01*
X167298814Y-58035273D01*
X167298720Y-58035098D01*
X167253236Y-57950003D01*
X167205910Y-57861462D01*
X167160975Y-57806709D01*
X167080887Y-57709121D01*
X167080878Y-57709112D01*
X166928542Y-57584093D01*
X166928540Y-57584092D01*
X166928538Y-57584090D01*
X166832673Y-57532849D01*
X166754732Y-57491188D01*
X166754730Y-57491187D01*
X166752488Y-57490507D01*
X166566132Y-57433976D01*
X166566129Y-57433975D01*
X166566126Y-57433974D01*
X166370003Y-57414659D01*
X166369997Y-57414659D01*
X166173873Y-57433974D01*
X166173870Y-57433975D01*
X165985269Y-57491187D01*
X165985267Y-57491188D01*
X165811467Y-57584087D01*
X165811457Y-57584093D01*
X165659121Y-57709112D01*
X165659112Y-57709121D01*
X165534093Y-57861457D01*
X165534087Y-57861467D01*
X165441188Y-58035267D01*
X165441187Y-58035269D01*
X165383975Y-58223870D01*
X165383974Y-58223873D01*
X165364659Y-58419996D01*
X165364659Y-58420003D01*
X164992500Y-58420003D01*
X164992500Y-57229899D01*
X165011407Y-57171708D01*
X165021490Y-57159901D01*
X165557987Y-56623403D01*
X165612502Y-56595628D01*
X165672934Y-56605199D01*
X165690794Y-56616881D01*
X165809133Y-56713999D01*
X165811462Y-56715910D01*
X165985273Y-56808814D01*
X166173868Y-56866024D01*
X166173870Y-56866024D01*
X166173873Y-56866025D01*
X166369997Y-56885341D01*
X166370000Y-56885341D01*
X166370003Y-56885341D01*
X166566126Y-56866025D01*
X166566127Y-56866024D01*
X166566132Y-56866024D01*
X166754727Y-56808814D01*
X166928538Y-56715910D01*
X167080883Y-56590883D01*
X167205910Y-56438538D01*
X167298814Y-56264727D01*
X167356024Y-56076132D01*
X167358464Y-56051364D01*
X167375341Y-55880003D01*
X167375341Y-55879996D01*
X167356025Y-55683873D01*
X167356024Y-55683870D01*
X167356024Y-55683868D01*
X167298814Y-55495273D01*
X167205910Y-55321462D01*
X167196499Y-55309995D01*
X167080887Y-55169121D01*
X167080878Y-55169112D01*
X166928542Y-55044093D01*
X166928540Y-55044092D01*
X166928538Y-55044090D01*
X166837906Y-54995646D01*
X166754732Y-54951188D01*
X166754730Y-54951187D01*
X166566129Y-54893975D01*
X166566126Y-54893974D01*
X166370003Y-54874659D01*
X166369997Y-54874659D01*
X166173873Y-54893974D01*
X166173870Y-54893975D01*
X165985269Y-54951187D01*
X165985267Y-54951188D01*
X165811467Y-55044087D01*
X165811457Y-55044093D01*
X165705305Y-55131210D01*
X165648328Y-55153510D01*
X165589125Y-55138061D01*
X165550310Y-55090764D01*
X165543500Y-55054682D01*
X165543500Y-54773899D01*
X165562407Y-54715708D01*
X165572490Y-54703902D01*
X165960429Y-54315962D01*
X166014944Y-54288186D01*
X166059169Y-54291229D01*
X166173868Y-54326024D01*
X166173870Y-54326024D01*
X166173873Y-54326025D01*
X166369997Y-54345341D01*
X166370000Y-54345341D01*
X166370003Y-54345341D01*
X166566126Y-54326025D01*
X166566127Y-54326024D01*
X166566132Y-54326024D01*
X166754727Y-54268814D01*
X166928538Y-54175910D01*
X167080883Y-54050883D01*
X167205910Y-53898538D01*
X167298814Y-53724727D01*
X167356024Y-53536132D01*
X167367473Y-53419893D01*
X167375341Y-53340003D01*
X167375341Y-53339996D01*
X167356025Y-53143873D01*
X167356024Y-53143870D01*
X167356024Y-53143868D01*
X167298814Y-52955273D01*
X167298323Y-52954355D01*
X167262411Y-52887168D01*
X167205910Y-52781462D01*
X167205906Y-52781457D01*
X167080887Y-52629121D01*
X167080878Y-52629112D01*
X166928542Y-52504093D01*
X166928540Y-52504092D01*
X166928538Y-52504090D01*
X166887618Y-52482218D01*
X166754732Y-52411188D01*
X166754730Y-52411187D01*
X166566129Y-52353975D01*
X166566126Y-52353974D01*
X166370003Y-52334659D01*
X166369997Y-52334659D01*
X166173873Y-52353974D01*
X166173870Y-52353975D01*
X165985269Y-52411187D01*
X165985267Y-52411188D01*
X165811467Y-52504087D01*
X165811457Y-52504093D01*
X165659121Y-52629112D01*
X165659112Y-52629121D01*
X165534093Y-52781457D01*
X165534087Y-52781467D01*
X165441188Y-52955267D01*
X165441187Y-52955269D01*
X165383975Y-53143870D01*
X165383974Y-53143873D01*
X165364659Y-53339996D01*
X165364659Y-53340003D01*
X165383974Y-53536126D01*
X165383975Y-53536132D01*
X165418768Y-53650828D01*
X165417567Y-53712002D01*
X165394035Y-53749569D01*
X164837521Y-54306084D01*
X164837515Y-54306092D01*
X164814950Y-54328658D01*
X164814948Y-54328660D01*
X164803997Y-54350151D01*
X164795887Y-54363385D01*
X164781706Y-54382906D01*
X164781701Y-54382915D01*
X164774249Y-54405852D01*
X164768305Y-54420202D01*
X164757355Y-54441691D01*
X164757352Y-54441701D01*
X164753577Y-54465529D01*
X164749953Y-54480624D01*
X164742501Y-54503562D01*
X164742500Y-54503569D01*
X164742500Y-55376099D01*
X164723593Y-55434290D01*
X164713504Y-55446103D01*
X163659515Y-56500092D01*
X163636950Y-56522658D01*
X163636948Y-56522660D01*
X163625997Y-56544151D01*
X163617887Y-56557385D01*
X163603706Y-56576906D01*
X163603701Y-56576915D01*
X163596249Y-56599852D01*
X163590305Y-56614202D01*
X163579355Y-56635691D01*
X163579352Y-56635701D01*
X163575577Y-56659529D01*
X163571953Y-56674624D01*
X163564501Y-56697562D01*
X163564500Y-56697569D01*
X163564500Y-62133231D01*
X163545593Y-62191422D01*
X163496093Y-62227386D01*
X163434907Y-62227386D01*
X163395496Y-62203235D01*
X163269470Y-62077209D01*
X163257159Y-62062207D01*
X163248602Y-62049401D01*
X163248601Y-62049399D01*
X163248597Y-62049396D01*
X163195536Y-62013941D01*
X163165741Y-61994033D01*
X163083112Y-61977598D01*
X163068000Y-61974592D01*
X163067999Y-61974592D01*
X163052887Y-61977598D01*
X163033574Y-61979500D01*
X161519900Y-61979500D01*
X161461709Y-61960593D01*
X161449897Y-61950504D01*
X161401343Y-61901951D01*
X161401342Y-61901950D01*
X161345861Y-61873681D01*
X161288307Y-61844355D01*
X161288304Y-61844354D01*
X161163000Y-61824508D01*
X161037696Y-61844354D01*
X161037695Y-61844354D01*
X161030001Y-61845573D01*
X161029531Y-61842605D01*
X160981876Y-61842591D01*
X160932388Y-61806611D01*
X160913500Y-61748449D01*
X160913500Y-53984766D01*
X160932407Y-53926576D01*
X160942490Y-53914769D01*
X161083106Y-53774153D01*
X161137621Y-53746378D01*
X161155208Y-53746379D01*
X161155208Y-53745492D01*
X161163000Y-53745492D01*
X161288304Y-53725646D01*
X161401342Y-53668050D01*
X161491050Y-53578342D01*
X161548646Y-53465304D01*
X161568492Y-53340000D01*
X161568491Y-53339996D01*
X161565778Y-53322866D01*
X161548646Y-53214696D01*
X161491050Y-53101658D01*
X161401342Y-53011950D01*
X161363923Y-52992884D01*
X161288307Y-52954355D01*
X161288304Y-52954354D01*
X161163000Y-52934508D01*
X161037696Y-52954354D01*
X161037692Y-52954355D01*
X160924659Y-53011949D01*
X160834949Y-53101659D01*
X160777355Y-53214692D01*
X160777354Y-53214696D01*
X160757508Y-53339998D01*
X160757508Y-53347790D01*
X160754504Y-53347790D01*
X160747040Y-53394852D01*
X160728844Y-53419893D01*
X160510208Y-53638529D01*
X160495212Y-53650836D01*
X160482401Y-53659397D01*
X160482398Y-53659399D01*
X160446942Y-53712463D01*
X160427033Y-53742260D01*
X160407592Y-53839999D01*
X160410598Y-53855111D01*
X160412500Y-53874425D01*
X160412500Y-54134233D01*
X160393593Y-54192424D01*
X160344093Y-54228388D01*
X160282907Y-54228388D01*
X160276306Y-54225654D01*
X160272305Y-54224354D01*
X160272304Y-54224354D01*
X160147000Y-54204508D01*
X160021696Y-54224354D01*
X160021692Y-54224355D01*
X159908659Y-54281949D01*
X159818949Y-54371659D01*
X159761355Y-54484692D01*
X159761354Y-54484696D01*
X159741508Y-54609999D01*
X159741508Y-54610000D01*
X159761354Y-54735303D01*
X159761355Y-54735307D01*
X159781019Y-54773899D01*
X159818950Y-54848342D01*
X159908658Y-54938050D01*
X159934439Y-54951186D01*
X160028639Y-54999184D01*
X160027388Y-55001637D01*
X160066573Y-55030086D01*
X160085500Y-55088271D01*
X160085500Y-65337748D01*
X160066593Y-65395939D01*
X160017093Y-65431903D01*
X159955907Y-65431903D01*
X159941555Y-65425958D01*
X159891304Y-65400354D01*
X159766000Y-65380508D01*
X159640696Y-65400354D01*
X159640692Y-65400355D01*
X159527658Y-65457950D01*
X159527656Y-65457951D01*
X159479103Y-65506504D01*
X159424586Y-65534281D01*
X159409100Y-65535500D01*
X158632031Y-65535500D01*
X158612718Y-65533598D01*
X158597600Y-65530591D01*
X158495748Y-65550851D01*
X158487648Y-65558193D01*
X158417001Y-65605397D01*
X158416996Y-65605402D01*
X158408440Y-65618207D01*
X158396131Y-65633205D01*
X157777519Y-66251820D01*
X157777517Y-66251822D01*
X157174809Y-66854529D01*
X157159810Y-66866838D01*
X157147002Y-66875396D01*
X157146998Y-66875400D01*
X157111542Y-66928462D01*
X157091633Y-66958260D01*
X157078154Y-67026025D01*
X157072192Y-67056000D01*
X157073512Y-67062638D01*
X157075198Y-67071111D01*
X157077100Y-67090425D01*
X157077100Y-70559900D01*
X157058193Y-70618091D01*
X157048104Y-70629903D01*
X156999551Y-70678456D01*
X156999550Y-70678458D01*
X156941955Y-70791492D01*
X156941954Y-70791496D01*
X156922108Y-70916800D01*
X156941954Y-71042104D01*
X156951291Y-71060429D01*
X156963333Y-71084063D01*
X156972904Y-71144495D01*
X156945127Y-71199011D01*
X156744837Y-71399303D01*
X156690321Y-71427081D01*
X156674833Y-71428300D01*
X154573499Y-71428300D01*
X154515308Y-71409393D01*
X154479344Y-71359893D01*
X154479344Y-71298707D01*
X154503493Y-71259298D01*
X154556850Y-71205942D01*
X154614446Y-71092904D01*
X154634292Y-70967600D01*
X154614446Y-70842296D01*
X154556850Y-70729258D01*
X154467142Y-70639550D01*
X154429994Y-70620622D01*
X154354107Y-70581955D01*
X154354104Y-70581954D01*
X154228800Y-70562108D01*
X154103496Y-70581954D01*
X154103492Y-70581955D01*
X153990458Y-70639550D01*
X153990456Y-70639551D01*
X153941903Y-70688104D01*
X153887386Y-70715881D01*
X153871900Y-70717100D01*
X153560768Y-70717100D01*
X153502577Y-70698193D01*
X153490764Y-70688104D01*
X152690872Y-69888212D01*
X152678560Y-69873209D01*
X152678154Y-69872602D01*
X152670001Y-69860399D01*
X152669999Y-69860396D01*
X152605400Y-69817235D01*
X152591576Y-69807998D01*
X152587141Y-69805034D01*
X152587140Y-69805033D01*
X152580641Y-69800691D01*
X152565639Y-69788379D01*
X152371496Y-69594235D01*
X152343719Y-69539719D01*
X152342500Y-69524232D01*
X152342500Y-68687663D01*
X152361407Y-68629472D01*
X152371490Y-68617665D01*
X153822791Y-67166363D01*
X153837788Y-67154057D01*
X153850601Y-67145497D01*
X153886057Y-67092432D01*
X153905966Y-67062637D01*
X153925408Y-66964896D01*
X153922402Y-66949783D01*
X153920500Y-66930470D01*
X153920500Y-64931427D01*
X153922403Y-64912110D01*
X153925409Y-64897000D01*
X153925409Y-64896997D01*
X153905966Y-64799262D01*
X153905965Y-64799258D01*
X153861879Y-64733277D01*
X153861875Y-64733273D01*
X153850601Y-64716399D01*
X153837792Y-64707840D01*
X153822790Y-64695529D01*
X150616496Y-61489235D01*
X150588719Y-61434718D01*
X150587500Y-61419231D01*
X150587500Y-59907845D01*
X150589402Y-59888531D01*
X150592408Y-59873420D01*
X150572966Y-59775679D01*
X150572963Y-59775674D01*
X150551098Y-59742950D01*
X150517603Y-59692822D01*
X150517601Y-59692819D01*
X150504789Y-59684258D01*
X150489787Y-59671947D01*
X148767842Y-57950002D01*
X150404858Y-57950002D01*
X150425319Y-58092314D01*
X150485048Y-58223100D01*
X150489889Y-58228688D01*
X150696932Y-58021645D01*
X150751449Y-57993867D01*
X150811881Y-58003438D01*
X150847030Y-58033460D01*
X150848220Y-58035098D01*
X150867126Y-58093289D01*
X150848217Y-58151479D01*
X150838130Y-58163290D01*
X150634270Y-58367149D01*
X150700155Y-58409492D01*
X150838109Y-58449999D01*
X150838112Y-58450000D01*
X150981888Y-58450000D01*
X150981892Y-58449999D01*
X150992491Y-58446887D01*
X151053651Y-58448633D01*
X151102105Y-58485994D01*
X151119345Y-58544701D01*
X151118377Y-58555964D01*
X151104858Y-58649995D01*
X151104858Y-58650002D01*
X151125319Y-58792314D01*
X151185048Y-58923100D01*
X151189889Y-58928688D01*
X151396932Y-58721645D01*
X151451449Y-58693867D01*
X151511881Y-58703438D01*
X151547030Y-58733460D01*
X151548220Y-58735098D01*
X151567126Y-58793289D01*
X151548217Y-58851479D01*
X151538130Y-58863290D01*
X151334270Y-59067149D01*
X151400155Y-59109492D01*
X151538109Y-59149999D01*
X151538112Y-59150000D01*
X151681888Y-59150000D01*
X151681890Y-59149999D01*
X151819844Y-59109492D01*
X151819846Y-59109491D01*
X151885728Y-59067149D01*
X151681869Y-58863290D01*
X151654092Y-58808773D01*
X151663663Y-58748341D01*
X151671755Y-58735130D01*
X151671801Y-58735065D01*
X151671803Y-58735065D01*
X151672947Y-58733489D01*
X151722429Y-58697507D01*
X151783614Y-58697480D01*
X151823066Y-58721644D01*
X152030109Y-58928687D01*
X152034950Y-58923102D01*
X152034951Y-58923100D01*
X152094680Y-58792314D01*
X152115142Y-58650002D01*
X152115142Y-58649997D01*
X152101622Y-58555965D01*
X152112055Y-58495676D01*
X152155933Y-58453034D01*
X152216495Y-58444326D01*
X152227506Y-58446886D01*
X152238109Y-58449999D01*
X152238112Y-58450000D01*
X152381888Y-58450000D01*
X152381892Y-58449999D01*
X152392491Y-58446887D01*
X152453651Y-58448633D01*
X152502105Y-58485994D01*
X152519345Y-58544701D01*
X152518377Y-58555964D01*
X152504858Y-58649995D01*
X152504858Y-58650002D01*
X152525319Y-58792314D01*
X152585048Y-58923100D01*
X152589889Y-58928688D01*
X152796932Y-58721645D01*
X152851449Y-58693867D01*
X152911881Y-58703438D01*
X152947030Y-58733460D01*
X152948220Y-58735098D01*
X152967126Y-58793289D01*
X152948217Y-58851479D01*
X152938130Y-58863290D01*
X152734270Y-59067149D01*
X152800155Y-59109492D01*
X152938109Y-59149999D01*
X152938112Y-59150000D01*
X153081888Y-59150000D01*
X153081890Y-59149999D01*
X153219844Y-59109492D01*
X153219846Y-59109491D01*
X153285728Y-59067149D01*
X153081869Y-58863290D01*
X153054092Y-58808773D01*
X153063663Y-58748341D01*
X153071779Y-58735098D01*
X153072969Y-58733460D01*
X153122467Y-58697494D01*
X153183653Y-58697492D01*
X153223067Y-58721645D01*
X153430109Y-58928687D01*
X153434950Y-58923102D01*
X153434951Y-58923100D01*
X153494680Y-58792314D01*
X153515142Y-58650002D01*
X153515142Y-58649997D01*
X153501622Y-58555965D01*
X153512055Y-58495676D01*
X153555933Y-58453034D01*
X153616495Y-58444326D01*
X153627506Y-58446886D01*
X153638109Y-58449999D01*
X153638112Y-58450000D01*
X153781888Y-58450000D01*
X153781890Y-58449999D01*
X153919844Y-58409492D01*
X153919846Y-58409491D01*
X153985728Y-58367149D01*
X153781869Y-58163290D01*
X153754092Y-58108773D01*
X153763663Y-58048341D01*
X153771779Y-58035098D01*
X153772946Y-58033492D01*
X153772969Y-58033459D01*
X153822467Y-57997494D01*
X153883653Y-57997492D01*
X153923067Y-58021645D01*
X154130109Y-58228687D01*
X154134950Y-58223102D01*
X154134951Y-58223100D01*
X154194680Y-58092314D01*
X154215142Y-57950002D01*
X154215142Y-57949997D01*
X154194680Y-57807685D01*
X154134951Y-57676899D01*
X154130109Y-57671311D01*
X154130108Y-57671310D01*
X153923065Y-57878354D01*
X153868549Y-57906131D01*
X153808117Y-57896560D01*
X153772968Y-57866538D01*
X153771778Y-57864900D01*
X153752872Y-57806709D01*
X153771781Y-57748519D01*
X153781869Y-57736708D01*
X153985728Y-57532849D01*
X153919844Y-57490507D01*
X153781890Y-57450000D01*
X153638112Y-57450000D01*
X153638104Y-57450001D01*
X153627501Y-57453114D01*
X153566341Y-57451364D01*
X153517890Y-57413999D01*
X153500654Y-57355292D01*
X153501622Y-57344033D01*
X153515142Y-57250001D01*
X153515142Y-57249997D01*
X153501622Y-57155965D01*
X153512055Y-57095676D01*
X153555933Y-57053034D01*
X153616495Y-57044326D01*
X153627506Y-57046886D01*
X153638109Y-57049999D01*
X153638112Y-57050000D01*
X153781888Y-57050000D01*
X153781890Y-57049999D01*
X153919844Y-57009492D01*
X153919846Y-57009491D01*
X153985728Y-56967149D01*
X153781869Y-56763290D01*
X153754092Y-56708773D01*
X153763663Y-56648341D01*
X153771755Y-56635130D01*
X153771801Y-56635065D01*
X153771803Y-56635065D01*
X153772947Y-56633489D01*
X153822429Y-56597507D01*
X153883614Y-56597480D01*
X153923066Y-56621644D01*
X154130109Y-56828687D01*
X154134950Y-56823102D01*
X154134951Y-56823100D01*
X154194680Y-56692314D01*
X154215142Y-56550002D01*
X154215142Y-56549997D01*
X154194680Y-56407685D01*
X154134951Y-56276899D01*
X154130109Y-56271311D01*
X154130108Y-56271310D01*
X153923065Y-56478354D01*
X153868549Y-56506131D01*
X153808117Y-56496560D01*
X153772968Y-56466538D01*
X153771778Y-56464900D01*
X153752872Y-56406709D01*
X153771781Y-56348519D01*
X153781869Y-56336708D01*
X153985728Y-56132849D01*
X153919844Y-56090507D01*
X153781890Y-56050000D01*
X153638112Y-56050000D01*
X153638104Y-56050001D01*
X153627501Y-56053114D01*
X153566341Y-56051364D01*
X153517890Y-56013999D01*
X153500654Y-55955292D01*
X153501622Y-55944033D01*
X153515142Y-55850001D01*
X153515142Y-55849997D01*
X153494680Y-55707685D01*
X153434951Y-55576899D01*
X153430109Y-55571311D01*
X153430108Y-55571310D01*
X153223065Y-55778354D01*
X153168549Y-55806131D01*
X153108117Y-55796560D01*
X153072968Y-55766538D01*
X153071778Y-55764900D01*
X153052872Y-55706709D01*
X153071781Y-55648519D01*
X153081869Y-55636708D01*
X153285728Y-55432849D01*
X153219844Y-55390507D01*
X153081890Y-55350000D01*
X152938109Y-55350000D01*
X152800156Y-55390507D01*
X152800151Y-55390509D01*
X152734270Y-55432848D01*
X152938131Y-55636709D01*
X152965908Y-55691226D01*
X152956337Y-55751658D01*
X152948221Y-55764901D01*
X152947031Y-55766539D01*
X152897533Y-55802505D01*
X152836347Y-55802507D01*
X152796933Y-55778355D01*
X152589889Y-55571311D01*
X152585048Y-55576899D01*
X152585046Y-55576902D01*
X152525319Y-55707685D01*
X152504858Y-55849997D01*
X152504858Y-55850003D01*
X152518377Y-55944034D01*
X152507944Y-56004324D01*
X152464065Y-56046966D01*
X152403503Y-56055673D01*
X152392496Y-56053114D01*
X152381891Y-56050000D01*
X152238112Y-56050000D01*
X152238104Y-56050001D01*
X152227501Y-56053114D01*
X152166341Y-56051364D01*
X152117890Y-56013999D01*
X152100654Y-55955292D01*
X152101622Y-55944033D01*
X152115142Y-55850001D01*
X152115142Y-55849997D01*
X152094680Y-55707685D01*
X152034951Y-55576899D01*
X152030109Y-55571311D01*
X152030108Y-55571310D01*
X151823065Y-55778354D01*
X151768549Y-55806131D01*
X151708117Y-55796560D01*
X151672968Y-55766538D01*
X151671778Y-55764900D01*
X151652872Y-55706709D01*
X151671781Y-55648519D01*
X151681869Y-55636708D01*
X151885728Y-55432849D01*
X151819844Y-55390507D01*
X151681890Y-55350000D01*
X151538109Y-55350000D01*
X151400156Y-55390507D01*
X151400151Y-55390509D01*
X151334269Y-55432848D01*
X151538130Y-55636708D01*
X151565908Y-55691225D01*
X151556337Y-55751657D01*
X151548238Y-55764877D01*
X151547048Y-55766516D01*
X151497560Y-55802496D01*
X151436375Y-55802515D01*
X151396933Y-55778355D01*
X151189889Y-55571311D01*
X151185048Y-55576899D01*
X151185046Y-55576902D01*
X151125319Y-55707685D01*
X151104858Y-55849997D01*
X151104858Y-55850003D01*
X151118377Y-55944034D01*
X151107944Y-56004324D01*
X151064065Y-56046966D01*
X151003503Y-56055673D01*
X150992496Y-56053114D01*
X150981891Y-56050000D01*
X150838109Y-56050000D01*
X150700156Y-56090507D01*
X150700151Y-56090509D01*
X150634269Y-56132848D01*
X150838130Y-56336708D01*
X150865908Y-56391225D01*
X150856337Y-56451657D01*
X150848221Y-56464900D01*
X150847031Y-56466538D01*
X150797533Y-56502504D01*
X150736347Y-56502506D01*
X150696934Y-56478354D01*
X150489890Y-56271310D01*
X150485048Y-56276899D01*
X150485046Y-56276902D01*
X150425319Y-56407685D01*
X150404858Y-56549997D01*
X150404858Y-56550002D01*
X150425319Y-56692314D01*
X150485048Y-56823100D01*
X150489889Y-56828688D01*
X150696932Y-56621645D01*
X150751449Y-56593867D01*
X150811881Y-56603438D01*
X150847030Y-56633460D01*
X150848220Y-56635098D01*
X150867126Y-56693289D01*
X150848217Y-56751479D01*
X150838130Y-56763290D01*
X150634270Y-56967149D01*
X150700155Y-57009492D01*
X150838109Y-57049999D01*
X150838112Y-57050000D01*
X150981888Y-57050000D01*
X150981892Y-57049999D01*
X150992491Y-57046887D01*
X151053651Y-57048633D01*
X151102105Y-57085994D01*
X151119345Y-57144701D01*
X151118377Y-57155964D01*
X151104858Y-57249995D01*
X151104858Y-57250003D01*
X151118377Y-57344034D01*
X151107944Y-57404324D01*
X151064065Y-57446966D01*
X151003503Y-57455673D01*
X150992496Y-57453114D01*
X150981891Y-57450000D01*
X150838109Y-57450000D01*
X150700156Y-57490507D01*
X150700151Y-57490509D01*
X150634270Y-57532848D01*
X150838131Y-57736709D01*
X150865908Y-57791226D01*
X150856337Y-57851658D01*
X150848221Y-57864901D01*
X150847031Y-57866539D01*
X150797533Y-57902505D01*
X150736347Y-57902507D01*
X150696933Y-57878355D01*
X150489889Y-57671311D01*
X150485048Y-57676899D01*
X150485046Y-57676902D01*
X150425319Y-57807685D01*
X150404858Y-57949997D01*
X150404858Y-57950002D01*
X148767842Y-57950002D01*
X146583496Y-55765655D01*
X146555719Y-55711138D01*
X146554500Y-55695651D01*
X146554500Y-52426899D01*
X146573407Y-52368708D01*
X146583490Y-52356901D01*
X146632050Y-52308342D01*
X146689646Y-52195304D01*
X146709492Y-52070000D01*
X146689646Y-51944696D01*
X146632050Y-51831658D01*
X146542342Y-51741950D01*
X146538406Y-51739944D01*
X146429307Y-51684355D01*
X146429304Y-51684354D01*
X146336781Y-51669700D01*
X165320000Y-51669700D01*
X165331603Y-51728036D01*
X165375806Y-51794189D01*
X165375810Y-51794193D01*
X165441963Y-51838396D01*
X165500299Y-51849999D01*
X165500303Y-51850000D01*
X166269999Y-51850000D01*
X166269999Y-51849999D01*
X166270000Y-51399000D01*
X166288907Y-51340809D01*
X166338407Y-51304845D01*
X166369000Y-51300000D01*
X166371000Y-51300000D01*
X166429191Y-51318907D01*
X166465155Y-51368407D01*
X166470000Y-51399000D01*
X166470000Y-51849999D01*
X166470001Y-51850000D01*
X167239697Y-51850000D01*
X167239700Y-51849999D01*
X167298036Y-51838396D01*
X167364189Y-51794193D01*
X167364193Y-51794189D01*
X167408396Y-51728036D01*
X167419999Y-51669700D01*
X167420000Y-51669697D01*
X167420000Y-50900001D01*
X167419999Y-50900000D01*
X166969000Y-50900000D01*
X166910809Y-50881093D01*
X166874845Y-50831593D01*
X166870000Y-50801000D01*
X166870000Y-50799000D01*
X166888907Y-50740809D01*
X166938407Y-50704845D01*
X166969000Y-50700000D01*
X167419999Y-50700000D01*
X167420000Y-50699998D01*
X167420000Y-49930302D01*
X167419999Y-49930299D01*
X167408396Y-49871963D01*
X167364193Y-49805810D01*
X167364189Y-49805806D01*
X167298036Y-49761603D01*
X167239700Y-49750000D01*
X166470000Y-49750000D01*
X166470000Y-50201000D01*
X166451093Y-50259191D01*
X166401593Y-50295155D01*
X166371000Y-50300000D01*
X166369000Y-50300000D01*
X166310809Y-50281093D01*
X166274845Y-50231593D01*
X166270000Y-50201000D01*
X166269999Y-49750000D01*
X165500299Y-49750000D01*
X165441963Y-49761603D01*
X165375810Y-49805806D01*
X165375806Y-49805810D01*
X165331603Y-49871963D01*
X165320000Y-49930299D01*
X165320000Y-50699998D01*
X165320001Y-50700000D01*
X165771000Y-50700000D01*
X165829191Y-50718907D01*
X165865155Y-50768407D01*
X165870000Y-50799000D01*
X165870000Y-50801000D01*
X165851093Y-50859191D01*
X165801593Y-50895155D01*
X165771000Y-50900000D01*
X165320001Y-50900000D01*
X165320000Y-50900001D01*
X165320000Y-51669700D01*
X146336781Y-51669700D01*
X146304000Y-51664508D01*
X146178696Y-51684354D01*
X146178692Y-51684355D01*
X146065659Y-51741949D01*
X145975949Y-51831659D01*
X145918355Y-51944692D01*
X145918354Y-51944696D01*
X145898508Y-52069999D01*
X145898508Y-52070000D01*
X145918354Y-52195303D01*
X145918354Y-52195305D01*
X145975951Y-52308344D01*
X146024502Y-52356893D01*
X146052281Y-52411409D01*
X146053500Y-52426898D01*
X146053500Y-55459099D01*
X146034593Y-55517290D01*
X145985093Y-55553254D01*
X145923907Y-55553254D01*
X145884496Y-55529103D01*
X144637342Y-54281949D01*
X143389909Y-53034516D01*
X143389905Y-53034513D01*
X143387424Y-53032032D01*
X143387424Y-53032031D01*
X143367343Y-53011951D01*
X143367342Y-53011950D01*
X143345847Y-53000997D01*
X143332608Y-52992884D01*
X143326581Y-52988505D01*
X143313090Y-52978704D01*
X143313088Y-52978703D01*
X143290142Y-52971247D01*
X143275788Y-52965301D01*
X143254306Y-52954354D01*
X143230474Y-52950579D01*
X143215374Y-52946953D01*
X143192437Y-52939500D01*
X143192433Y-52939500D01*
X143160519Y-52939500D01*
X141949721Y-52939500D01*
X141891530Y-52920593D01*
X141862412Y-52887170D01*
X141805910Y-52781462D01*
X141780904Y-52750992D01*
X141680887Y-52629121D01*
X141680878Y-52629112D01*
X141528542Y-52504093D01*
X141528540Y-52504092D01*
X141528538Y-52504090D01*
X141487618Y-52482218D01*
X141354732Y-52411188D01*
X141354730Y-52411187D01*
X141166129Y-52353975D01*
X141166126Y-52353974D01*
X140970003Y-52334659D01*
X140969997Y-52334659D01*
X140773873Y-52353974D01*
X140773870Y-52353975D01*
X140585269Y-52411187D01*
X140585267Y-52411188D01*
X140411467Y-52504087D01*
X140411457Y-52504093D01*
X140259121Y-52629112D01*
X140259112Y-52629121D01*
X140134093Y-52781457D01*
X140134087Y-52781467D01*
X140041188Y-52955267D01*
X140041187Y-52955269D01*
X139983975Y-53143870D01*
X139983974Y-53143873D01*
X139964659Y-53339996D01*
X139964659Y-53340003D01*
X139983974Y-53536126D01*
X139983975Y-53536129D01*
X140041187Y-53724730D01*
X140041188Y-53724732D01*
X140077589Y-53792832D01*
X140134090Y-53898538D01*
X140134092Y-53898540D01*
X140134093Y-53898542D01*
X140259112Y-54050878D01*
X140259121Y-54050887D01*
X140411457Y-54175906D01*
X140411462Y-54175910D01*
X140585273Y-54268814D01*
X140773868Y-54326024D01*
X140773870Y-54326024D01*
X140773873Y-54326025D01*
X140969997Y-54345341D01*
X140970000Y-54345341D01*
X140970003Y-54345341D01*
X141166126Y-54326025D01*
X141166127Y-54326024D01*
X141166132Y-54326024D01*
X141354727Y-54268814D01*
X141528538Y-54175910D01*
X141680883Y-54050883D01*
X141805910Y-53898538D01*
X141862412Y-53792830D01*
X141906516Y-53750425D01*
X141949721Y-53740500D01*
X142922099Y-53740500D01*
X142980290Y-53759407D01*
X142992103Y-53769496D01*
X149430504Y-60207896D01*
X149458281Y-60262413D01*
X149459500Y-60277900D01*
X149459500Y-63716244D01*
X149440593Y-63774435D01*
X149391093Y-63810399D01*
X149329907Y-63810399D01*
X149300232Y-63794786D01*
X149284105Y-63782411D01*
X149284101Y-63782409D01*
X149150189Y-63726942D01*
X149150188Y-63726941D01*
X149006480Y-63708022D01*
X149006478Y-63708022D01*
X149000224Y-63708845D01*
X148940064Y-63697691D01*
X148897950Y-63653306D01*
X148889155Y-63597768D01*
X148889978Y-63591520D01*
X148871058Y-63447811D01*
X148815589Y-63313895D01*
X148727349Y-63198899D01*
X148612353Y-63110659D01*
X148612349Y-63110657D01*
X148478437Y-63055190D01*
X148478436Y-63055189D01*
X148334728Y-63036270D01*
X148191019Y-63055189D01*
X148191018Y-63055190D01*
X148057106Y-63110657D01*
X148057102Y-63110659D01*
X147942109Y-63198897D01*
X147942107Y-63198899D01*
X147861558Y-63303873D01*
X147849918Y-63319042D01*
X147849900Y-63319028D01*
X147838219Y-63334250D01*
X147726519Y-63445952D01*
X147679636Y-63489738D01*
X147657090Y-63526813D01*
X147654238Y-63531003D01*
X147628018Y-63565581D01*
X147628014Y-63565589D01*
X147620981Y-63583423D01*
X147613475Y-63598536D01*
X147603510Y-63614923D01*
X147603507Y-63614930D01*
X147591800Y-63656712D01*
X147590184Y-63661518D01*
X147574267Y-63701880D01*
X147574264Y-63701892D01*
X147572303Y-63720966D01*
X147569154Y-63737537D01*
X147563980Y-63756009D01*
X147563980Y-63756011D01*
X147563980Y-63799405D01*
X147563720Y-63804471D01*
X147559282Y-63847635D01*
X147562540Y-63866525D01*
X147563980Y-63883348D01*
X147563980Y-64676457D01*
X147578920Y-64785155D01*
X147578920Y-64785156D01*
X147591303Y-64813663D01*
X147599500Y-64853106D01*
X147599500Y-76594967D01*
X147580593Y-76653158D01*
X147531093Y-76689122D01*
X147469907Y-76689122D01*
X147455556Y-76683177D01*
X147445308Y-76677955D01*
X147445304Y-76677954D01*
X147320000Y-76658108D01*
X147194696Y-76677954D01*
X147194692Y-76677955D01*
X147081659Y-76735549D01*
X146991949Y-76825259D01*
X146934355Y-76938292D01*
X146934354Y-76938296D01*
X146914508Y-77063598D01*
X146914508Y-77071390D01*
X146911506Y-77071390D01*
X146904037Y-77118460D01*
X146885844Y-77143493D01*
X146432437Y-77596903D01*
X146377920Y-77624681D01*
X146362433Y-77625900D01*
X145480299Y-77625900D01*
X145422108Y-77606993D01*
X145386144Y-77557493D01*
X145386144Y-77496307D01*
X145410293Y-77456898D01*
X145463650Y-77403542D01*
X145521246Y-77290504D01*
X145541092Y-77165200D01*
X145539091Y-77152569D01*
X145535329Y-77128812D01*
X145521246Y-77039896D01*
X145463650Y-76926858D01*
X145373942Y-76837150D01*
X145345681Y-76822750D01*
X145260907Y-76779555D01*
X145260904Y-76779554D01*
X145179822Y-76766712D01*
X145135601Y-76759708D01*
X145127810Y-76759708D01*
X145127810Y-76756707D01*
X145080733Y-76749234D01*
X145055705Y-76731044D01*
X144703896Y-76379235D01*
X144676119Y-76324718D01*
X144674900Y-76309231D01*
X144674900Y-72636366D01*
X144693807Y-72578175D01*
X144703890Y-72566368D01*
X144876937Y-72393321D01*
X144931452Y-72365546D01*
X144991884Y-72375117D01*
X145035149Y-72418382D01*
X145044720Y-72478814D01*
X145035149Y-72508272D01*
X145003954Y-72569494D01*
X145003954Y-72569496D01*
X144984108Y-72694800D01*
X144990357Y-72734258D01*
X145003954Y-72820103D01*
X145003955Y-72820107D01*
X145024058Y-72859561D01*
X145061550Y-72933142D01*
X145151258Y-73022850D01*
X145264296Y-73080446D01*
X145372466Y-73097578D01*
X145389599Y-73100292D01*
X145389599Y-73100291D01*
X145389600Y-73100292D01*
X145514904Y-73080446D01*
X145627942Y-73022850D01*
X145717650Y-72933142D01*
X145775246Y-72820104D01*
X145795092Y-72694800D01*
X145775246Y-72569496D01*
X145717650Y-72456458D01*
X145707104Y-72445912D01*
X145669096Y-72407903D01*
X145641319Y-72353386D01*
X145640100Y-72337900D01*
X145640100Y-69782825D01*
X145642002Y-69763511D01*
X145643366Y-69756652D01*
X145645008Y-69748400D01*
X145625566Y-69650659D01*
X145625563Y-69650655D01*
X145625563Y-69650653D01*
X145605658Y-69620864D01*
X145578361Y-69580012D01*
X145570201Y-69567799D01*
X145567546Y-69566025D01*
X145557389Y-69559238D01*
X145542387Y-69546927D01*
X144422672Y-68427212D01*
X144410360Y-68412209D01*
X144401802Y-68399401D01*
X144401801Y-68399399D01*
X144335740Y-68355259D01*
X144318942Y-68344034D01*
X144245874Y-68329500D01*
X144221200Y-68324592D01*
X144221199Y-68324592D01*
X144206087Y-68327598D01*
X144186774Y-68329500D01*
X142012955Y-68329500D01*
X141954764Y-68310593D01*
X141918800Y-68261093D01*
X141918218Y-68259239D01*
X141898814Y-68195273D01*
X141805910Y-68021462D01*
X141794041Y-68007000D01*
X141680887Y-67869121D01*
X141680878Y-67869112D01*
X141528542Y-67744093D01*
X141528540Y-67744092D01*
X141528538Y-67744090D01*
X141466758Y-67711068D01*
X141354732Y-67651188D01*
X141354730Y-67651187D01*
X141166129Y-67593975D01*
X141166126Y-67593974D01*
X140970003Y-67574659D01*
X140969997Y-67574659D01*
X140773873Y-67593974D01*
X140773870Y-67593975D01*
X140585269Y-67651187D01*
X140585267Y-67651188D01*
X140411467Y-67744087D01*
X140411457Y-67744093D01*
X140259121Y-67869112D01*
X140259112Y-67869121D01*
X140134093Y-68021457D01*
X140134087Y-68021467D01*
X140041188Y-68195267D01*
X140041187Y-68195269D01*
X139983975Y-68383870D01*
X139983974Y-68383873D01*
X139964659Y-68579996D01*
X139964659Y-68580003D01*
X139983974Y-68776126D01*
X139983975Y-68776129D01*
X140041187Y-68964730D01*
X140041188Y-68964732D01*
X140041190Y-68964735D01*
X140134090Y-69138538D01*
X140134092Y-69138540D01*
X140134093Y-69138542D01*
X140259112Y-69290878D01*
X140259121Y-69290887D01*
X140411457Y-69415906D01*
X140411462Y-69415910D01*
X140585273Y-69508814D01*
X140773868Y-69566024D01*
X140773870Y-69566024D01*
X140773873Y-69566025D01*
X140969997Y-69585341D01*
X140970000Y-69585341D01*
X140970003Y-69585341D01*
X141166126Y-69566025D01*
X141166127Y-69566024D01*
X141166132Y-69566024D01*
X141354727Y-69508814D01*
X141528538Y-69415910D01*
X141680883Y-69290883D01*
X141805910Y-69138538D01*
X141898814Y-68964727D01*
X141918218Y-68900760D01*
X141953203Y-68850565D01*
X142011012Y-68830519D01*
X142012955Y-68830500D01*
X144076432Y-68830500D01*
X144134623Y-68849407D01*
X144146435Y-68859496D01*
X144991823Y-69704883D01*
X145065232Y-69778292D01*
X145110103Y-69823162D01*
X145137881Y-69877679D01*
X145139100Y-69893166D01*
X145139100Y-70524582D01*
X145120193Y-70582773D01*
X145070693Y-70618737D01*
X145009507Y-70618737D01*
X144968932Y-70589258D01*
X144967496Y-70590695D01*
X144960603Y-70583802D01*
X144960601Y-70583799D01*
X144959065Y-70582773D01*
X144947792Y-70575240D01*
X144932790Y-70562929D01*
X144270272Y-69900412D01*
X144257960Y-69885409D01*
X144249399Y-69872596D01*
X144186089Y-69830296D01*
X144183675Y-69828683D01*
X144166541Y-69817234D01*
X144068800Y-69797792D01*
X144068799Y-69797792D01*
X144053687Y-69800798D01*
X144034374Y-69802700D01*
X142071226Y-69802700D01*
X142051913Y-69800798D01*
X142036800Y-69797792D01*
X141939058Y-69817234D01*
X141921925Y-69828683D01*
X141856201Y-69872597D01*
X141856196Y-69872602D01*
X141847638Y-69885410D01*
X141835329Y-69900409D01*
X141530349Y-70205389D01*
X141475832Y-70233166D01*
X141415400Y-70223595D01*
X141413677Y-70222695D01*
X141354732Y-70191188D01*
X141354730Y-70191187D01*
X141166129Y-70133975D01*
X141166126Y-70133974D01*
X140970003Y-70114659D01*
X140969997Y-70114659D01*
X140773873Y-70133974D01*
X140773870Y-70133975D01*
X140585269Y-70191187D01*
X140585267Y-70191188D01*
X140411467Y-70284087D01*
X140411457Y-70284093D01*
X140259121Y-70409112D01*
X140259112Y-70409121D01*
X140134093Y-70561457D01*
X140134087Y-70561467D01*
X140041188Y-70735267D01*
X140041187Y-70735269D01*
X139983975Y-70923870D01*
X139983974Y-70923873D01*
X139964659Y-71119996D01*
X139964659Y-71120003D01*
X139983974Y-71316126D01*
X139983975Y-71316129D01*
X139983976Y-71316132D01*
X140036021Y-71487702D01*
X140041187Y-71504730D01*
X140041188Y-71504732D01*
X140112218Y-71637618D01*
X140134090Y-71678538D01*
X140134092Y-71678540D01*
X140134093Y-71678542D01*
X140259112Y-71830878D01*
X140259121Y-71830887D01*
X140411457Y-71955906D01*
X140411462Y-71955910D01*
X140585273Y-72048814D01*
X140773868Y-72106024D01*
X140773870Y-72106024D01*
X140773873Y-72106025D01*
X140969997Y-72125341D01*
X140970000Y-72125341D01*
X140970003Y-72125341D01*
X141166126Y-72106025D01*
X141166127Y-72106024D01*
X141166132Y-72106024D01*
X141354727Y-72048814D01*
X141528538Y-71955910D01*
X141680883Y-71830883D01*
X141805910Y-71678538D01*
X141898814Y-71504727D01*
X141956024Y-71316132D01*
X141956253Y-71313813D01*
X141975341Y-71120003D01*
X141975341Y-71119996D01*
X141956025Y-70923873D01*
X141956024Y-70923870D01*
X141956024Y-70923868D01*
X141898814Y-70735273D01*
X141867302Y-70676319D01*
X141856547Y-70616088D01*
X141883248Y-70561037D01*
X141884551Y-70559708D01*
X142111563Y-70332696D01*
X142166080Y-70304919D01*
X142181567Y-70303700D01*
X142520126Y-70303700D01*
X143924032Y-70303700D01*
X143982223Y-70322607D01*
X143994036Y-70332696D01*
X144500504Y-70839164D01*
X144528281Y-70893681D01*
X144529500Y-70909168D01*
X144529500Y-70969160D01*
X144510593Y-71027351D01*
X144461093Y-71063315D01*
X144399907Y-71063315D01*
X144385555Y-71057370D01*
X144349804Y-71039154D01*
X144224500Y-71019308D01*
X144099196Y-71039154D01*
X144099192Y-71039155D01*
X143986159Y-71096749D01*
X143896449Y-71186459D01*
X143838855Y-71299492D01*
X143838854Y-71299496D01*
X143819008Y-71424798D01*
X143819008Y-71432590D01*
X143816004Y-71432590D01*
X143808540Y-71479652D01*
X143790344Y-71504693D01*
X143255609Y-72039429D01*
X143240610Y-72051738D01*
X143227802Y-72060296D01*
X143227797Y-72060301D01*
X143197247Y-72106024D01*
X143172435Y-72143155D01*
X143172435Y-72143157D01*
X143172434Y-72143159D01*
X143154416Y-72233741D01*
X143152992Y-72240900D01*
X143155998Y-72256011D01*
X143157900Y-72275325D01*
X143157900Y-76114774D01*
X143155997Y-76134087D01*
X143152992Y-76149200D01*
X143172434Y-76246941D01*
X143185475Y-76266458D01*
X143227799Y-76329801D01*
X143240609Y-76338360D01*
X143255612Y-76350672D01*
X143329844Y-76424904D01*
X143357621Y-76479421D01*
X143357625Y-76497010D01*
X143358508Y-76497010D01*
X143358508Y-76504801D01*
X143378354Y-76630103D01*
X143378355Y-76630107D01*
X143408425Y-76689122D01*
X143435950Y-76743142D01*
X143525658Y-76832850D01*
X143638696Y-76890446D01*
X143746866Y-76907578D01*
X143763999Y-76910292D01*
X143763999Y-76910291D01*
X143764000Y-76910292D01*
X143889304Y-76890446D01*
X144002342Y-76832850D01*
X144092050Y-76743142D01*
X144120391Y-76687518D01*
X144163653Y-76644257D01*
X144224085Y-76634685D01*
X144278602Y-76662462D01*
X144278603Y-76662463D01*
X144701444Y-77085305D01*
X144729221Y-77139821D01*
X144729225Y-77157410D01*
X144730108Y-77157410D01*
X144730108Y-77165201D01*
X144749954Y-77290503D01*
X144749955Y-77290507D01*
X144796519Y-77381892D01*
X144807550Y-77403542D01*
X144860906Y-77456898D01*
X144888682Y-77511413D01*
X144879111Y-77571845D01*
X144835846Y-77615110D01*
X144790901Y-77625900D01*
X142943568Y-77625900D01*
X142885377Y-77606993D01*
X142873564Y-77596904D01*
X142695472Y-77418812D01*
X142683160Y-77403809D01*
X142674602Y-77391001D01*
X142674601Y-77390999D01*
X142674597Y-77390996D01*
X142621536Y-77355541D01*
X142591741Y-77335633D01*
X142504914Y-77318363D01*
X142494000Y-77316192D01*
X142493999Y-77316192D01*
X142478887Y-77319198D01*
X142459574Y-77321100D01*
X141388213Y-77321100D01*
X141330022Y-77302193D01*
X141294058Y-77252693D01*
X141294058Y-77191507D01*
X141330022Y-77142007D01*
X141350333Y-77130634D01*
X141354721Y-77128815D01*
X141354727Y-77128814D01*
X141528538Y-77035910D01*
X141680883Y-76910883D01*
X141805910Y-76758538D01*
X141898814Y-76584727D01*
X141956024Y-76396132D01*
X141957663Y-76379496D01*
X141975341Y-76200003D01*
X141975341Y-76199996D01*
X141956025Y-76003873D01*
X141956024Y-76003870D01*
X141956024Y-76003868D01*
X141898814Y-75815273D01*
X141805910Y-75641462D01*
X141723059Y-75540508D01*
X141680887Y-75489121D01*
X141680878Y-75489112D01*
X141528542Y-75364093D01*
X141528540Y-75364092D01*
X141528538Y-75364090D01*
X141487618Y-75342218D01*
X141354732Y-75271188D01*
X141354730Y-75271187D01*
X141166129Y-75213975D01*
X141166126Y-75213974D01*
X140970003Y-75194659D01*
X140969997Y-75194659D01*
X140773873Y-75213974D01*
X140773870Y-75213975D01*
X140585269Y-75271187D01*
X140585267Y-75271188D01*
X140411467Y-75364087D01*
X140411457Y-75364093D01*
X140259121Y-75489112D01*
X140259112Y-75489121D01*
X140134093Y-75641457D01*
X140134087Y-75641467D01*
X140041188Y-75815267D01*
X140041187Y-75815269D01*
X139983975Y-76003870D01*
X139983974Y-76003873D01*
X139964659Y-76199996D01*
X139964659Y-76200003D01*
X139983974Y-76396126D01*
X139983975Y-76396129D01*
X140041187Y-76584730D01*
X140041188Y-76584732D01*
X140096986Y-76689122D01*
X140134090Y-76758538D01*
X140134092Y-76758540D01*
X140134093Y-76758542D01*
X140259112Y-76910878D01*
X140259121Y-76910887D01*
X140406589Y-77031911D01*
X140411462Y-77035910D01*
X140546007Y-77107826D01*
X140585271Y-77128813D01*
X140589667Y-77130634D01*
X140636195Y-77170368D01*
X140650482Y-77229862D01*
X140627071Y-77286391D01*
X140574904Y-77318363D01*
X140551787Y-77321100D01*
X140249900Y-77321100D01*
X140191709Y-77302193D01*
X140179897Y-77292104D01*
X140131343Y-77243551D01*
X140131342Y-77243550D01*
X140056353Y-77205341D01*
X140018307Y-77185955D01*
X140018304Y-77185954D01*
X139893000Y-77166108D01*
X139767696Y-77185954D01*
X139767692Y-77185955D01*
X139654659Y-77243549D01*
X139564949Y-77333259D01*
X139507355Y-77446292D01*
X139507354Y-77446296D01*
X139487508Y-77571599D01*
X139487508Y-77571600D01*
X138430500Y-77571600D01*
X138430500Y-73660003D01*
X139964659Y-73660003D01*
X139983974Y-73856126D01*
X139983975Y-73856129D01*
X140041187Y-74044730D01*
X140041188Y-74044732D01*
X140098706Y-74152340D01*
X140134090Y-74218538D01*
X140134092Y-74218540D01*
X140134093Y-74218542D01*
X140259112Y-74370878D01*
X140259121Y-74370887D01*
X140344034Y-74440573D01*
X140411462Y-74495910D01*
X140585273Y-74588814D01*
X140773868Y-74646024D01*
X140773870Y-74646024D01*
X140773873Y-74646025D01*
X140969997Y-74665341D01*
X140970000Y-74665341D01*
X140970003Y-74665341D01*
X141166126Y-74646025D01*
X141166127Y-74646024D01*
X141166132Y-74646024D01*
X141354727Y-74588814D01*
X141528538Y-74495910D01*
X141680883Y-74370883D01*
X141805910Y-74218538D01*
X141898814Y-74044727D01*
X141956024Y-73856132D01*
X141960604Y-73809637D01*
X141975341Y-73660003D01*
X141975341Y-73659996D01*
X141956025Y-73463873D01*
X141956024Y-73463870D01*
X141956024Y-73463868D01*
X141898814Y-73275273D01*
X141805910Y-73101462D01*
X141788661Y-73080444D01*
X141680887Y-72949121D01*
X141680878Y-72949112D01*
X141528542Y-72824093D01*
X141528540Y-72824092D01*
X141528538Y-72824090D01*
X141487618Y-72802218D01*
X141354732Y-72731188D01*
X141354730Y-72731187D01*
X141166129Y-72673975D01*
X141166126Y-72673974D01*
X140970003Y-72654659D01*
X140969997Y-72654659D01*
X140773873Y-72673974D01*
X140773870Y-72673975D01*
X140585269Y-72731187D01*
X140585267Y-72731188D01*
X140411467Y-72824087D01*
X140411457Y-72824093D01*
X140259121Y-72949112D01*
X140259112Y-72949121D01*
X140134093Y-73101457D01*
X140134087Y-73101467D01*
X140041188Y-73275267D01*
X140041187Y-73275269D01*
X139983975Y-73463870D01*
X139983974Y-73463873D01*
X139964659Y-73659996D01*
X139964659Y-73660003D01*
X138430500Y-73660003D01*
X138430500Y-66040003D01*
X139964659Y-66040003D01*
X139983974Y-66236126D01*
X139983975Y-66236129D01*
X139996780Y-66278340D01*
X140028046Y-66381412D01*
X140041187Y-66424730D01*
X140041188Y-66424732D01*
X140112218Y-66557618D01*
X140134090Y-66598538D01*
X140134092Y-66598540D01*
X140134093Y-66598542D01*
X140259112Y-66750878D01*
X140259121Y-66750887D01*
X140411457Y-66875906D01*
X140411462Y-66875910D01*
X140531779Y-66940221D01*
X140549668Y-66949783D01*
X140585273Y-66968814D01*
X140773868Y-67026024D01*
X140773870Y-67026024D01*
X140773873Y-67026025D01*
X140969997Y-67045341D01*
X140970000Y-67045341D01*
X140970003Y-67045341D01*
X141166126Y-67026025D01*
X141166127Y-67026024D01*
X141166132Y-67026024D01*
X141354727Y-66968814D01*
X141528538Y-66875910D01*
X141680883Y-66750883D01*
X141805910Y-66598538D01*
X141898814Y-66424727D01*
X141956024Y-66236132D01*
X141956210Y-66234251D01*
X141975341Y-66040003D01*
X141975341Y-66039996D01*
X141956025Y-65843873D01*
X141956024Y-65843870D01*
X141956024Y-65843868D01*
X141898814Y-65655273D01*
X141898323Y-65654355D01*
X141848448Y-65561045D01*
X141805910Y-65481462D01*
X141718542Y-65375004D01*
X141680887Y-65329121D01*
X141680878Y-65329112D01*
X141528542Y-65204093D01*
X141528540Y-65204092D01*
X141528538Y-65204090D01*
X141475035Y-65175492D01*
X141354732Y-65111188D01*
X141354730Y-65111187D01*
X141166129Y-65053975D01*
X141166126Y-65053974D01*
X140970003Y-65034659D01*
X140969997Y-65034659D01*
X140773873Y-65053974D01*
X140773870Y-65053975D01*
X140585269Y-65111187D01*
X140585267Y-65111188D01*
X140411467Y-65204087D01*
X140411457Y-65204093D01*
X140259121Y-65329112D01*
X140259112Y-65329121D01*
X140134093Y-65481457D01*
X140134087Y-65481467D01*
X140041188Y-65655267D01*
X140041187Y-65655269D01*
X139983975Y-65843870D01*
X139983974Y-65843873D01*
X139964659Y-66039996D01*
X139964659Y-66040003D01*
X138430500Y-66040003D01*
X138430500Y-63500003D01*
X139964659Y-63500003D01*
X139983974Y-63696126D01*
X139983975Y-63696129D01*
X139983976Y-63696132D01*
X140035664Y-63866525D01*
X140041187Y-63884730D01*
X140041188Y-63884732D01*
X140112218Y-64017618D01*
X140134090Y-64058538D01*
X140134092Y-64058540D01*
X140134093Y-64058542D01*
X140259112Y-64210878D01*
X140259121Y-64210887D01*
X140353627Y-64288446D01*
X140411462Y-64335910D01*
X140585273Y-64428814D01*
X140773868Y-64486024D01*
X140773870Y-64486024D01*
X140773873Y-64486025D01*
X140969997Y-64505341D01*
X140970000Y-64505341D01*
X140970003Y-64505341D01*
X141166126Y-64486025D01*
X141166127Y-64486024D01*
X141166132Y-64486024D01*
X141354727Y-64428814D01*
X141528538Y-64335910D01*
X141680883Y-64210883D01*
X141805910Y-64058538D01*
X141898814Y-63884727D01*
X141956024Y-63696132D01*
X141959434Y-63661518D01*
X141975341Y-63500003D01*
X141975341Y-63499996D01*
X141956025Y-63303873D01*
X141956024Y-63303870D01*
X141956024Y-63303868D01*
X141898814Y-63115273D01*
X141898323Y-63114355D01*
X141847059Y-63018446D01*
X141805910Y-62941462D01*
X141685521Y-62794768D01*
X141680887Y-62789121D01*
X141680878Y-62789112D01*
X141528542Y-62664093D01*
X141528540Y-62664092D01*
X141528538Y-62664090D01*
X141475035Y-62635492D01*
X141354732Y-62571188D01*
X141354730Y-62571187D01*
X141166129Y-62513975D01*
X141166126Y-62513974D01*
X140970003Y-62494659D01*
X140969997Y-62494659D01*
X140773873Y-62513974D01*
X140773870Y-62513975D01*
X140585269Y-62571187D01*
X140585267Y-62571188D01*
X140411467Y-62664087D01*
X140411457Y-62664093D01*
X140259121Y-62789112D01*
X140259112Y-62789121D01*
X140134093Y-62941457D01*
X140134087Y-62941467D01*
X140041188Y-63115267D01*
X140041187Y-63115269D01*
X139983975Y-63303870D01*
X139983974Y-63303873D01*
X139964659Y-63499996D01*
X139964659Y-63500003D01*
X138430500Y-63500003D01*
X138430500Y-60960003D01*
X139964659Y-60960003D01*
X139983974Y-61156126D01*
X139983975Y-61156129D01*
X140041187Y-61344730D01*
X140041188Y-61344732D01*
X140112218Y-61477618D01*
X140134090Y-61518538D01*
X140134092Y-61518540D01*
X140134093Y-61518542D01*
X140259112Y-61670878D01*
X140259121Y-61670887D01*
X140353627Y-61748446D01*
X140411462Y-61795910D01*
X140585273Y-61888814D01*
X140773868Y-61946024D01*
X140773870Y-61946024D01*
X140773873Y-61946025D01*
X140969997Y-61965341D01*
X140970000Y-61965341D01*
X140970003Y-61965341D01*
X141166126Y-61946025D01*
X141166127Y-61946024D01*
X141166132Y-61946024D01*
X141354727Y-61888814D01*
X141528538Y-61795910D01*
X141680883Y-61670883D01*
X141805910Y-61518538D01*
X141898814Y-61344727D01*
X141956024Y-61156132D01*
X141975341Y-60960000D01*
X141975341Y-60959996D01*
X141956025Y-60763873D01*
X141956024Y-60763870D01*
X141956024Y-60763868D01*
X141898814Y-60575273D01*
X141805910Y-60401462D01*
X141691795Y-60262413D01*
X141680887Y-60249121D01*
X141680878Y-60249112D01*
X141528542Y-60124093D01*
X141528540Y-60124092D01*
X141528538Y-60124090D01*
X141487618Y-60102218D01*
X141354732Y-60031188D01*
X141354730Y-60031187D01*
X141166129Y-59973975D01*
X141166126Y-59973974D01*
X140970003Y-59954659D01*
X140969997Y-59954659D01*
X140773873Y-59973974D01*
X140773870Y-59973975D01*
X140585269Y-60031187D01*
X140585267Y-60031188D01*
X140411467Y-60124087D01*
X140411457Y-60124093D01*
X140259121Y-60249112D01*
X140259112Y-60249121D01*
X140134093Y-60401457D01*
X140134087Y-60401467D01*
X140041188Y-60575267D01*
X140041187Y-60575269D01*
X139983975Y-60763870D01*
X139983974Y-60763873D01*
X139964659Y-60959996D01*
X139964659Y-60960003D01*
X138430500Y-60960003D01*
X138430500Y-58420003D01*
X139964659Y-58420003D01*
X139983974Y-58616126D01*
X139983975Y-58616129D01*
X140041187Y-58804730D01*
X140041188Y-58804732D01*
X140104458Y-58923100D01*
X140134090Y-58978538D01*
X140134092Y-58978540D01*
X140134093Y-58978542D01*
X140259112Y-59130878D01*
X140259121Y-59130887D01*
X140411457Y-59255906D01*
X140411462Y-59255910D01*
X140585273Y-59348814D01*
X140773868Y-59406024D01*
X140773870Y-59406024D01*
X140773873Y-59406025D01*
X140969997Y-59425341D01*
X140970000Y-59425341D01*
X140970003Y-59425341D01*
X141166126Y-59406025D01*
X141166127Y-59406024D01*
X141166132Y-59406024D01*
X141354727Y-59348814D01*
X141528538Y-59255910D01*
X141680883Y-59130883D01*
X141805910Y-58978538D01*
X141898814Y-58804727D01*
X141956024Y-58616132D01*
X141957366Y-58602513D01*
X141975341Y-58420003D01*
X141975341Y-58419996D01*
X141956025Y-58223873D01*
X141956024Y-58223870D01*
X141956024Y-58223868D01*
X141898814Y-58035273D01*
X141898720Y-58035098D01*
X141853236Y-57950003D01*
X141805910Y-57861462D01*
X141760975Y-57806709D01*
X141680887Y-57709121D01*
X141680878Y-57709112D01*
X141528542Y-57584093D01*
X141528540Y-57584092D01*
X141528538Y-57584090D01*
X141432673Y-57532849D01*
X141354732Y-57491188D01*
X141354730Y-57491187D01*
X141352488Y-57490507D01*
X141166132Y-57433976D01*
X141166129Y-57433975D01*
X141166126Y-57433974D01*
X140970003Y-57414659D01*
X140969997Y-57414659D01*
X140773873Y-57433974D01*
X140773870Y-57433975D01*
X140585269Y-57491187D01*
X140585267Y-57491188D01*
X140411467Y-57584087D01*
X140411457Y-57584093D01*
X140259121Y-57709112D01*
X140259112Y-57709121D01*
X140134093Y-57861457D01*
X140134087Y-57861467D01*
X140041188Y-58035267D01*
X140041187Y-58035269D01*
X139983975Y-58223870D01*
X139983974Y-58223873D01*
X139964659Y-58419996D01*
X139964659Y-58420003D01*
X138430500Y-58420003D01*
X138430500Y-55880003D01*
X139964659Y-55880003D01*
X139983974Y-56076126D01*
X139983975Y-56076129D01*
X140041187Y-56264730D01*
X140041188Y-56264732D01*
X140086765Y-56349999D01*
X140134090Y-56438538D01*
X140134092Y-56438540D01*
X140134093Y-56438542D01*
X140259112Y-56590878D01*
X140259121Y-56590887D01*
X140409133Y-56713999D01*
X140411462Y-56715910D01*
X140585273Y-56808814D01*
X140773868Y-56866024D01*
X140773870Y-56866024D01*
X140773873Y-56866025D01*
X140969997Y-56885341D01*
X140970000Y-56885341D01*
X140970003Y-56885341D01*
X141166126Y-56866025D01*
X141166127Y-56866024D01*
X141166132Y-56866024D01*
X141354727Y-56808814D01*
X141528538Y-56715910D01*
X141680883Y-56590883D01*
X141805910Y-56438538D01*
X141898814Y-56264727D01*
X141956024Y-56076132D01*
X141958464Y-56051364D01*
X141975341Y-55880003D01*
X141975341Y-55879996D01*
X141956025Y-55683873D01*
X141956024Y-55683870D01*
X141956024Y-55683868D01*
X141898814Y-55495273D01*
X141805910Y-55321462D01*
X141796499Y-55309995D01*
X141680887Y-55169121D01*
X141680878Y-55169112D01*
X141528542Y-55044093D01*
X141528540Y-55044092D01*
X141528538Y-55044090D01*
X141437906Y-54995646D01*
X141354732Y-54951188D01*
X141354730Y-54951187D01*
X141166129Y-54893975D01*
X141166126Y-54893974D01*
X140970003Y-54874659D01*
X140969997Y-54874659D01*
X140773873Y-54893974D01*
X140773870Y-54893975D01*
X140585269Y-54951187D01*
X140585267Y-54951188D01*
X140411467Y-55044087D01*
X140411457Y-55044093D01*
X140259121Y-55169112D01*
X140259112Y-55169121D01*
X140134093Y-55321457D01*
X140134087Y-55321467D01*
X140041188Y-55495267D01*
X140041187Y-55495269D01*
X139983975Y-55683870D01*
X139983974Y-55683873D01*
X139964659Y-55879996D01*
X139964659Y-55880003D01*
X138430500Y-55880003D01*
X138430500Y-51669700D01*
X139920000Y-51669700D01*
X139931603Y-51728036D01*
X139975806Y-51794189D01*
X139975810Y-51794193D01*
X140041963Y-51838396D01*
X140100299Y-51849999D01*
X140100303Y-51850000D01*
X140869999Y-51850000D01*
X140870000Y-51849999D01*
X140870000Y-51399000D01*
X140888907Y-51340809D01*
X140938407Y-51304845D01*
X140969000Y-51300000D01*
X140971000Y-51300000D01*
X141029191Y-51318907D01*
X141065155Y-51368407D01*
X141070000Y-51399000D01*
X141070000Y-51849999D01*
X141070001Y-51850000D01*
X141839697Y-51850000D01*
X141839700Y-51849999D01*
X141898036Y-51838396D01*
X141964189Y-51794193D01*
X141964193Y-51794189D01*
X142008396Y-51728036D01*
X142019999Y-51669700D01*
X142020000Y-51669697D01*
X142020000Y-50900000D01*
X141569000Y-50900000D01*
X141510809Y-50881093D01*
X141474845Y-50831593D01*
X141470000Y-50801000D01*
X141470000Y-50799000D01*
X141488907Y-50740809D01*
X141538407Y-50704845D01*
X141569000Y-50700000D01*
X142019999Y-50700000D01*
X142020000Y-50699999D01*
X142020000Y-49930302D01*
X142019999Y-49930299D01*
X142008396Y-49871963D01*
X141964193Y-49805810D01*
X141964189Y-49805806D01*
X141898036Y-49761603D01*
X141839700Y-49750000D01*
X141070000Y-49750000D01*
X141070000Y-50201000D01*
X141051093Y-50259191D01*
X141001593Y-50295155D01*
X140971000Y-50300000D01*
X140969000Y-50300000D01*
X140910809Y-50281093D01*
X140874845Y-50231593D01*
X140870000Y-50201000D01*
X140870000Y-49750000D01*
X140100299Y-49750000D01*
X140041963Y-49761603D01*
X139975810Y-49805806D01*
X139975806Y-49805810D01*
X139931603Y-49871963D01*
X139920000Y-49930299D01*
X139920000Y-50699999D01*
X139920001Y-50700000D01*
X140371000Y-50700000D01*
X140429191Y-50718907D01*
X140465155Y-50768407D01*
X140470000Y-50799000D01*
X140470000Y-50801000D01*
X140451093Y-50859191D01*
X140401593Y-50895155D01*
X140371000Y-50900000D01*
X139920001Y-50900000D01*
X139920000Y-50900001D01*
X139920000Y-51669700D01*
X138430500Y-51669700D01*
X138430500Y-50261619D01*
X138430606Y-50258381D01*
X138430607Y-50258371D01*
X138435991Y-50176208D01*
X138449040Y-49993779D01*
X138449866Y-49987651D01*
X138461273Y-49930302D01*
X138473155Y-49870567D01*
X138504685Y-49725625D01*
X138506163Y-49720302D01*
X138546813Y-49600551D01*
X138596385Y-49467643D01*
X138598348Y-49463098D01*
X138655583Y-49347036D01*
X138722453Y-49224574D01*
X138724713Y-49220841D01*
X138796739Y-49113047D01*
X138798214Y-49110962D01*
X138880561Y-49000959D01*
X138882931Y-48998035D01*
X138968758Y-48900168D01*
X138970927Y-48897852D01*
X139067852Y-48800927D01*
X139070168Y-48798758D01*
X139168035Y-48712931D01*
X139170959Y-48710561D01*
X139280962Y-48628214D01*
X139283047Y-48626739D01*
X139390841Y-48554713D01*
X139394574Y-48552453D01*
X139517036Y-48485583D01*
X139633098Y-48428348D01*
X139637643Y-48426385D01*
X139770551Y-48376813D01*
X139890302Y-48336163D01*
X139895625Y-48334685D01*
X140040567Y-48303155D01*
X140157651Y-48279865D01*
X140163779Y-48279040D01*
X140346208Y-48265991D01*
X140428384Y-48260605D01*
X140431619Y-48260500D01*
X166908381Y-48260500D01*
X166911615Y-48260605D01*
G37*
%TD.AperFunction*%
%TD*%
M02*
