M48
; DRILL file {KiCad 7.0.7} date Fri May 24 21:07:47 2024
; FORMAT={-:-/ absolute / metric / decimal}
; #@! TF.CreationDate,2024-05-24T21:07:47-04:00
; #@! TF.GenerationSoftware,Kicad,Pcbnew,7.0.7
; #@! TF.FileFunction,Plated,1,2,PTH
FMAT,2
METRIC
; #@! TA.AperFunction,Plated,PTH,ViaDrill
T1C0.300
; #@! TA.AperFunction,Plated,PTH,ComponentDrill
T2C0.300
; #@! TA.AperFunction,Plated,PTH,ViaDrill
T3C0.500
; #@! TA.AperFunction,Plated,PTH,ComponentDrill
T4C0.600
; #@! TA.AperFunction,Plated,PTH,ComponentDrill
T5C1.000
%
G90
G05
T1
X140.335Y-74.93
X144.526Y-74.422
X144.78Y-90.17
X144.78Y-98.044
X145.669Y-84.709
X146.304Y-52.07
X146.304Y-76.581
X146.431Y-70.993
X146.431Y-84.709
X146.939Y-49.53
X147.081Y-84.709
X147.828Y-84.709
X148.336Y-80.772
X148.844Y-81.534
X149.606Y-90.932
X150.241Y-85.217
X150.368Y-90.932
X150.368Y-93.98
X150.622Y-73.914
X151.003Y-85.217
X151.13Y-77.978
X151.257Y-72.644
X151.272Y-73.533
X151.892Y-66.04
X151.892Y-77.978
X152.273Y-81.534
X152.273Y-82.184
X152.654Y-77.978
X152.908Y-94.259
X153.035Y-70.041
X153.162Y-66.04
X153.162Y-82.804
X153.162Y-88.392
X153.67Y-71.628
X153.695Y-90.195
X153.7Y-93.382
X154.254Y-94.259
X155.448Y-68.58
X156.083Y-89.281
X156.337Y-71.628
X156.845Y-89.281
X156.845Y-94.234
X159.766Y-65.786
X160.147Y-54.61
X160.782Y-49.53
X160.782Y-75.438
X160.909Y-70.993
X160.909Y-71.755
X161.163Y-53.34
X161.163Y-62.23
X161.163Y-63.5
X161.163Y-64.77
X162.56Y-98.298
X163.187Y-80.338
X163.195Y-68.072
X163.195Y-68.722
X163.195Y-69.371
X163.258Y-79.692
X163.322Y-81.026
X163.322Y-90.424
T2
X150.91Y-56.55
X150.91Y-57.95
X151.61Y-55.85
X151.61Y-57.25
X151.61Y-58.65
X152.31Y-56.55
X152.31Y-57.95
X153.01Y-55.85
X153.01Y-57.25
X153.01Y-58.65
X153.71Y-56.55
X153.71Y-57.95
T3
X148.335Y-63.592
X149.006Y-64.263
X150.811Y-69.088
X151.257Y-93.98
X153.162Y-76.454
X155.575Y-90.17
X155.702Y-91.313
X159.258Y-91.694
X160.951Y-81.068
X161.29Y-84.37
T5
X140.97Y-50.8
X140.97Y-53.34
X140.97Y-55.88
X140.97Y-58.42
X140.97Y-60.96
X140.97Y-63.5
X140.97Y-66.04
X140.97Y-68.58
X140.97Y-71.12
X140.97Y-73.66
X140.97Y-76.2
X140.97Y-78.74
X140.97Y-81.28
X140.97Y-83.82
X140.97Y-86.36
X140.97Y-88.9
X140.97Y-91.44
X140.97Y-93.98
X140.97Y-96.52
X140.97Y-99.06
X166.37Y-50.8
X166.37Y-53.34
X166.37Y-55.88
X166.37Y-58.42
X166.37Y-60.96
X166.37Y-63.5
X166.37Y-66.04
X166.37Y-68.58
X166.37Y-71.12
X166.37Y-73.66
X166.37Y-76.2
X166.37Y-78.74
X166.37Y-81.28
X166.37Y-83.82
X166.37Y-86.36
X166.37Y-88.9
X166.37Y-91.44
X166.37Y-93.98
X166.37Y-96.52
X166.37Y-99.06
T4
G00X149.35Y-95.385
M15
G01X149.35Y-96.485
M16
G05
G00X149.35Y-99.735
M15
G01X149.35Y-100.535
M16
G05
G00X157.99Y-95.385
M15
G01X157.99Y-96.485
M16
G05
G00X157.99Y-99.735
M15
G01X157.99Y-100.535
M16
G05
T0
M30
