%TF.GenerationSoftware,KiCad,Pcbnew,7.0.7*%
%TF.CreationDate,2024-06-24T12:04:25-04:00*%
%TF.ProjectId,ESP32_S3_Breakout,45535033-325f-4533-935f-427265616b6f,rev?*%
%TF.SameCoordinates,Original*%
%TF.FileFunction,Paste,Top*%
%TF.FilePolarity,Positive*%
%FSLAX46Y46*%
G04 Gerber Fmt 4.6, Leading zero omitted, Abs format (unit mm)*
G04 Created by KiCad (PCBNEW 7.0.7) date 2024-06-24 12:04:25*
%MOMM*%
%LPD*%
G01*
G04 APERTURE LIST*
G04 Aperture macros list*
%AMRoundRect*
0 Rectangle with rounded corners*
0 $1 Rounding radius*
0 $2 $3 $4 $5 $6 $7 $8 $9 X,Y pos of 4 corners*
0 Add a 4 corners polygon primitive as box body*
4,1,4,$2,$3,$4,$5,$6,$7,$8,$9,$2,$3,0*
0 Add four circle primitives for the rounded corners*
1,1,$1+$1,$2,$3*
1,1,$1+$1,$4,$5*
1,1,$1+$1,$6,$7*
1,1,$1+$1,$8,$9*
0 Add four rect primitives between the rounded corners*
20,1,$1+$1,$2,$3,$4,$5,0*
20,1,$1+$1,$4,$5,$6,$7,0*
20,1,$1+$1,$6,$7,$8,$9,0*
20,1,$1+$1,$8,$9,$2,$3,0*%
G04 Aperture macros list end*
%ADD10R,0.650000X0.400000*%
%ADD11R,1.500000X2.000000*%
%ADD12R,3.800000X2.000000*%
%ADD13R,0.900000X0.900000*%
%ADD14R,1.500000X0.900000*%
%ADD15R,0.900000X1.500000*%
%ADD16RoundRect,0.150000X0.150000X-0.825000X0.150000X0.825000X-0.150000X0.825000X-0.150000X-0.825000X0*%
%ADD17R,1.800000X1.750000*%
%ADD18RoundRect,0.200000X-0.275000X0.200000X-0.275000X-0.200000X0.275000X-0.200000X0.275000X0.200000X0*%
%ADD19RoundRect,0.218750X0.256250X-0.218750X0.256250X0.218750X-0.256250X0.218750X-0.256250X-0.218750X0*%
%ADD20RoundRect,0.218750X-0.256250X0.218750X-0.256250X-0.218750X0.256250X-0.218750X0.256250X0.218750X0*%
%ADD21RoundRect,0.225000X-0.225000X-0.250000X0.225000X-0.250000X0.225000X0.250000X-0.225000X0.250000X0*%
%ADD22RoundRect,0.225000X0.225000X0.250000X-0.225000X0.250000X-0.225000X-0.250000X0.225000X-0.250000X0*%
%ADD23RoundRect,0.225000X-0.250000X0.225000X-0.250000X-0.225000X0.250000X-0.225000X0.250000X0.225000X0*%
%ADD24RoundRect,0.218750X-0.218750X-0.256250X0.218750X-0.256250X0.218750X0.256250X-0.218750X0.256250X0*%
%ADD25RoundRect,0.250000X0.475000X-0.250000X0.475000X0.250000X-0.475000X0.250000X-0.475000X-0.250000X0*%
%ADD26RoundRect,0.200000X0.200000X0.275000X-0.200000X0.275000X-0.200000X-0.275000X0.200000X-0.275000X0*%
%ADD27R,0.700000X1.200000*%
%ADD28RoundRect,0.225000X0.250000X-0.225000X0.250000X0.225000X-0.250000X0.225000X-0.250000X-0.225000X0*%
%ADD29R,0.600000X1.240000*%
%ADD30R,0.300000X1.240000*%
%ADD31R,1.500000X1.500000*%
%ADD32RoundRect,0.200000X-0.200000X-0.275000X0.200000X-0.275000X0.200000X0.275000X-0.200000X0.275000X0*%
%ADD33RoundRect,0.150000X-0.150000X0.512500X-0.150000X-0.512500X0.150000X-0.512500X0.150000X0.512500X0*%
G04 APERTURE END LIST*
D10*
%TO.C,Q1*%
X147401200Y-75103200D03*
X147401200Y-75753200D03*
X147401200Y-76403200D03*
X149301200Y-76403200D03*
X149301200Y-75753200D03*
X149301200Y-75103200D03*
%TD*%
D11*
%TO.C,U4*%
X151624000Y-80060800D03*
D12*
X153924000Y-73760800D03*
D11*
X153924000Y-80060800D03*
X156224000Y-80060800D03*
%TD*%
D13*
%TO.C,U1*%
X153710000Y-57250000D03*
X150910000Y-55850000D03*
X150910000Y-58650000D03*
X153710000Y-58650000D03*
X153710000Y-55850000D03*
X152310000Y-58650000D03*
X150910000Y-57250000D03*
X152310000Y-57250000D03*
X152310000Y-55850000D03*
D14*
X145060000Y-49530000D03*
X145060000Y-50800000D03*
X145060000Y-52070000D03*
X145060000Y-53340000D03*
X145060000Y-54610000D03*
X145060000Y-55880000D03*
X145060000Y-57150000D03*
X145060000Y-58420000D03*
X145060000Y-59690000D03*
X145060000Y-60960000D03*
X145060000Y-62230000D03*
X145060000Y-63500000D03*
X145060000Y-64770000D03*
X145060000Y-66040000D03*
D15*
X146825000Y-67290000D03*
X148095000Y-67290000D03*
X149365000Y-67290000D03*
X150635000Y-67290000D03*
X151905000Y-67290000D03*
X153175000Y-67290000D03*
X154445000Y-67290000D03*
X155715000Y-67290000D03*
X156985000Y-67290000D03*
X158255000Y-67290000D03*
X159525000Y-67290000D03*
X160795000Y-67290000D03*
D14*
X162560000Y-66040000D03*
X162560000Y-64770000D03*
X162560000Y-63500000D03*
X162560000Y-62230000D03*
X162560000Y-60960000D03*
X162560000Y-59690000D03*
X162560000Y-58420000D03*
X162560000Y-57150000D03*
X162560000Y-55880000D03*
X162560000Y-54610000D03*
X162560000Y-53340000D03*
X162560000Y-52070000D03*
X162560000Y-50800000D03*
X162560000Y-49530000D03*
%TD*%
D16*
%TO.C,U3*%
X154787600Y-87855600D03*
X156057600Y-87855600D03*
X157327600Y-87855600D03*
X158597600Y-87855600D03*
X159867600Y-87855600D03*
X161137600Y-87855600D03*
X162407600Y-87855600D03*
X163677600Y-87855600D03*
X163677600Y-82905600D03*
X162407600Y-82905600D03*
X161137600Y-82905600D03*
X159867600Y-82905600D03*
X158597600Y-82905600D03*
X157327600Y-82905600D03*
X156057600Y-82905600D03*
X154787600Y-82905600D03*
%TD*%
D17*
%TO.C,Y1*%
X145135600Y-78587600D03*
X145135600Y-75337600D03*
%TD*%
D18*
%TO.C,R7*%
X160680400Y-73534000D03*
X160680400Y-75184000D03*
%TD*%
%TO.C,R6*%
X158140400Y-70154800D03*
X158140400Y-71804800D03*
%TD*%
D19*
%TO.C,D2*%
X160680400Y-78892400D03*
X160680400Y-77317400D03*
%TD*%
D20*
%TO.C,D1*%
X159766000Y-70205600D03*
X159766000Y-71780600D03*
%TD*%
D21*
%TO.C,C10*%
X147497200Y-79603600D03*
X149047200Y-79603600D03*
%TD*%
D22*
%TO.C,C9*%
X146151600Y-73355200D03*
X144601600Y-73355200D03*
%TD*%
D23*
%TO.C,C1*%
X158750000Y-77368400D03*
X158750000Y-78918400D03*
%TD*%
%TO.C,C7*%
X153416000Y-70205600D03*
X153416000Y-71755600D03*
%TD*%
D24*
%TO.C,F1*%
X156692500Y-91694000D03*
X158267500Y-91694000D03*
%TD*%
D25*
%TO.C,C5*%
X158750000Y-75306000D03*
X158750000Y-73406000D03*
%TD*%
D26*
%TO.C,R5*%
X149262600Y-73558400D03*
X147612600Y-73558400D03*
%TD*%
D27*
%TO.C,SW1*%
X145455000Y-82144800D03*
X147955000Y-82144800D03*
X150455000Y-82144800D03*
X145455000Y-88644800D03*
X147955000Y-88644800D03*
X150455000Y-88644800D03*
%TD*%
D28*
%TO.C,C6*%
X156565600Y-71755600D03*
X156565600Y-70205600D03*
%TD*%
D29*
%TO.C,J1*%
X150470000Y-95335000D03*
X151270000Y-95335000D03*
D30*
X152420000Y-95335000D03*
X153420000Y-95335000D03*
X153920000Y-95335000D03*
X154920000Y-95335000D03*
D29*
X156070000Y-95335000D03*
X156870000Y-95335000D03*
X156870000Y-95335000D03*
X156070000Y-95335000D03*
D30*
X155420000Y-95335000D03*
X154420000Y-95335000D03*
X152920000Y-95335000D03*
X151920000Y-95335000D03*
D29*
X151270000Y-95335000D03*
X150470000Y-95335000D03*
%TD*%
D31*
%TO.C,SW2*%
X144983200Y-101740800D03*
X144983200Y-93940800D03*
%TD*%
D26*
%TO.C,R1*%
X145542000Y-91567000D03*
X143892000Y-91567000D03*
%TD*%
D28*
%TO.C,C8*%
X149479000Y-71882000D03*
X149479000Y-70332000D03*
%TD*%
%TO.C,C2*%
X145440400Y-71400000D03*
X145440400Y-69850000D03*
%TD*%
D26*
%TO.C,R2*%
X163321000Y-91821000D03*
X161671000Y-91821000D03*
%TD*%
D18*
%TO.C,R3*%
X151841200Y-70154800D03*
X151841200Y-71804800D03*
%TD*%
D32*
%TO.C,R4*%
X147460200Y-78028800D03*
X149110200Y-78028800D03*
%TD*%
D23*
%TO.C,C3*%
X154990800Y-70205600D03*
X154990800Y-71755600D03*
%TD*%
D31*
%TO.C,SW3*%
X162407600Y-93940800D03*
X162407600Y-101740800D03*
%TD*%
D25*
%TO.C,C4*%
X147447000Y-71750000D03*
X147447000Y-69850000D03*
%TD*%
D33*
%TO.C,U2*%
X154620000Y-90048500D03*
X153670000Y-90048500D03*
X152720000Y-90048500D03*
X152720000Y-92323500D03*
X153670000Y-92323500D03*
X154620000Y-92323500D03*
%TD*%
M02*
